Dedigama.glyphspackage
{
glyphname = exclam;
layers = (
{
layerId = m001;
shapes = (
{
closed = 1;
nodes = (
(81.4,156.399,l),
(46.2,480.399,ls),
(44.6,494.533,o),
(43.8,505.066,o),
(43.8,512,cs),
(43.8,528.8,o),
(48.267,542.267,o),
(57.2,552.399,cs),
(66.134,562.533,o),
(76.866,567.6,o),
(89.4,567.6,cs),
(101.934,567.6,o),
(112.533,562.533,o),
(121.2,552.399,cs),
(129.866,542.267,o),
(134.2,527.199,o),
(134.2,507.199,cs),
(134.2,500.8,o),
(133.667,491.866,o),
(132.6,480.399,cs),
(96.6,156.399,l)
);
},
{
closed = 1;
nodes = (
(100.866,90,o),
(111.333,85.666,o),
(120,77,cs),
(128.667,68.333,o),
(133,58,o),
(133,46,cs),
(133,33.733,o),
(128.667,23.267,o),
(120,14.6,cs),
(111.333,5.933,o),
(100.866,1.6,o),
(88.6,1.6,cs),
(76.333,1.6,o),
(65.866,5.933,o),
(57.2,14.6,cs),
(48.533,23.267,o),
(44.2,33.733,o),
(44.2,46,cs),
(44.2,58,o),
(48.533,68.333,o),
(57.2,77,cs),
(65.866,85.666,o),
(76.333,90,o),
(88.6,90,cs)
);
}
);
width = 172;
}
);
unicode = 33;
}
{
glyphname = numbersign;
layers = (
{
layerId = m001;
shapes = (
{
closed = 1;
nodes = (
(105.2,190,l),
(36.8,190,l),
(36.8,222.8,l),
(111.6,222.8,l),
(139.2,360,l),
(36.8,360,l),
(36.8,392,l),
(146.8,392,l),
(183.2,574,l),
(216.399,574,l),
(180,392,l),
(314.8,392,l),
(353.6,574,l),
(386.8,574,l),
(348.8,392,l),
(416.8,392,l),
(416.8,360,l),
(342.8,360,l),
(314.8,222.8,l),
(416.8,222.8,l),
(416.8,190,l),
(308,190,l),
(270.8,8,l),
(238.399,8,l),
(274.8,190,l),
(139.2,190,l),
(101.2,8,l),
(68,8,l)
);
},
{
closed = 1;
nodes = (
(280.8,222.8,l),
(309.6,360,l),
(173.2,360,l),
(145.2,222.8,l)
);
}
);
width = 462;
}
);
unicode = 35;
}
{
glyphname = parenleft;
layers = (
{
layerId = m001;
shapes = (
{
closed = 1;
nodes = (
(250,-3.2,l),
(209.733,17.066,o),
(176.133,40.8,o),
(149.199,68,cs),
(110.8,106.666,o),
(81.199,152.267,o),
(60.399,204.8,cs),
(39.6,257.333,o),
(29.199,311.866,o),
(29.199,368.399,cs),
(29.199,451.066,o),
(49.6,526.467,o),
(90.399,594.6,cs),
(131.199,662.733,o),
(184.399,711.467,o),
(250,740.8,c),
(250,724,l),
(217.199,705.866,o),
(190.267,681.066,o),
(169.199,649.6,cs),
(148.133,618.133,o),
(132.399,578.267,o),
(122,530,cs),
(111.6,481.733,o),
(106.399,431.333,o),
(106.399,378.8,cs),
(106.399,321.733,o),
(110.8,269.866,o),
(119.6,223.2,cs),
(126.533,186.399,o),
(134.933,156.866,o),
(144.8,134.6,cs),
(154.666,112.333,o),
(167.933,90.934,o),
(184.6,70.399,cs),
(201.267,49.866,o),
(223.066,30.267,o),
(250,11.6,c)
);
}
);
width = 300;
}
);
unicode = 40;
}
{
glyphname = parenright;
layers = (
{
layerId = m001;
shapes = (
{
closed = 1;
nodes = (
(27.199,743.6,l),
(67.733,723.6,o),
(101.466,700,o),
(128.399,672.8,cs),
(166.533,633.866,o),
(196,588.199,o),
(216.8,535.8,cs),
(237.6,483.399,o),
(248,428.8,o),
(248,372,cs),
(248,289.333,o),
(227.666,213.933,o),
(187,145.8,cs),
(146.333,77.666,o),
(93.066,28.933,o),
(27.199,-0.4,c),
(27.199,14.399,l),
(60,32.8,o),
(87,57.666,o),
(108.199,89,cs),
(129.399,120.333,o),
(145.133,160.199,o),
(155.399,208.6,cs),
(165.666,257,o),
(170.8,307.466,o),
(170.8,360,cs),
(170.8,416.8,o),
(166.399,468.666,o),
(157.6,515.6,cs),
(150.933,552.399,o),
(142.6,581.866,o),
(132.6,604,cs),
(122.6,626.133,o),
(109.333,647.466,o),
(92.8,668,cs),
(76.267,688.533,o),
(54.399,708.133,o),
(27.199,726.8,c)
);
}
);
width = 288;
}
);
unicode = 41;
}
{
glyphname = asterisk;
layers = (
{
layerId = m001;
shapes = (
{
closed = 1;
nodes = (
(184.133,562.601,o),
(180.399,580.867,o),
(174,599,cs),
(164.933,625.134,o),
(160.399,643.134,o),
(160.399,653,cs),
(160.399,666.867,o),
(163.666,677.4,o),
(170.199,684.601,cs),
(176.733,691.801,o),
(184.8,695.4,o),
(194.399,695.4,cs),
(202.666,695.4,o),
(209.866,691.801,o),
(216,684.601,cs),
(222.133,677.4,o),
(225.199,667.134,o),
(225.199,653.801,cs),
(225.199,641.801,o),
(221.666,625.067,o),
(214.6,603.601,cs),
(207.533,582.134,o),
(203.199,562.334,o),
(201.6,544.2,c),
(216.267,553.534,o),
(229.466,564.867,o),
(241.199,578.2,cs),
(259.333,599.267,o),
(272.8,612.334,o),
(281.6,617.4,cs),
(290.399,622.467,o),
(299.333,625,o),
(308.399,625,cs),
(317.199,625,o),
(324.6,622,o),
(330.6,616,cs),
(336.6,610,o),
(339.6,602.867,o),
(339.6,594.601,cs),
(339.6,584.733,o),
(335.199,575.934,o),
(326.399,568.2,cs),
(317.6,560.467,o),
(295.6,552.733,o),
(260.399,545,cs),
(239.866,540.467,o),
(222.8,535.267,o),
(209.199,529.4,c),
(223.066,522.2,o),
(240,516.733,o),
(260,513,cs),
(292.267,507.134,o),
(313.399,499.801,o),
(323.399,491,cs),
(333.399,482.2,o),
(338.399,472.601,o),
(338.399,462.2,cs),
(338.399,454.2,o),
(335.399,447.267,o),
(329.399,441.4,cs),
(323.399,435.534,o),
(316.399,432.601,o),
(308.399,432.601,cs),
(300.399,432.601,o),
(291.533,435.4,o),
(281.8,441,cs),
(272.066,446.601,o),
(258.933,459.134,o),
(242.399,478.601,cs),
(231.466,491.667,o),
(217.866,503.934,o),
(201.6,515.4,c),
(202.133,500.2,o),
(205.199,483.667,o),
(210.8,465.801,cs),
(220.399,434.334,o),
(225.199,412.867,o),
(225.199,401.4,cs),
(225.199,390.733,o),
(222,381.733,o),
(215.6,374.4,cs),
(209.199,367.067,o),
(202.399,363.4,o),
(195.199,363.4,cs),
(185.333,363.4,o),
(176.399,367.267,o),
(168.399,375,cs),
(162.8,380.601,o),
(160,389.534,o),
(160,401.801,cs),
(160,414.601,o),
(163.066,430,o),
(169.199,448,cs),
(175.333,466,o),
(179.199,478.4,o),
(180.8,485.2,cs),
(182.399,492,o),
(183.866,502.067,o),
(185.199,515.4,c),
(169.466,505,o),
(155.733,493.4,o),
(144,480.601,cs),
(124.533,458.733,o),
(109.866,444.867,o),
(100,439,cs),
(93.066,434.733,o),
(85.866,432.601,o),
(78.399,432.601,cs),
(69.333,432.601,o),
(61.6,435.667,o),
(55.199,441.801,cs),
(48.8,447.934,o),
(45.6,454.733,o),
(45.6,462.2,cs),
(45.6,468.867,o),
(48.333,475.867,o),
(53.8,483.2,cs),
(59.267,490.534,o),
(67.466,496.601,o),
(78.399,501.4,cs),
(85.6,504.601,o),
(102,508.867,o),
(127.6,514.2,cs),
(144.133,517.667,o),
(160.267,522.733,o),
(176,529.4,c),
(161.6,536.601,o),
(144.399,542.2,o),
(124.399,546.2,cs),
(91.6,553.134,o),
(71.333,559.4,o),
(63.6,565,cs),
(51.6,573.801,o),
(45.6,584.467,o),
(45.6,597,cs),
(45.6,604.2,o),
(48.6,610.801,o),
(54.6,616.801,cs),
(60.6,622.801,o),
(67.6,625.801,o),
(75.6,625.801,cs),
(84.399,625.801,o),
(93.733,623,o),
(103.6,617.4,cs),
(113.466,611.801,o),
(125.733,600.534,o),
(140.399,583.601,cs),
(155.066,566.667,o),
(170,553.534,o),
(185.199,544.2,c)
);
}
);
width = 375;
}
);
unicode = 42;
}
{
glyphname = comma;
layers = (
{
layerId = m001;
shapes = (
{
closed = 1;
nodes = (
(26.4,-107.199,l),
(53.866,-98.133,o),
(75.134,-84.066,o),
(90.2,-65,cs),
(105.267,-45.933,o),
(112.8,-25.733,o),
(112.8,-4.399,cs),
(112.8,0.667,o),
(111.6,4.934,o),
(109.2,8.4,cs),
(107.333,10.801,o),
(105.467,12,o),
(103.6,12,cs),
(100.667,12,o),
(94.267,9.334,o),
(84.4,4,cs),
(79.6,1.601,o),
(74.533,0.4,o),
(69.2,0.4,cs),
(56.134,0.4,o),
(45.733,4.267,o),
(38,12,cs),
(30.267,19.733,o),
(26.4,30.4,o),
(26.4,44,cs),
(26.4,57.067,o),
(31.4,68.267,o),
(41.4,77.601,cs),
(51.4,86.934,o),
(63.6,91.601,o),
(78,91.601,cs),
(95.6,91.601,o),
(111.267,83.934,o),
(125,68.601,cs),
(138.733,53.267,o),
(145.6,32.934,o),
(145.6,7.601,cs),
(145.6,-19.866,o),
(136.066,-45.399,o),
(117,-69,cs),
(97.934,-92.6,o),
(67.733,-111.199,o),
(26.4,-124.8,c)
);
}
);
width = 172;
}
);
unicode = 44;
}
{
glyphname = hyphen;
layers = (
{
layerId = m001;
shapes = (
{
closed = 1;
nodes = (
(249,316.4,l),
(249,256,l),
(42.199,256,l),
(42.199,316.4,l)
);
}
);
width = 285;
}
);
unicode = 45;
}
{
glyphname = period;
layers = (
{
layerId = m001;
shapes = (
{
closed = 1;
nodes = (
(69.533,89.801,o),
(80.066,85.467,o),
(88.6,76.801,cs),
(97.134,68.134,o),
(101.4,57.667,o),
(101.4,45.4,cs),
(101.4,33.134,o),
(97.066,22.667,o),
(88.4,14,cs),
(79.733,5.334,o),
(69.267,1,o),
(57,1,cs),
(44.733,1,o),
(34.267,5.334,o),
(25.6,14,cs),
(16.934,22.667,o),
(12.6,33.134,o),
(12.6,45.4,cs),
(12.6,57.934,o),
(16.934,68.467,o),
(25.6,77,cs),
(34.267,85.534,o),
(44.733,89.801,o),
(57,89.801,cs)
);
}
);
width = 120;
}
);
unicode = 46;
}
{
glyphname = slash;
layers = (
{
layerId = m001;
shapes = (
{
closed = 1;
nodes = (
(49,3,l),
(17,3,l),
(213.4,583,l),
(245.4,583,l)
);
}
);
width = 295;
}
);
unicode = 47;
}
{
glyphname = question;
layers = (
{
layerId = m001;
shapes = (
{
closed = 1;
nodes = (
(150.801,147.6,l),
(152.667,181.199,o),
(156.867,209,o),
(163.4,231,cs),
(169.934,253,o),
(183.467,283.6,o),
(204,322.8,cs),
(220,352.933,o),
(230.4,376.066,o),
(235.2,392.199,cs),
(240,408.333,o),
(242.4,424.666,o),
(242.4,441.199,cs),
(242.4,475.066,o),
(233.4,502,o),
(215.4,522,cs),
(197.4,542,o),
(175.334,552,o),
(149.2,552,cs),
(126,552,o),
(107.733,546.533,o),
(94.4,535.6,cs),
(81.067,524.666,o),
(74.4,512.8,o),
(74.4,500,cs),
(74.4,490.133,o),
(78.4,478,o),
(86.4,463.6,cs),
(94.4,449.199,o),
(98.4,438.267,o),
(98.4,430.8,cs),
(98.4,421.199,o),
(95.334,413.133,o),
(89.2,406.6,cs),
(83.067,400.066,o),
(75.601,396.8,o),
(66.801,396.8,cs),
(55.601,396.8,o),
(45.4,402.333,o),
(36.2,413.399,cs),
(27,424.466,o),
(22.4,439.866,o),
(22.4,459.6,cs),
(22.4,489.733,o),
(35.334,516.399,o),
(61.2,539.6,cs),
(87.067,562.8,o),
(122.134,574.399,o),
(166.4,574.399,cs),
(221.334,574.399,o),
(261.733,558.399,o),
(287.601,526.399,cs),
(306.801,502.933,o),
(316.4,476.933,o),
(316.4,448.399,cs),
(316.4,428.933,o),
(312.067,408.933,o),
(303.4,388.399,cs),
(294.733,367.866,o),
(278.267,343.733,o),
(254,316,cs),
(215.334,272.267,o),
(191.667,241.267,o),
(183,223,cs),
(174.334,204.733,o),
(169.067,179.6,o),
(167.2,147.6,c)
);
},
{
closed = 1;
nodes = (
(174.134,98,o),
(184.733,93.666,o),
(193.4,85,cs),
(202.067,76.333,o),
(206.4,65.733,o),
(206.4,53.199,cs),
(206.4,40.933,o),
(202,30.466,o),
(193.2,21.8,cs),
(184.4,13.133,o),
(173.867,8.8,o),
(161.601,8.8,cs),
(149.334,8.8,o),
(138.867,13.133,o),
(130.2,21.8,cs),
(121.534,30.466,o),
(117.2,40.933,o),
(117.2,53.199,cs),
(117.2,65.733,o),
(121.534,76.333,o),
(130.2,85,cs),
(138.867,93.666,o),
(149.334,98,o),
(161.601,98,cs)
);
}
);
width = 347;
}
);
unicode = 63;
}
{
glyphname = bracketleft;
layers = (
{
layerId = m001;
shapes = (
{
closed = 1;
nodes = (
(30,2.4,l),
(30,719.6,l),
(206,719.6,l),
(206,688,l),
(90,688,l),
(90,33.6,l),
(206,33.6,l),
(206,2.4,l)
);
}
);
width = 247;
}
);
unicode = 91;
}
{
glyphname = backslash;
layers = (
{
layerId = m001;
shapes = (
{
closed = 1;
nodes = (
(242,0,l),
(210,0,l),
(14,580,l),
(46,580,l)
);
}
);
width = 268;
}
);
unicode = 92;
}
{
glyphname = bracketright;
layers = (
{
layerId = m001;
shapes = (
{
closed = 1;
nodes = (
(199,717.6,l),
(199,0,l),
(23,0,l),
(23,31.6,l),
(139,31.6,l),
(139,686,l),
(23,686,l),
(23,717.6,l)
);
}
);
width = 241;
}
);
unicode = 93;
}
{
glyphname = underscore;
layers = (
{
layerId = m001;
shapes = (
{
closed = 1;
nodes = (
(15,0.4,l),
(15,34,l),
(438.6,34,l),
(438.6,0.4,l)
);
}
);
width = 457;
}
);
unicode = 95;
}
{
glyphname = braceleft;
layers = (
{
layerId = m001;
shapes = (
{
closed = 1;
nodes = (
(236.399,2,l),
(191.866,8.133,o),
(155.666,26.2,o),
(127.8,56.2,cs),
(99.934,86.2,o),
(86,119.467,o),
(86,156,cs),
(86,175.2,o),
(89.066,197.533,o),
(95.2,223,cs),
(101.333,248.467,o),
(104.399,268.267,o),
(104.399,282.399,cs),
(104.399,301.6,o),
(96.333,319.533,o),
(80.2,336.2,cs),
(64.066,352.866,o),
(41.733,363.066,o),
(13.2,366.8,c),
(13.2,383.2,l),
(41.733,386.934,o),
(64.066,397.066,o),
(80.2,413.6,cs),
(96.333,430.133,o),
(104.399,448.133,o),
(104.399,467.6,cs),
(104.399,481.733,o),
(101.333,501.467,o),
(95.2,526.8,cs),
(89.066,552.133,o),
(86,574.533,o),
(86,594,cs),
(86,630.267,o),
(99.934,663.467,o),
(127.8,693.6,cs),
(155.666,723.733,o),
(191.866,741.733,o),
(236.399,747.6,c),
(236.399,733.6,l),
(205.2,726.133,o),
(182.333,713.934,o),
(167.8,697,cs),
(153.267,680.066,o),
(146,661.467,o),
(146,641.2,cs),
(146,625.467,o),
(149,604.733,o),
(155,579,cs),
(161,553.267,o),
(164,531.333,o),
(164,513.2,cs),
(164,486.267,o),
(154.133,460.133,o),
(134.399,434.8,cs),
(114.666,409.467,o),
(85.2,389.866,o),
(46,376,c),
(84.399,361.866,o),
(113.666,341.866,o),
(133.8,316,cs),
(153.934,290.133,o),
(164,263.733,o),
(164,236.8,cs),
(164,218.666,o),
(161,196.733,o),
(155,171,cs),
(149,145.267,o),
(146,124.533,o),
(146,108.8,cs),
(146,88.533,o),
(153.267,69.934,o),
(167.8,53,cs),
(182.333,36.066,o),
(205.2,23.733,o),
(236.399,16,c)
);
}
);
width = 251;
}
);
unicode = 123;
}
{
glyphname = braceright;
layers = (
{
layerId = m001;
shapes = (
{
closed = 1;
nodes = (
(19.4,747.2,l),
(63.934,741.334,o),
(100.134,723.4,o),
(128,693.4,cs),
(155.866,663.4,o),
(169.8,630,o),
(169.8,593.2,cs),
(169.8,574,o),
(166.733,551.733,o),
(160.6,526.4,cs),
(154.467,501.067,o),
(151.4,481.334,o),
(151.4,467.2,cs),
(151.4,448,o),
(159.467,430.067,o),
(175.6,413.4,cs),
(191.733,396.733,o),
(214.066,386.534,o),
(242.6,382.801,c),
(242.6,366.4,l),
(214.066,362.667,o),
(191.733,352.467,o),
(175.6,335.801,cs),
(159.467,319.134,o),
(151.4,301.2,o),
(151.4,282,cs),
(151.4,267.867,o),
(154.467,248.067,o),
(160.6,222.601,cs),
(166.733,197.134,o),
(169.8,174.801,o),
(169.8,155.601,cs),
(169.8,119.334,o),
(155.866,86.134,o),
(128,56,cs),
(100.134,25.867,o),
(63.934,7.733,o),
(19.4,1.601,c),
(19.4,15.601,l),
(50.6,23.334,o),
(73.467,35.601,o),
(88,52.4,cs),
(102.533,69.2,o),
(109.8,87.867,o),
(109.8,108.4,cs),
(109.8,124.134,o),
(106.733,144.867,o),
(100.6,170.601,cs),
(94.467,196.334,o),
(91.4,218.134,o),
(91.4,236,cs),
(91.4,263.2,o),
(101.333,289.467,o),
(121.2,314.801,cs),
(141.066,340.134,o),
(170.6,359.733,o),
(209.8,373.601,c),
(171.4,387.733,o),
(142.066,407.733,o),
(121.8,433.601,cs),
(101.533,459.467,o),
(91.4,485.867,o),
(91.4,512.801,cs),
(91.4,530.934,o),
(94.467,552.867,o),
(100.6,578.601,cs),
(106.733,604.334,o),
(109.8,625.067,o),
(109.8,640.801,cs),
(109.8,661.067,o),
(102.533,679.667,o),
(88,696.601,cs),
(73.467,713.534,o),
(50.6,725.733,o),
(19.4,733.2,c)
);
}
);
width = 262;
}
);
unicode = 125;
}
{
glyphname = periodcentered;
layers = (
{
layerId = m001;
shapes = (
{
closed = 1;
nodes = (
(190.094,228.4,o),
(190.094,251.2,cs),
(190.094,272.4,o),
(173.294,286.4,o),
(153.294,286.4,cs),
(131.694,286.4,o),
(116.494,271.2,o),
(116.895,249.6,cs),
(116.895,230.8,o),
(130.094,213.6,o),
(154.494,213.6,cs),
(173.294,213.6,o)
);
}
);
width = 214;
}
);
unicode = 183;
}
{
glyphname = questiondown;
layers = (
{
layerId = m001;
shapes = (
{
closed = 1;
nodes = (
(178.467,565.801,o),
(188.934,561.467,o),
(197.6,552.801,cs),
(206.267,544.134,o),
(210.6,533.667,o),
(210.6,521.4,cs),
(210.6,509.134,o),
(206.267,498.667,o),
(197.6,490,cs),
(188.934,481.334,o),
(178.467,477,o),
(166.2,477,cs),
(153.934,477,o),
(143.467,481.334,o),
(134.8,490,cs),
(126.134,498.667,o),
(121.8,509.134,o),
(121.8,521.4,cs),
(121.8,533.667,o),
(126.134,544.134,o),
(134.8,552.801,cs),
(143.467,561.467,o),
(153.934,565.801,o),
(166.2,565.801,cs)
);
},
{
closed = 1;
nodes = (
(177.4,426.2,l),
(176.066,393.134,o),
(172.8,366.934,o),
(167.6,347.601,cs),
(162.4,328.267,o),
(148.8,295.4,o),
(126.8,249,cs),
(104.8,202.601,o),
(93.8,164.067,o),
(93.8,133.4,cs),
(93.8,98.2,o),
(102.6,71,o),
(120.2,51.801,cs),
(137.8,32.601,o),
(160.467,23,o),
(188.2,23,cs),
(211.4,23,o),
(229.667,28.467,o),
(243,39.4,cs),
(256.333,50.334,o),
(263,62.334,o),
(263,75.4,cs),
(263,83.667,o),
(258.866,94.934,o),
(250.6,109.2,cs),
(242.333,123.467,o),
(238.2,134.867,o),
(238.2,143.4,cs),
(238.2,152.467,o),
(241.4,160.134,o),
(247.8,166.4,cs),
(254.2,172.667,o),
(261.8,175.801,o),
(270.6,175.801,cs),
(281.533,175.801,o),
(291.667,170.267,o),
(301,159.2,cs),
(310.333,148.134,o),
(315,133.4,o),
(315,115,cs),
(315,84.334,o),
(302,57.334,o),
(276,34,cs),
(250,10.667,o),
(214.467,-1,o),
(169.4,-1,cs),
(124.066,-1,o),
(88,11.467,o),
(61.2,36.4,cs),
(34.4,61.334,o),
(21,91.134,o),
(21,125.801,cs),
(21,147.934,o),
(24.866,168.2,o),
(32.6,186.601,cs),
(44.066,212.733,o),
(64.066,242.267,o),
(92.6,275.2,cs),
(121.134,308.134,o),
(139.4,333.667,o),
(147.4,351.801,cs),
(155.4,369.934,o),
(160.2,394.733,o),
(161.8,426.2,c)
);
}
);
width = 339;
}
);
unicode = 191;
}
{
glyphname = sinAnusvara;
layers = (
{
layerId = m001;
shapes = (
{
closed = 1;
nodes = (
(248.467,345.9,o),
(306.269,288.099,o),
(306.269,216.632,cs),
(306.269,145.165,o),
(248.33,87.363,o),
(177,87.363,cs),
(105.533,87.363,o),
(47.731,145.165,o),
(47.731,216.632,cs),
(47.731,288.099,o),
(105.67,345.9,o),
(177,345.9,cs)
);
},
{
closed = 1;
nodes = (
(224.648,132.798,o),
(262.489,170.641,o),
(262.489,217.262,cs),
(262.489,263.885,o),
(224.648,301.726,o),
(178.025,301.726,cs),
(131.404,301.726,o),
(93.561,263.885,o),
(93.561,217.262,cs),
(93.561,170.641,o),
(131.404,132.798,o),
(178.025,132.798,cs)
);
}
);
width = 330;
}
);
unicode = 3458;
}
{
category = Mark;
glyphname = sinVisarga;
layers = (
{
layerId = m001;
shapes = (
{
closed = 1;
nodes = (
(217.113,183.562,o),
(258.152,142.522,o),
(258.152,91.781,cs),
(258.152,41.039,o),
(217.017,0,o),
(166.372,0,cs),
(115.631,0,o),
(74.591,41.039,o),
(74.591,91.781,cs),
(74.591,142.522,o),
(115.728,183.562,o),
(166.372,183.562,cs)
);
},
{
closed = 1;
nodes = (
(200.202,32.259,o),
(227.069,59.127,o),
(227.069,92.228,cs),
(227.069,125.33,o),
(200.202,152.197,o),
(167.1,152.197,cs),
(133.999,152.197,o),
(107.131,125.33,o),
(107.131,92.228,cs),
(107.131,59.127,o),
(133.999,32.259,o),
(167.1,32.259,cs)
);
},
{
closed = 1;
nodes = (
(217.113,395.584,o),
(258.152,354.545,o),
(258.152,303.804,cs),
(258.152,253.062,o),
(217.017,212.022,o),
(166.372,212.022,cs),
(115.631,212.022,o),
(74.591,253.062,o),
(74.591,303.804,cs),
(74.591,354.545,o),
(115.728,395.584,o),
(166.372,395.584,cs)
);
},
{
closed = 1;
nodes = (
(200.202,244.281,o),
(227.069,271.149,o),
(227.069,304.251,cs),
(227.069,337.353,o),
(200.202,364.22,o),
(167.1,364.22,cs),
(133.999,364.22,o),
(107.131,337.353,o),
(107.131,304.251,cs),
(107.131,271.149,o),
(133.999,244.281,o),
(167.1,244.281,cs)
);
}
);
width = 330;
}
);
script = sinhala;
subCategory = Spacing;
unicode = 3459;
}
{
glyphname = sinA;
layers = (
{
layerId = m001;
shapes = (
{
closed = 1;
nodes = (
(500.921,92.096,o),
(447.307,32.228,o),
(395.249,15.325,c),
(395.249,-181.949,l),
(354.931,-182.68,l),
(354.931,7.206,l),
(354.931,7.206,o),
(327.729,0,o),
(294,0,cs),
(203.348,0,o),
(43.435,46.128,o),
(43.435,189.792,cs),
(43.435,325.747,o),
(167.166,326.5,o),
(254,326.5,cs),
(293.068,326.5,o),
(326.077,326.5,o),
(331,326.5,c),
(331,326.5,o),
(325.384,420.339,o),
(220.669,420.339,c),
(219.561,402.979,o),
(197.36,361.049,o),
(159.046,361.049,cs),
(139.909,361.049,o),
(114.849,371.284,o),
(114.849,402.592,cs),
(114.849,448.37,o),
(167.682,464.9,o),
(207.454,464.9,cs),
(297.775,464.9,o),
(350.98,381.363,o),
(360.662,357.579,c),
(365.512,395.567,o),
(398.655,463.161,o),
(442.318,463.161,c),
(442.301,462.371,o),
(442.291,461.56,o),
(442.291,460.726,cs),
(442.291,384.062,o),
(513.096,401.936,o),
(513.096,316.853,cs),
(513.096,273.098,o),
(480.065,233.718,o),
(429.722,233.718,cs),
(418.497,233.718,o),
(406.836,235.436,o),
(395.249,238.911,c),
(395.249,177.538,o),
(395.249,120.544,o),
(395.249,59.172,c),
(427.767,69.453,o),
(481.083,113.787,o),
(493.55,152.487,c),
(517.3,128.736,l)
);
},
{
closed = 1;
nodes = (
(410.914,392.676,o),
(389.806,361.315,o),
(389.806,321.504,cs),
(389.806,295.614,o),
(398.207,266.328,o),
(429.668,266.328,cs),
(460.335,266.328,o),
(474.761,297.655,o),
(474.761,323.906,cs),
(474.761,368.336,o),
(424.551,360.801,o),
(423.249,408.116,c)
);
},
{
closed = 1;
nodes = (
(355.283,298.48,o),
(268.633,299,o),
(235,299,cs),
(187.898,299,o),
(114.936,288.555,o),
(114.936,185.138,cs),
(114.936,79.466,o),
(217.005,44.556,o),
(300.177,44.556,cs),
(319.85,44.556,o),
(338.465,46.509,o),
(354.422,49.94,c),
(354.796,81.681,o),
(354.862,114.332,o),
(354.862,147.179,cs),
(354.862,165.159,o),
(354.842,183.199,o),
(354.842,201.18,cs),
(354.842,234.048,o),
(354.908,266.72,o),
(355.283,298.48,c)
);
}
);
width = 551;
}
);
unicode = 3461;
}
{
glyphname = sinI;
layers = (
{
layerId = m001;
shapes = (
{
closed = 1;
nodes = (
(448.712,481.259,o),
(580.05,405.387,o),
(580.05,248.099,cs),
(580.05,142.016,o),
(498.638,54.981,o),
(427.484,29.673,c),
(437.49,6.586,o),
(442.687,-17.674,o),
(442.687,-40.84,cs),
(442.687,-117.599,o),
(383.615,-162.81,o),
(312.225,-162.81,cs),
(247.131,-162.81,o),
(182.163,-128.23,o),
(182.163,-57.828,cs),
(182.163,-29.276,o),
(192.209,-4.088,o),
(195.632,4.04,c),
(209.891,-2.06,o),
(224.067,-8.241,o),
(238.326,-14.342,c),
(234.145,-23.26,o),
(227.362,-39.946,o),
(227.362,-56.928,cs),
(227.362,-97.274,o),
(267.948,-113.804,o),
(308.316,-113.804,cs),
(354.352,-113.804,o),
(400.342,-89.069,o),
(400.342,-37.406,cs),
(400.342,-8.338,o),
(386.735,17.874,o),
(385.366,20.441,c),
(373.242,18.127,o),
(357.504,16.106,o),
(339.091,16.106,cs),
(296.786,16.106,o),
(253.686,29.785,o),
(231.732,40.141,c),
(234.204,51.844,o),
(236.595,63.631,o),
(238.985,75.417,c),
(268.737,62.812,o),
(299.52,56.796,o),
(329.369,56.796,cs),
(435.159,56.796,o),
(526.354,137.526,o),
(526.354,246.484,cs),
(526.354,363.006,o),
(409.952,409.223,o),
(300.998,409.223,cs),
(198.352,409.223,o),
(90.493,367.642,o),
(90.493,263.445,cs),
(90.493,184.661,o),
(168.866,138.611,o),
(236.636,138.611,cs),
(278.596,138.611,o),
(312.231,162.603,o),
(327.671,183.967,c),
(326.899,183.823,o),
(320.831,182.729,o),
(312.021,182.729,cs),
(274.271,182.729,o),
(231.551,212.245,o),
(231.551,259.083,cs),
(231.551,304.468,o),
(267.548,339.146,o),
(311.228,339.146,cs),
(363.721,339.146,o),
(395.017,302.534,o),
(395.017,252.877,cs),
(395.017,153.981,o),
(293.455,99.072,o),
(238.326,99.072,cs),
(51.457,99.072,o),
(50.485,259.359,o),
(50.485,259.945,cs),
(50.485,403.112,o),
(166.321,481.259,o),
(308.475,481.259,cs)
);
},
{
closed = 1;
nodes = (
(352.811,288.135,o),
(332.789,301.124,o),
(312.511,301.124,cs),
(291.707,301.124,o),
(270.633,287.453,o),
(270.633,261.124,cs),
(270.633,238.624,o),
(289.986,219.234,o),
(312.217,219.234,cs),
(335.938,219.234,o),
(352.811,239.823,o),
(352.811,261.219,cs)
);
}
);
width = 602;
}
);
unicode = 3465;
}
{
glyphname = sinIi;
layers = (
{
layerId = m001;
shapes = (
{
closed = 1;
nodes = (
(487.714,634.626,o),
(513.724,608.615,o),
(513.724,576.456,cs),
(513.724,544.296,o),
(487.652,518.285,o),
(455.554,518.285,cs),
(423.394,518.285,o),
(397.382,544.296,o),
(397.382,576.456,cs),
(397.382,608.615,o),
(423.455,634.626,o),
(455.554,634.626,cs)
);
},
{
closed = 1;
nodes = (
(472.709,544.29,o),
(487.055,558.637,o),
(487.055,576.312,cs),
(487.055,593.987,o),
(472.709,608.335,o),
(455.033,608.335,cs),
(437.357,608.335,o),
(423.011,593.987,o),
(423.011,576.312,cs),
(423.011,558.637,o),
(437.357,544.29,o),
(455.033,544.29,cs)
);
},
{
closed = 1;
nodes = (
(219.514,677.826,o),
(245.523,651.815,o),
(245.523,619.656,cs),
(245.523,587.496,o),
(219.452,561.484,o),
(187.354,561.484,cs),
(155.193,561.484,o),
(129.182,587.496,o),
(129.182,619.656,cs),
(129.182,651.815,o),
(155.255,677.826,o),
(187.354,677.826,cs)
);
},
{
closed = 1;
nodes = (
(204.509,587.49,o),
(218.855,601.837,o),
(218.855,619.512,cs),
(218.855,637.188,o),
(204.509,651.535,o),
(186.833,651.535,cs),
(169.157,651.535,o),
(154.811,637.188,o),
(154.811,619.512,cs),
(154.811,601.837,o),
(169.157,587.49,o),
(186.833,587.49,cs)
);
},
{
ref = sinRa;
}
);
width = 567;
}
);
unicode = 3466;
}
{
glyphname = sinU;
layers = (
{
layerId = m001;
shapes = (
{
closed = 1;
nodes = (
(309,428,o),
(330.448,458.2,o),
(397.248,458.2,cs),
(493.157,458.2,o),
(577,385,o),
(582.582,288.685,c),
(340.126,288.685,ls),
(201.538,288.685,o),
(117,197.442,o),
(117,102.262,cs),
(117,-1.505,o),
(205,-127,o),
(380.582,-127,cs),
(526.945,-127,o),
(634.369,-35.86,o),
(634.369,76.867,c),
(661.49,76.867,l),
(661.49,76.867,o),
(661.669,74.382,o),
(661.669,69.923,cs),
(661.669,-85.259,o),
(522.919,-179.143,o),
(364.909,-179.143,cs),
(156.506,-179.143,o),
(43.173,-34.347,o),
(43.173,100.679,cs),
(43.173,218.637,o),
(129.664,329.139,o),
(314.823,329.139,cs),
(429.065,329.139,o),
(535.126,329.139,o),
(535.126,329.139,c),
(535.126,329.139,o),
(500,423,o),
(419,405,c),
(409,364,o),
(402,345.958,o),
(355.127,345.958,cs),
(333.448,345.958,o),
(309,367,o),
(309,392,cs)
);
}
);
width = 674;
}
);
unicode = 3467;
}
{
glyphname = sinVocalicl;
layers = (
{
layerId = m001;
shapes = (
{
closed = 1;
nodes = (
(907.866,100,o),
(888.866,119,o),
(864.866,119,cs),
(840.866,119,o),
(821.866,100,o),
(821.866,76,cs),
(821.866,52,o),
(840.866,33,o),
(864.866,33,cs),
(888.866,33,o),
(907.866,52,o),
(907.866,76,cs)
);
},
{
closed = 1;
nodes = (
(659.866,471.994,l),
(626.493,471.994,o),
(608.535,494.811,o),
(608.535,522.525,cs),
(608.535,565.4,o),
(651.509,620,o),
(746.866,620,cs),
(865.227,620,o),
(993.866,515.286,o),
(993.866,290,cs),
(993.866,171.617,o),
(957.866,0,o),
(862.866,0,cs),
(820.866,0,o),
(791.866,35,o),
(791.866,76,cs),
(791.866,108.795,o),
(818.866,147,o),
(859.866,147,cs),
(909.866,147,o),
(928.866,108,o),
(928.866,108,c),
(951.582,176.99,o),
(961.416,236.232,o),
(961.416,286.775,cs),
(961.416,476.529,o),
(822.817,543.668,o),
(707,543.668,cs),
(665.575,543.668,o),
(635.866,531.006,o),
(635.866,511,cs),
(635.866,500,o),
(648.866,495.994,o),
(659.866,495.994,c)
);
},
{
closed = 1;
nodes = (
(106,100,o),
(125,119,o),
(149,119,cs),
(173,119,o),
(192,100,o),
(192,76,cs),
(192,52,o),
(173,33,o),
(149,33,cs),
(125,33,o),
(106,52,o),
(106,76,cs)
);
},
{
closed = 1;
nodes = (
(354,471.994,l),
(387.373,471.994,o),
(405.331,494.811,o),
(405.331,522.525,cs),
(405.331,565.4,o),
(362.357,620,o),
(267,620,cs),
(148.64,620,o),
(20,515.286,o),
(20,290,cs),
(20,171.617,o),
(56,0,o),
(151,0,cs),
(193,0,o),
(222,35,o),
(222,76,cs),
(222,108.795,o),
(195,147,o),
(154,147,cs),
(104,147,o),
(85,108,o),
(85,108,c),
(62.284,176.99,o),
(52.45,236.232,o),
(52.45,286.775,cs),
(52.45,476.529,o),
(191.049,543.668,o),
(306.866,543.668,cs),
(348.291,543.668,o),
(378,531.006,o),
(378,511,cs),
(378,500,o),
(365,495.994,o),
(354,495.994,c)
);
},
{
closed = 1;
nodes = (
(267.567,355.025,o),
(258.349,379.315,o),
(258.349,398.839,cs),
(258.349,453.061,o),
(321.029,471.771,o),
(363.91,471.771,cs),
(438.382,471.771,o),
(488.984,408.604,o),
(488.984,346.589,cs),
(488.984,335.187,o),
(487.272,323.825,o),
(483.687,312.9,c),
(469.711,314.125,o),
(456.518,314.705,o),
(444.087,314.705,cs),
(318.497,314.705,o),
(282.144,253.847,o),
(282.144,202.753,cs),
(282.144,113.112,o),
(365.888,81.856,o),
(502.028,81.856,cs),
(571.562,81.856,o),
(724.229,89.298,o),
(724.229,205.552,cs),
(724.229,277.902,o),
(638.541,314.931,o),
(552.082,314.931,cs),
(540.791,314.931,o),
(529.486,314.299,o),
(518.358,313.032,c),
(516.665,321.753,o),
(515.818,336.82,o),
(515.818,346.017,cs),
(515.818,420.223,o),
(570.718,473.5,o),
(635.698,473.5,cs),
(687.698,473.5,o),
(743.698,436.518,o),
(743.698,375,cs),
(743.698,349.066,o),
(733.488,327.721,o),
(714.517,303.592,c),
(743.753,279.649,o),
(770,238.174,o),
(770,190.506,cs),
(770,59.26,o),
(640.925,0,o),
(503.698,0,cs),
(371.38,0,o),
(231.457,57.475,o),
(231.457,193.5,cs),
(231.457,292.285,o),
(322.019,347.86,o),
(429.066,347.86,cs),
(435.701,347.86,o),
(442.4,347.646,o),
(449.145,347.217,c),
(451.61,354.35,o),
(452.74,360.162,o),
(452.74,366.575,cs),
(452.74,400.096,o),
(421.864,422.681,o),
(389.491,422.681,cs),
(341.467,422.681,o),
(363.091,355.025,o),
(299.568,355.025,cs)
);
},
{
closed = 1;
nodes = (
(697.718,334.386,o),
(702.75,348.032,o),
(702.75,360.799,cs),
(702.75,394.766,o),
(667.125,422.5,o),
(632.698,422.5,cs),
(589.066,422.5,o),
(554.552,399.27,o),
(554.552,350.99,cs),
(554.552,349.689,o),
(554.577,348.37,o),
(554.628,347.032,c),
(561.121,347.632,o),
(567.559,347.916,o),
(573.929,347.916,cs),
(615.289,347.916,o),
(653.762,335.96,o),
(685.698,321,c)
);
}
);
width = 995;
}
);
unicode = 3471;
}
{
glyphname = sinE;
layers = (
{
layerId = m001;
shapes = (
{
closed = 1;
nodes = (
(355.075,577.694,o),
(568.066,465.591,o),
(568.066,250.679,cs),
(568.066,77.362,o),
(426.087,0,o),
(293,0,cs),
(175.604,0,o),
(65.125,60.196,o),
(65.125,167.829,cs),
(65.125,241.783,o),
(104.829,285.219,o),
(132.269,306.006,c),
(100.945,306.643,o),
(65.289,305.369,o),
(33.986,306.006,c),
(33.986,339.091,l),
(274.338,339.091,l),
(274.338,381.17,o),
(242.035,424.597,o),
(200.376,424.597,cs),
(191.94,424.597,o),
(183.123,422.815,o),
(174.11,418.884,c),
(176.981,414.184,o),
(178.568,408.012,o),
(178.568,401.499,cs),
(178.568,381.907,o),
(166.778,363.418,o),
(137.133,363.418,cs),
(112.785,363.418,o),
(99.184,377.829,o),
(99.184,397.476,cs),
(99.184,445.156,o),
(135.475,463.646,o),
(178.977,463.646,cs),
(260.715,463.646,o),
(308.521,396.191,o),
(308.521,312.044,cs),
(308.521,309.407,o),
(308.479,306.747,o),
(308.396,304.061,c),
(295.204,306.289,o),
(279.636,307.684,o),
(263.079,307.684,cs),
(192.923,307.684,o),
(105.021,282.662,o),
(105.021,190.21,cs),
(105.021,116.256,o),
(194.763,88.036,o),
(317.152,88.036,cs),
(402.616,88.036,o),
(538.167,124.919,o),
(538.167,259.312,cs),
(538.167,300.738,o),
(524.262,347.591,o),
(493.571,397.992,c),
(493.571,397.992,o),
(468.827,354.274,o),
(400.278,354.274,cs),
(355.659,354.274,o),
(300.976,391.694,o),
(300.976,454.038,cs),
(300.976,484.497,o),
(311.159,518.472,o),
(332.777,549.867,c),
(327.443,556.775,o),
(322.199,563.77,o),
(316.865,570.677,c),
(323.511,576.273,o),
(330.066,581.956,o),
(336.713,587.552,c)
);
},
{
closed = 1;
nodes = (
(373.618,392.819,o),
(389.198,388.115,o),
(405.649,388.115,cs),
(429.942,388.115,o),
(456.132,398.373,o),
(475.733,419.851,c),
(451.875,456.558,o),
(400.527,509.812,o),
(363.556,535.003,c),
(342.366,515.094,o),
(332.923,489.322,o),
(332.923,465.038,cs),
(332.923,439.517,o),
(343.354,415.638,o),
(361.544,401.928,cs)
);
}
);
width = 606;
}
);
unicode = 3473;
}
{
glyphname = sinO;
layers = (
{
layerId = m001;
shapes = (
{
closed = 1;
nodes = (
(645.94,153.142,o),
(594.876,0,o),
(473,0,cs),
(400,0,o),
(355,54,o),
(343.693,83.65,c),
(330.716,52.314,o),
(279.916,1.485,o),
(221.875,1.485,cs),
(94.591,1.485,o),
(35.62,127.126,o),
(35.62,241.865,cs),
(35.62,338.281,o),
(77.261,427,o),
(155,427,cs),
(265,427,o),
(168,258,o),
(334,258,cs),
(398,258,o),
(439.547,310.902,o),
(439.547,353.717,cs),
(439.547,367.511,o),
(434,398,o),
(414.805,407.459,c),
(416.164,401.666,o),
(416.821,395.784,o),
(416.821,389.939,cs),
(416.821,351.936,o),
(388.996,315.515,o),
(345.083,315.515,cs),
(306.449,315.515,o),
(267.012,333.441,o),
(267.012,391.741,cs),
(267.012,438.512,o),
(305.006,468,o),
(352,468,cs),
(422.484,468,o),
(468.108,413.214,o),
(468.108,345.712,cs),
(468.108,269.474,o),
(400,221.085,o),
(339.633,221.085,cs),
(144,221.085,o),
(228.67,390.619,o),
(149.584,390.619,cs),
(93.468,390.619,o),
(71,321.556,o),
(71,253,cs),
(71,170.104,o),
(108.284,84.978,o),
(216.212,84.978,cs),
(216.62,84.978,o),
(217.028,84.979,o),
(217.438,84.981,cs),
(276.077,85.356,o),
(330.833,125.7,o),
(330.833,187.661,c),
(360.921,187.961,l),
(360.921,124.655,o),
(420.126,84.166,o),
(468.187,84.166,cs),
(535.433,84.166,o),
(598.1,156.726,o),
(598.1,297.899,cs),
(598.1,471.6,o),
(457.76,546,o),
(333,546,cs),
(230.4,546,o),
(182,516,o),
(182,516,c),
(171.6,537.3,l),
(202.484,552.854,o),
(263.08,575.565,o),
(340.704,575.565,cs),
(473.787,575.565,o),
(645.94,503.1,o),
(645.94,268.451,cs)
);
},
{
closed = 1;
nodes = (
(361.626,345.837,o),
(387.008,359.136,o),
(387.008,392.566,cs),
(387.008,410.831,o),
(367.932,434,o),
(345,434,cs),
(321.595,434,o),
(300,418,o),
(300,390,cs),
(300,358.322,o),
(325.303,345.837,o),
(345.382,345.837,cs)
);
}
);
width = 691;
}
);
unicode = 3476;
}
{
glyphname = sinKa;
layers = (
{
layerId = m001;
shapes = (
{
closed = 1;
nodes = (
(769,85.965,o),
(747,-0.048,o),
(641.324,-0.048,cs),
(618.347,-0.048,o),
(597.272,6.562,o),
(582.848,12.38,c),
(589.233,42.427,l),
(593.261,40.861,o),
(614.021,33.028,o),
(638.165,33.028,cs),
(701.005,33.028,o),
(722.822,84.333,o),
(722.822,137.869,cs),
(722.822,273.665,o),
(596.754,399.208,o),
(447.835,399.208,cs),
(355.512,399.208,o),
(272.315,348.527,o),
(232.995,303.526,c),
(257.022,316.14,o),
(300.841,333.752,o),
(353.933,333.752,cs),
(426.547,333.752,o),
(571.993,308,o),
(571.993,149.022,cs),
(571.993,74.735,o),
(534.525,1.274,o),
(457.004,1.274,cs),
(376.361,1.274,o),
(341.735,86.931,o),
(338.533,97.331,c),
(326.105,44.957,o),
(288.242,3.902,o),
(226.612,3.902,cs),
(180.648,3.902,o),
(147.637,60.494,o),
(122.532,60.494,cs),
(109.127,60.494,o),
(90.644,50.662,o),
(64.924,17.521,cs),
(59.665,18.836,o),
(54.594,19.962,o),
(49.524,21.277,c),
(83,152,o),
(137,252,o),
(223.229,340.333,c),
(224.359,347.281,o),
(224.901,354.085,o),
(224.901,360.641,cs),
(224.901,396.804,o),
(210.061,429.627,o),
(175.168,429.627,cs),
(169.885,429.627,o),
(125.746,419.008,o),
(125.746,372.032,cs),
(125.746,369.867,o),
(125.849,367.464,o),
(125.849,365.479,cs),
(125.849,341.286,o),
(109.652,325.456,o),
(86.699,325.456,cs),
(55.318,325.456,o),
(49.401,361.928,o),
(49.401,375.861,cs),
(49.401,436.088,o),
(108.677,467.721,o),
(159.164,467.721,cs),
(220.578,467.721,o),
(248.798,399.003,o),
(248.798,367.885,cs),
(248.798,366.983,o),
(248.783,366.303,o),
(248.77,365.872,c),
(318.746,432.417,o),
(406.276,465.456,o),
(489.211,466.559,cs),
(698,469.334,o),
(769,293,o),
(769,164.697,cs)
);
},
{
closed = 1;
nodes = (
(214.625,304.096,o),
(112.57,192.614,o),
(105.861,78.553,c),
(114.289,84.663,o),
(127.949,92.189,o),
(145.1,92.189,cs),
(170.484,92.189,o),
(189.418,74.344,o),
(219.204,74.344,cs),
(290.437,74.344,o),
(325.667,126.555,o),
(325.667,195.496,cs),
(325.667,199.038,o),
(325.574,202.624,o),
(325.389,206.251,c),
(334.776,206.251,o),
(344.167,206.251,o),
(353.558,206.251,c),
(353.123,204.297,o),
(351.326,195.387,o),
(351.326,182.998,cs),
(351.326,131.766,o),
(394.242,78.702,o),
(451.6,78.702,cs),
(509.195,78.702,o),
(529.173,140.201,o),
(529.173,169.405,cs),
(529.173,269.208,o),
(440.34,304.096,o),
(349.915,304.096,cs)
);
}
);
width = 819;
}
);
unicode = 3482;
}
{
glyphname = sinKha;
layers = (
{
layerId = m001;
shapes = (
{
closed = 1;
nodes = (
(623.005,137.551,o),
(547,0,o),
(455,0,cs),
(407,0,o),
(396.006,28.384,o),
(361.068,28.384,cs),
(336.523,28.384,o),
(310.838,12.586,o),
(303.065,-9.675,c),
(303.065,-9.675,o),
(274.354,1.467,o),
(273.851,1.467,c),
(273.851,29.757,o),
(436.705,155.606,o),
(436.705,218.5,cs),
(436.705,315.324,o),
(336.002,334.6,o),
(270.205,334.6,cs),
(185.212,334.6,o),
(73,299.777,o),
(73,178,cs),
(73,133.671,o),
(89.312,100.538,o),
(98,89,c),
(108,138,o),
(145,154,o),
(174,154,cs),
(212.153,154,o),
(250.791,123.844,o),
(250.791,83.093,cs),
(250.791,33.507,o),
(218.005,0.044,o),
(170.881,0.044,cs),
(81.525,0.044,o),
(34.595,98.733,o),
(34.595,199.529,cs),
(34.595,337.3,o),
(173.904,432.7,o),
(274.705,432.7,cs),
(377.014,432.7,o),
(476.305,391.3,o),
(476.305,237.4,cs),
(476.305,152.493,o),
(394.404,83.654,o),
(376.709,71.507,c),
(393.919,63.623,o),
(417.819,55.167,o),
(442.703,55.167,cs),
(511.405,55.167,o),
(567.604,180.4,o),
(567.604,277.6,cs),
(567.604,381,o),
(511.884,548.5,o),
(293.104,548.5,cs),
(234.604,548.5,o),
(176.104,534.1,o),
(148.205,517.9,c),
(143.805,526.697,o),
(141.352,531.109,o),
(136.954,539.906,c),
(189.604,569.2,o),
(249.559,578.2,o),
(300.305,578.2,cs),
(477.505,578.2,o),
(623.005,449,o),
(623.005,265,cs)
);
},
{
closed = 1;
nodes = (
(125.305,48.453,o),
(148,29.6,o),
(172.104,29.6,cs),
(200.005,29.6,o),
(220,49.988,o),
(220,76,cs),
(220,105,o),
(199.494,125,o),
(171,125,cs),
(149,125,o),
(125.305,105.722,o),
(125.305,77.2,cs)
);
}
);
width = 653;
}
);
unicode = 3483;
}
{
glyphname = sinGa;
layers = (
{
layerId = m001;
shapes = (
{
closed = 1;
nodes = (
(297.926,433.894,l),
(266,432,o),
(110.842,439.825,o),
(110.842,258.81,cs),
(110.842,124.305,o),
(195.159,83.569,o),
(260.83,83.569,cs),
(291.203,83.569,o),
(317.586,92.283,o),
(329.796,104.462,cs),
(348.325,122.991,o),
(356.632,149.281,o),
(356.632,175.232,cs),
(356.632,230.826,o),
(313.837,245.005,o),
(313.837,309.117,cs),
(313.837,375.742,o),
(349.165,465.002,o),
(457.088,465.002,cs),
(610.375,465.002,o),
(634.543,312.729,o),
(634.543,224.05,cs),
(634.543,135.37,o),
(585.341,1.242,o),
(413.662,1.242,c),
(413.662,33.113,l),
(455,33.113,o),
(592.08,40.151,o),
(592.08,220.199,cs),
(592.08,358.981,o),
(508.056,398.036,o),
(438.545,398.036,cs),
(401.621,398.036,o),
(368.793,389.888,o),
(354.831,373.486,cs),
(341.604,357.951,o),
(336.573,339.328,o),
(336.573,320.527,cs),
(336.573,230.889,o),
(392.231,243.804,o),
(392.231,143.809,cs),
(392.231,78.986,o),
(363.702,1.242,o),
(250.649,1.242,cs),
(67.416,1.242,o),
(64.625,208.644,o),
(64.625,235.123,cs),
(64.625,237.086,o),
(64.571,240.041,o),
(64.571,243.832,cs),
(64.571,291.202,o),
(72.909,466.002,o),
(297.926,466.002,c)
);
}
);
width = 673;
}
);
unicode = 3484;
}
{
glyphname = sinGha;
layers = (
{
layerId = m001;
shapes = (
{
closed = 1;
nodes = (
(609.764,278.687,o),
(630.922,224.45,o),
(630.922,167.635,cs),
(630.922,86.128,o),
(587.397,-0.647,o),
(486.24,-0.647,cs),
(451.565,-0.647,o),
(387,11.978,o),
(387,61,cs),
(387,122,o),
(427,98,o),
(427,142,cs),
(427,175,o),
(371,186,o),
(342,186,cs),
(316,186,o),
(256,177.233,o),
(256,149,cs),
(256,103,o),
(298,119,o),
(298,66,cs),
(298,6,o),
(248,0,o),
(216.48,-0.551,cs),
(91.456,-2.736,o),
(52.331,87.196,o),
(52.331,178.468,cs),
(52.331,219.601,o),
(67.769,270.788,o),
(105.667,298.759,c),
(29.706,298.759,l),
(29.706,335.563,l),
(283.203,335.439,l),
(278.488,379.526,o),
(261.381,409.934,o),
(223.129,410.767,cs),
(195.612,410.767,o),
(183.387,358.093,o),
(150.968,357.452,cs),
(127.827,357.452,o),
(110.114,374.22,o),
(109.424,401.932,cs),
(109.424,438.668,o),
(157.483,470.638,o),
(204.36,471.169,cs),
(279.301,471.169,o),
(328.263,392.652,o),
(328.263,321.482,cs),
(328.263,314.31,o),
(327.765,307.212,o),
(326.747,300.276,c),
(325.904,300.568,o),
(295.358,300.713,o),
(247.558,300.713,cs),
(155.949,300.713,o),
(95.759,288.099,o),
(95.759,180.65,cs),
(95.759,134.132,o),
(127.527,74.814,o),
(204.325,74.814,cs),
(225.998,74.814,o),
(232.978,79.633,o),
(232.978,87.59,cs),
(232.978,101.99,o),
(204,126.026,o),
(204,151,cs),
(204,187.875,o),
(262.852,220,o),
(342,220,cs),
(396,220,o),
(478,196,o),
(478,146,cs),
(478,125.234,o),
(461.416,109.649,o),
(461.416,94.328,cs),
(461.416,82.558,o),
(469.361,74.814,o),
(497.457,74.814,cs),
(564.126,74.814,o),
(594.082,125.487,o),
(594.082,169.739,cs),
(594.082,259.208,o),
(531.06,300.332,o),
(431.391,300.713,cs),
(357.243,300.997,l),
(356.826,307.667,o),
(356.618,314.153,o),
(356.618,320.46,cs),
(356.618,404.054,o),
(397.657,470.846,o),
(480.471,471.597,cs),
(539.309,471.597,o),
(585.988,433.649,o),
(586.661,370.374,cs),
(586.232,339.394,o),
(581.418,315.647,o),
(572.219,299.133,c)
);
},
{
closed = 1;
nodes = (
(541.617,335.887,o),
(543.477,345.111,o),
(543.477,353.806,cs),
(543.477,386.353,o),
(517.388,411.45,o),
(479.606,412.018,cs),
(428.291,411.087,o),
(402.413,386.39,o),
(401.973,337.927,c),
(414.697,339.636,o),
(427.017,340.519,o),
(438.932,340.576,cs),
(482.062,340.373,o),
(514.956,335.668,o),
(537.619,326.457,c)
);
}
);
width = 691;
}
);
unicode = 3485;
}
{
glyphname = sinNga;
layers = (
{
layerId = m001;
shapes = (
{
closed = 1;
nodes = (
(247.5,361.8,o),
(222.887,425.682,o),
(176.899,425.682,cs),
(168.604,425.682,o),
(157.948,422.177,o),
(148.597,418.36,c),
(151.759,410.767,o),
(153.157,403.886,o),
(153.157,397.747,cs),
(153.157,373.988,o),
(134.022,364.918,o),
(113.359,364.918,cs),
(93.223,364.918,o),
(73.343,376.95,o),
(73.343,402.482,cs),
(73.343,435.6,o),
(102.723,464.94,o),
(161.101,464.94,cs),
(244.222,464.94,o),
(283.23,388.619,o),
(284.21,303.016,c),
(269.426,305.333,o),
(253.883,306.518,o),
(239.954,306.56,cs),
(157.406,306.56,o),
(80.753,254.699,o),
(80.753,184.59,cs),
(80.753,96.496,o),
(135.895,80,o),
(175,80,cs),
(241.194,80,o),
(284.4,135,o),
(285.661,189.09,c),
(292.906,189.09,o),
(323.28,189.09,o),
(323.28,189.09,c),
(325.27,153.302,o),
(338.382,80,o),
(427,80,cs),
(519.88,80,o),
(561.517,163.258,o),
(561.517,252.446,cs),
(561.517,389.758,o),
(457.199,546.922,o),
(266.291,546.922,cs),
(212.396,546.922,o),
(153.292,538.27,o),
(108.174,516.922,c),
(97.2,537.3,l),
(152.149,563.963,o),
(210.432,576.714,o),
(267.756,576.714,cs),
(500.604,576.714,o),
(611.872,408.735,o),
(611.872,249.472,cs),
(611.872,127.877,o),
(547.332,0,o),
(423,0,cs),
(363.601,0,o),
(320.04,38.61,o),
(300.24,73.26,c),
(282.42,43.56,o),
(263.7,0,o),
(177.48,0,cs),
(92.675,0,o),
(41.516,89.381,o),
(41.516,179.525,cs),
(41.516,325.8,o),
(187.972,335.699,o),
(248.01,337.51,c)
);
}
);
width = 655;
}
);
unicode = 3486;
}
{
glyphname = sinNnga;
layers = (
{
layerId = m001;
shapes = (
{
closed = 1;
nodes = (
(184.192,425.334,o),
(188.825,374.785,o),
(143.805,374.785,cs),
(119.553,374.785,o),
(106.469,392.007,o),
(106.469,415.47,cs),
(106.469,444.337,o),
(138.811,466.626,o),
(176.033,466.626,cs),
(262.398,466.626,o),
(299.624,395.272,o),
(299.624,331.236,cs),
(299.624,317.209,o),
(298.28,307.723,o),
(298.089,306.375,cs),
(291.766,307.127,o),
(285.522,307.487,o),
(279.384,307.487,cs),
(212.305,307.487,o),
(152.638,265.72,o),
(152.638,199.973,cs),
(152.638,126.622,o),
(224.557,92.251,o),
(277.73,92.251,cs),
(336.001,92.251,o),
(394.441,108.801,o),
(394.441,174.382,cs),
(394.441,202.204,o),
(383.022,232.231,o),
(353.488,232.231,cs),
(319.224,232.231,o),
(329.244,215,o),
(329.244,212.785,c),
(298.545,212.785,l),
(298.545,212.785,o),
(344.581,465.221,o),
(501.812,465.221,cs),
(621.112,465.221,o),
(693.626,357.758,o),
(693.626,241.876,cs),
(693.626,96.697,o),
(630.605,0.41,o),
(452.257,-0.5,c),
(452.257,31.297,l),
(542.341,32.208,o),
(647.4,82.684,o),
(647.4,213.168,cs),
(647.4,304.619,o),
(586.436,398.794,o),
(498.171,398.794,cs),
(400.572,398.794,o),
(347.915,284.553,o),
(344.983,262.571,c),
(348.37,262.988,o),
(351.948,263.246,o),
(355.664,263.246,cs),
(428.41,263.246,o),
(443.735,188.813,o),
(443.735,144.572,cs),
(443.735,66.827,o),
(385.398,-0.162,o),
(284.396,-0.162,cs),
(197.056,-0.162,o),
(104.741,67.57,o),
(104.741,183.511,cs),
(104.741,264.612,o),
(181.196,342.185,o),
(266.138,342.185,c),
(266.138,375.001,o),
(246.714,425.334,o),
(208.074,425.334,cs)
);
},
{
closed = 1;
nodes = (
(103.993,439.671,o),
(65.349,331.66,o),
(65.349,258.907,cs),
(65.349,172.073,o),
(118.108,87.51,o),
(200.611,56.483,c),
(201.479,20.77,l),
(93.642,47.991,o),
(26.404,159.534,o),
(26.404,262.857,cs),
(26.404,350.043,o),
(75.036,466.626,o),
(176.033,466.626,c),
(175.419,439.671,l)
);
}
);
width = 753;
}
);
unicode = 3487;
}
{
glyphname = sinCa;
layers = (
{
layerId = m001;
shapes = (
{
closed = 1;
nodes = (
(577.423,118.904,o),
(481,0,o),
(310,0,cs),
(173.967,0,o),
(65.197,49.449,o),
(64.664,176.383,cs),
(64.923,227.799,o),
(85.093,270.643,o),
(131.328,304.925,c),
(32.3,304.925,l),
(32.3,337.258,l),
(60.894,337.304,o),
(269.507,337.511,o),
(271.819,337.515,c),
(271.819,370.797,o),
(247.204,426.286,o),
(206,426.286,cs),
(188.574,426.286,o),
(176.923,417.97,o),
(176.923,397.931,cs),
(176.923,376.429,o),
(157.953,366.304,o),
(138.473,366.304,cs),
(117.917,366.304,o),
(96.793,377.578,o),
(96.793,398.655,cs),
(96.793,436.472,o),
(125.64,465.344,o),
(182.955,465.344,cs),
(264.564,465.344,o),
(304.617,395.433,o),
(307.361,303.681,c),
(292.846,305.956,o),
(274.052,307.119,o),
(260.376,307.159,cs),
(179.329,307.159,o),
(105.848,270.099,o),
(105.185,191.794,cs),
(105.185,118.633,o),
(183.091,86.795,o),
(304.617,86.795,cs),
(432.417,86.795,o),
(541.255,147.093,o),
(541.255,283.188,cs),
(541.255,439.889,o),
(437.461,552.822,o),
(284.282,552.822,cs),
(237.285,552.822,o),
(185.64,542.191,o),
(130.917,518.933,c),
(120.144,538.939,l),
(174.863,565.491,o),
(239.397,579.232,o),
(296.517,579.232,cs),
(447.507,579.232,o),
(577.423,446.032,o),
(577.423,282.109,cs)
);
}
);
width = 626;
}
);
unicode = 3488;
}
{
glyphname = sinJa;
layers = (
{
layerId = m001;
shapes = (
{
closed = 1;
nodes = (
(507.172,289.29,o),
(542.855,245.345,o),
(542.855,179.597,cs),
(542.855,64.211,o),
(426.398,0.567,o),
(292.83,0.567,cs),
(125.885,0.567,o),
(32.891,78.693,o),
(32.891,201.384,cs),
(32.891,281.553,o),
(118.953,342.833,o),
(210.783,342.833,cs),
(221.611,342.833,o),
(231.617,342.184,o),
(242.645,340.984,c),
(243.802,346.807,o),
(244.362,352.417,o),
(244.362,357.763,cs),
(244.362,390.996,o),
(222.751,414,o),
(189,414,cs),
(135.169,414,o),
(162.706,351.506,o),
(106.124,351.506,cs),
(73.208,351.506,o),
(64.758,374.346,o),
(64.758,393.881,cs),
(64.758,444.925,o),
(113.695,464.55,o),
(164.219,464.55,cs),
(239.386,464.55,o),
(277.354,397.006,o),
(277.354,334.661,cs),
(277.354,325.219,o),
(276.483,315.897,o),
(274.739,306.947,c),
(263.371,307.794,o),
(253.344,308.211,o),
(242.021,308.211,cs),
(140.179,308.211,o),
(84.513,269.1,o),
(84.513,202.089,cs),
(84.513,121.46,o),
(188.906,78.072,o),
(296.598,78.072,cs),
(396.888,78.072,o),
(501,115.7,o),
(501,195.925,cs),
(501,245.385,o),
(455.115,309.075,o),
(338.609,309.075,cs),
(329.036,309.075,o),
(318.975,308.653,o),
(308.412,307.769,c),
(307.149,316.907,o),
(306.543,325.83,o),
(306.543,334.536,cs),
(306.543,474.15,o),
(452.757,540.42,o),
(557.317,579.353,c),
(557.317,579.353,o),
(567.289,568.389,o),
(572.389,558.146,c),
(515.584,536.258,o),
(442.119,495.149,o),
(409.313,460.372,c),
(415.645,461.408,o),
(421.745,461.896,o),
(427.598,461.896,cs),
(482.412,461.896,o),
(512.719,419.251,o),
(512.719,384.695,cs),
(512.719,359.772,o),
(500.997,334.448,o),
(469.526,315.461,c)
);
},
{
closed = 1;
nodes = (
(366.284,345.573,o),
(359.669,355.883,o),
(356.649,364.271,c),
(353.888,358.63,o),
(351.102,347.322,o),
(350.936,338.266,c),
(354.953,338.574,o),
(359.418,338.661,o),
(364.235,338.661,cs),
(366.515,338.661,o),
(368.874,338.643,o),
(371.302,338.618,c)
);
},
{
closed = 1;
nodes = (
(481.607,413.823,o),
(459.521,436.482,o),
(431.531,436.482,cs),
(403.828,436.482,o),
(381.382,412.567,o),
(381.382,386.35,cs),
(381.382,358.885,o),
(403.485,336.259,o),
(431.517,336.259,cs),
(458.982,336.259,o),
(481.607,358.362,o),
(481.607,386.392,cs)
);
}
);
width = 597;
}
);
unicode = 3490;
}
{
glyphname = sinJha;
layers = (
{
layerId = m001;
shapes = (
{
closed = 1;
nodes = (
(253.586,311.096,o),
(294.499,331.266,o),
(344.463,331.266,cs),
(407.374,331.266,o),
(542.729,320.144,o),
(542.729,158.203,cs),
(542.729,62.387,o),
(480.341,0.124,o),
(413.464,0.124,cs),
(337.371,0.124,o),
(317.104,79.974,o),
(317.104,79.974,c),
(317.104,79.974,o),
(302.6,0.124,o),
(227.469,0.124,cs),
(174.807,0.124,o),
(156.186,39.264,o),
(128.919,39.264,cs),
(117.239,39.264,o),
(103.974,32.083,o),
(85.765,11.568,c),
(68.206,20.655,l),
(103.811,153.591,o),
(111.357,201.627,o),
(219.85,340.249,c),
(220.896,347.179,o),
(222.137,353.967,o),
(222.137,360.505,cs),
(222.137,395.292,o),
(213.541,423.335,o),
(181.324,423.335,cs),
(166.818,423.335,o),
(136.807,410.78,o),
(136.807,363.109,cs),
(136.807,323.637,o),
(105.837,321.888,o),
(95.413,321.888,cs),
(71.397,321.888,o),
(58.621,341.276,o),
(58.621,365.451,cs),
(58.621,405.471,o),
(93.633,458.605,o),
(170.618,458.605,cs),
(209.553,458.605,o),
(247.221,432.488,o),
(250,362,c),
(312,422.5,o),
(379.483,464.938,o),
(478.812,464.938,cs),
(553.682,464.938,o),
(636.102,445.247,o),
(714.568,406.992,c),
(714.568,406.992,o),
(649,370,o),
(642,351,c),
(599,386,o),
(538.619,399,o),
(478,399,cs),
(379.979,399,o),
(275.9,357.867,o),
(233.323,298.731,c)
);
},
{
closed = 1;
nodes = (
(187.593,292.096,o),
(126.24,156.091,o),
(118.964,77.266,c),
(126.067,80.772,o),
(137.396,85.036,o),
(150.786,85.036,cs),
(175.139,85.036,o),
(185.455,70.615,o),
(209.815,70.615,cs),
(279.487,70.615,o),
(306,140.18,o),
(306,182,cs),
(306,197,o),
(306,197,o),
(306,197,c),
(332,197,l),
(332,197,o),
(332,195.255,o),
(332,182,cs),
(332,140.103,o),
(356.193,71.853,o),
(420.62,71.853,cs),
(468.267,71.853,o),
(501,124.723,o),
(501,170.361,cs),
(501,261.717,o),
(425.237,292.096,o),
(347.859,292.096,cs)
);
},
{
closed = 1;
nodes = (
(722.181,391.829,o),
(728.929,376.555,o),
(736.108,361.383,c),
(734.263,361.689,o),
(724.871,363.189,o),
(711.262,363.189,cs),
(636.22,363.189,o),
(563.857,291.253,o),
(563.857,214.35,cs),
(563.857,125.721,o),
(622.267,82.824,o),
(684.925,82.824,cs),
(739.346,82.824,o),
(791.563,117.257,o),
(791.563,183.333,c),
(829.259,183.333,l),
(829.259,124.197,o),
(863.398,84.85,o),
(936.315,84.85,cs),
(1025.64,84.85,o),
(1089.79,176.076,o),
(1089.79,256.625,cs),
(1089.79,408.803,o),
(986.105,548.097,o),
(820.686,548.097,cs),
(772.225,548.097,o),
(714.009,539.07,o),
(664.086,518.397,c),
(658.608,528.989,o),
(659.664,527.604,o),
(654.186,538.197,c),
(705.849,565.725,o),
(762.749,575.9,o),
(816.599,575.9,cs),
(997.789,575.9,o),
(1130.95,428.661,o),
(1130.95,242.132,cs),
(1130.95,122.595,o),
(1071.75,0.325,o),
(948.118,0.325,cs),
(862.229,0.325,o),
(828.201,49.188,o),
(809.23,85.435,c),
(805.531,78.605,o),
(759.994,0.042,o),
(678.166,0.042,cs),
(558.871,0.042,o),
(511,120.245,o),
(511,198.635,cs),
(511,369.107,o),
(651.411,404.432,o),
(715,407,c)
);
},
{
closed = 0;
nodes = (
(542.729,158.203,ls)
);
},
{
closed = 0;
nodes = (
(501,170.361,ls)
);
}
);
width = 1198;
}
);
unicode = 3491;
}
{
glyphname = sinNya;
layers = (
{
layerId = m001;
shapes = (
{
closed = 1;
nodes = (
(127.476,405.406,o),
(86.793,322.674,o),
(86.793,242.239,cs),
(86.793,160.957,o),
(128.339,82.02,o),
(176.088,78,c),
(163.088,38,l),
(83.376,76.395,o),
(46.774,154.838,o),
(46.774,233.295,cs),
(46.774,342.831,o),
(118.117,452.397,o),
(243.088,453.055,c),
(243.088,444.918,o),
(243.088,428.256,o),
(243.088,420.118,c)
);
},
{
closed = 1;
nodes = (
(993.935,380.381,o),
(939.934,421.3,o),
(888.088,421.3,cs),
(826.751,421.3,o),
(839.797,361,o),
(785.088,361,cs),
(765.44,361,o),
(753.7,375.721,o),
(753.7,392.358,cs),
(753.7,433.427,o),
(817.242,463.639,o),
(872.769,463.639,cs),
(954.7,463.639,o),
(1029.91,395.183,o),
(1029.91,307.707,cs),
(1029.91,303.601,o),
(1029.74,299.824,o),
(1029.49,296.444,c),
(988.753,297.258,o),
(914.138,298.328,o),
(842.516,298.328,cs),
(730.299,298.328,o),
(676.245,267.035,o),
(676.245,184.106,cs),
(676.245,89.838,o),
(766.751,45.045,o),
(858.776,45.045,cs),
(956.955,45.045,o),
(1020.86,119.25,o),
(1031.34,195.512,c),
(1040.25,195.246,o),
(1049.16,194.893,o),
(1058.16,194.629,c),
(1049.29,63.621,o),
(980.509,64.99,o),
(980.509,-62.899,cs),
(980.509,-122.894,o),
(1004.37,-169.019,o),
(1064.43,-169.019,c),
(1064.43,-180.047,o),
(1064.43,-191.074,o),
(1064.43,-202.016,c),
(966.711,-202.016,o),
(926.467,-139.4,o),
(926.467,-74.304,cs),
(926.467,-29.455,o),
(945.569,16.572,o),
(978.141,44.11,c),
(946.638,22.486,o),
(884.918,-2.6,o),
(821.333,-2.6,cs),
(718.396,-2.6,o),
(604.216,46.905,o),
(604.216,181.37,cs),
(604.216,288.6,o),
(683.562,327.231,o),
(793.871,327.231,cs),
(1001.08,326.795,l)
);
},
{
closed = 1;
nodes = (
(717.975,384.722,o),
(641.729,402.278,o),
(565.313,402.278,cs),
(471.747,402.278,o),
(377.924,375.957,o),
(322.323,298.731,c),
(342.586,311.096,o),
(383.499,331.266,o),
(433.463,331.266,cs),
(496.374,331.266,o),
(631.729,320.144,o),
(631.729,158.203,cs),
(631.729,62.387,o),
(569.341,0.124,o),
(502.464,0.124,cs),
(426.371,0.124,o),
(406.104,79.974,o),
(406.104,79.974,c),
(406.104,79.974,o),
(391.6,0.124,o),
(316.469,0.124,cs),
(263.807,0.124,o),
(245.186,39.264,o),
(217.919,39.264,cs),
(206.239,39.264,o),
(192.974,32.083,o),
(174.765,11.568,c),
(157.206,20.655,l),
(192.811,153.591,o),
(204.357,196.627,o),
(312.85,335.249,c),
(313.896,342.179,o),
(315.137,348.967,o),
(315.137,355.505,cs),
(315.137,390.292,o),
(302.541,423.335,o),
(270.324,423.335,cs),
(255.818,423.335,o),
(225.807,410.78,o),
(225.807,363.109,cs),
(225.807,323.637,o),
(194.837,321.888,o),
(184.413,321.888,cs),
(160.396,321.888,o),
(147.621,341.276,o),
(147.621,365.451,cs),
(147.621,405.471,o),
(182.633,458.605,o),
(259.618,458.605,cs),
(298.553,458.605,o),
(333.783,428.811,o),
(336.562,358.322,c),
(415.884,427.623,o),
(503.96,472.324,o),
(607.698,472.324,cs),
(662.459,472.324,o),
(721.583,459.868,o),
(786.088,432,c),
(777.528,428.79,o),
(756.259,406.137,o),
(756.259,392.918,cs),
(756.259,381.428,o),
(760.997,369.511,o),
(773.088,363,c)
);
},
{
closed = 1;
nodes = (
(276.593,292.096,o),
(215.24,156.091,o),
(207.964,77.266,c),
(215.067,80.772,o),
(226.396,85.036,o),
(239.786,85.036,cs),
(264.139,85.036,o),
(274.455,70.615,o),
(298.815,70.615,cs),
(372.196,70.615,o),
(394.396,124,o),
(394.396,197.304,c),
(394.396,197.304,o),
(423.314,196.883,o),
(423.314,197.883,c),
(423.314,120,o),
(439.809,71.853,o),
(509.62,71.853,cs),
(557.267,71.853,o),
(590,124.723,o),
(590,170.361,cs),
(590,261.717,o),
(514.237,292.096,o),
(436.859,292.096,cs)
);
}
);
width = 1094;
}
);
unicode = 3492;
}
{
glyphname = sinJnya;
layers = (
{
layerId = m001;
shapes = (
{
closed = 1;
nodes = (
(666.822,442.876,o),
(652.331,443.293,o),
(638.494,443.293,cs),
(367.897,443.293,o),
(347.772,283.483,o),
(344.983,262.571,c),
(348.37,262.988,o),
(351.948,263.246,o),
(355.664,263.246,cs),
(428.41,263.246,o),
(443.735,188.813,o),
(443.735,144.572,cs),
(443.735,66.827,o),
(385.398,-0.162,o),
(284.396,-0.162,cs),
(197.056,-0.162,o),
(104.741,67.57,o),
(104.741,183.511,cs),
(104.741,264.612,o),
(181.196,342.185,o),
(266.138,342.185,c),
(266.138,375.001,o),
(246.714,425.334,o),
(208.074,425.334,cs),
(184.192,425.334,o),
(188.825,374.785,o),
(143.805,374.785,cs),
(119.553,374.785,o),
(106.469,392.007,o),
(106.469,415.47,cs),
(106.469,444.337,o),
(138.811,466.626,o),
(176.033,466.626,cs),
(262.398,466.626,o),
(299.624,395.272,o),
(299.624,331.236,cs),
(299.624,317.209,o),
(298.28,307.723,o),
(298.089,306.375,cs),
(291.766,307.127,o),
(285.522,307.487,o),
(279.384,307.487,cs),
(212.305,307.487,o),
(152.638,265.72,o),
(152.638,199.973,cs),
(152.638,126.622,o),
(224.557,92.251,o),
(277.73,92.251,cs),
(336.001,92.251,o),
(394.441,108.801,o),
(394.441,174.382,cs),
(394.441,202.204,o),
(383.022,232.231,o),
(353.488,232.231,cs),
(329.479,232.231,o),
(329.244,215.667,o),
(329.244,212.932,cs),
(329.244,212.877,o),
(329.244,212.828,o),
(329.244,212.785,c),
(298.545,212.785,l),
(298.545,212.785,o),
(298.431,214.597,o),
(298.431,217.915,cs),
(298.431,253.798,o),
(311.705,465.795,o),
(625.387,465.795,cs),
(643.34,465.795,o),
(662.278,465.1,o),
(682.253,463.639,c),
(682.169,456.426,o),
(682.084,449.213,o),
(682,442,c)
);
},
{
closed = 1;
nodes = (
(103.993,439.671,o),
(65.349,331.66,o),
(65.349,258.907,cs),
(65.349,172.073,o),
(118.108,87.51,o),
(200.611,56.483,c),
(201.479,20.77,l),
(93.642,47.991,o),
(26.404,159.534,o),
(26.404,262.857,cs),
(26.404,350.043,o),
(75.036,466.626,o),
(176.033,466.626,c),
(175.419,439.671,l)
);
},
{
closed = 1;
nodes = (
(803.419,380.381,o),
(749.418,421.3,o),
(697.572,421.3,cs),
(693.001,421.3,o),
(688.829,420.952,o),
(685,420.308,cs),
(637.458,412.313,o),
(642.798,358.682,o),
(592.167,358.682,cs),
(572.52,358.682,o),
(563.185,375.721,o),
(563.185,392.358,cs),
(563.185,438.951,o),
(632.144,463.639,o),
(682.253,463.639,cs),
(764.185,463.639,o),
(839.398,395.183,o),
(839.398,307.707,cs),
(839.398,303.601,o),
(839.229,299.824,o),
(838.974,296.444,c),
(810.405,297.015,o),
(765.175,297.712,o),
(716,298.077,cs),
(695.055,298.233,o),
(673.394,298.328,o),
(652,298.328,cs),
(539.783,298.328,o),
(485.729,267.035,o),
(485.729,184.106,cs),
(485.729,89.838,o),
(576.235,45.045,o),
(668.261,45.045,cs),
(766.439,45.045,o),
(830.341,119.25,o),
(840.827,195.512,c),
(849.737,195.246,o),
(858.648,194.893,o),
(867.648,194.629,c),
(858.77,63.621,o),
(789.993,64.99,o),
(789.993,-62.899,cs),
(789.993,-122.894,o),
(813.857,-169.019,o),
(873.912,-169.019,c),
(873.912,-180.047,o),
(873.912,-191.074,o),
(873.912,-202.016,c),
(776.195,-202.016,o),
(735.951,-139.4,o),
(735.951,-74.304,cs),
(735.951,-29.455,o),
(755.054,16.572,o),
(787.625,44.11,c),
(756.122,22.486,o),
(694.402,-2.6,o),
(630.817,-2.6,cs),
(527.88,-2.6,o),
(413.7,46.905,o),
(413.7,181.37,cs),
(413.7,288.6,o),
(493.047,327.231,o),
(603.355,327.231,cs),
(810.564,326.795,l)
);
}
);
width = 901;
}
);
unicode = 3493;
}
{
glyphname = sinNdja;
layers = (
{
layerId = m001;
shapes = (
{
closed = 1;
nodes = (
(148,422.765,o),
(74,355.018,o),
(74,246,cs),
(74,119.101,o),
(197.315,82.602,o),
(210,72.43,c),
(210,36,l),
(210,36,o),
(40.7,77.7,o),
(40.7,250.5,cs),
(40.7,395.766,o),
(169.082,463.68,o),
(230,464,c),
(230,455.863,o),
(230,439.201,o),
(230,431.063,c)
);
},
{
pos = (79,0);
ref = sinJa;
}
);
width = 675;
}
);
unicode = 3494;
}
{
glyphname = sinTta;
layers = (
{
layerId = m001;
shapes = (
{
closed = 1;
nodes = (
(609.627,73,o),
(446.354,0,o),
(316,0,cs),
(171.183,0,o),
(43.508,83.933,o),
(43.508,234.976,cs),
(43.508,352.509,o),
(144.42,406.534,o),
(235.659,406.534,cs),
(268.742,406.534,o),
(300.292,399.433,o),
(324.85,385.679,c),
(321.305,372.497,o),
(319.647,370.114,o),
(316.104,356.842,c),
(288.403,368.594,o),
(260.556,373.903,o),
(234.395,373.903,cs),
(150.394,373.903,o),
(92.542,316.016,o),
(92.542,242.312,cs),
(92.542,128.482,o),
(234.541,87.893,o),
(316.713,87.893,cs),
(395.993,87.893,o),
(572.513,117.354,o),
(572.513,285.137,cs),
(572.513,466.229,o),
(440.968,547.604,o),
(326.127,547.604,cs),
(265.46,547.604,o),
(204.627,539.504,o),
(163.294,517.604,c),
(158.021,527.604,o),
(157.698,527.703,o),
(152.427,537.703,c),
(173.127,552.104,o),
(250.65,577.304,o),
(324.327,577.304,cs),
(467.427,577.304,o),
(609.627,480.43,o),
(609.627,279.357,cs)
);
}
);
width = 644;
}
);
unicode = 3495;
}
{
glyphname = sinTtha;
layers = (
{
layerId = m001;
shapes = (
{
closed = 1;
nodes = (
(592.216,-0.035,o),
(644.885,124.971,o),
(644.885,246.565,cs),
(644.885,437.685,o),
(518.146,557.341,o),
(330.819,557.341,cs),
(323.193,557.341,o),
(315.466,557.143,o),
(307.644,556.743,c),
(301.85,536.691,o),
(299.012,516.763,o),
(299.012,497.925,cs),
(299.012,433.393,o),
(332.315,381.666,o),
(394.164,381.666,cs),
(448,381.666,o),
(492.4,423.967,o),
(517,471,c),
(574.056,428.462,o),
(601.729,348.092,o),
(601.729,249.539,cs),
(601.729,160.352,o),
(561.616,80.055,o),
(444.345,80.055,cs),
(351.016,80.055,o),
(344.313,138.867,o),
(342.324,174.656,c),
(342.324,174.656,o),
(311.95,174.656,o),
(304.704,174.656,c),
(303.444,120.565,o),
(267.811,80.089,o),
(201.616,80.089,cs),
(162.511,80.089,o),
(97.097,96.461,o),
(97.097,184.556,cs),
(97.097,254.665,o),
(173.75,306.525,o),
(256.298,306.525,cs),
(270.227,306.483,o),
(285.77,305.299,o),
(300.554,302.981,c),
(299.574,388.585,o),
(260.565,464.906,o),
(177.444,464.906,cs),
(119.066,464.906,o),
(89.686,435.565,o),
(89.686,402.448,cs),
(89.686,376.916,o),
(109.566,364.884,o),
(129.703,364.884,cs),
(150.366,364.884,o),
(169.501,373.954,o),
(169.501,397.713,cs),
(169.501,417.806,o),
(176,425.646,o),
(193.243,425.646,cs),
(239.23,425.646,o),
(263.844,361.766,o),
(264.354,337.475,c),
(261.998,337.472,o),
(53.122,337.261,o),
(23.999,337.213,c),
(23.999,304.282,l),
(124.861,304.282,l),
(74.511,277.467,o),
(50.617,221.902,o),
(50.617,165.5,cs),
(50.617,83.625,o),
(100.967,-0.015,o),
(193.824,-0.035,cs),
(193.841,-0.035,o),
(193.857,-0.035,o),
(193.875,-0.035,cs),
(280.054,-0.035,o),
(304.707,49.601,o),
(322.522,79.295,c),
(342.322,44.645,o),
(379.944,-0.035,o),
(439.344,-0.035,cs)
);
},
{
closed = 1;
nodes = (
(386,533,o),
(456,520,o),
(494,488,c),
(481,462,o),
(453,414,o),
(396,414,cs),
(340.599,414,o),
(323.027,454.779,o),
(323.027,497.793,cs),
(323.027,510.323,o),
(324.519,523.043,o),
(327,535,c)
);
}
);
width = 674;
}
);
unicode = 3496;
}
{
glyphname = sinDda;
layers = (
{
layerId = m001;
shapes = (
{
closed = 1;
nodes = (
(386.976,0.093,o),
(343.415,38.703,o),
(323.615,73.353,c),
(305.795,43.653,o),
(287.029,0.093,o),
(200.768,0.093,cs),
(110.94,0.093,o),
(59.758,85.936,o),
(59.758,168.816,cs),
(59.758,224.136,o),
(82.56,278.136,o),
(131.892,304.409,c),
(31.03,304.409,l),
(31.03,337.34,l),
(60.153,337.388,o),
(269.028,337.599,o),
(271.384,337.603,c),
(271.384,391.187,o),
(229.248,426.827,o),
(201.144,426.827,cs),
(187.081,426.827,o),
(176.531,417.903,o),
(176.531,397.84,cs),
(176.531,374.081,o),
(157.397,365.011,o),
(136.733,365.011,cs),
(116.598,365.011,o),
(96.717,377.043,o),
(96.717,402.575,cs),
(96.717,435.692,o),
(126.098,465.033,o),
(184.476,465.033,cs),
(267.596,465.033,o),
(306.605,388.712,o),
(307.585,303.108,c),
(293.365,305.321,o),
(279.445,306.392,o),
(265.992,306.392,cs),
(176.717,306.392,o),
(107.964,259.206,o),
(107.964,185,c),
(107.964,106,o),
(162.896,84.41,o),
(202,84.41,cs),
(268.195,84.41,o),
(307.775,135.093,o),
(309.035,189.183,c),
(316.281,189.183,o),
(346.655,189.183,o),
(346.655,189.183,c),
(346.655,151,o),
(360.383,84.41,o),
(449,84.41,cs),
(541.881,84.41,o),
(584.892,163.351,o),
(584.892,252.539,cs),
(584.892,389.851,o),
(480.574,547.015,o),
(289.665,547.015,cs),
(235.77,547.015,o),
(176.667,538.362,o),
(131.548,517.015,c),
(120.575,537.393,l),
(175.524,564.056,o),
(233.807,576.807,o),
(291.131,576.807,cs),
(523.979,576.807,o),
(635.247,408.828,o),
(635.247,249.564,cs),
(635.247,127.97,o),
(570.707,0.093,o),
(446.375,0.093,cs)
);
}
);
width = 671;
}
);
unicode = 3497;
}
{
glyphname = sinDdha;
layers = (
{
layerId = m001;
shapes = (
{
closed = 1;
nodes = (
(603.216,-0.035,o),
(655.885,124.971,o),
(655.885,246.565,cs),
(655.885,437.685,o),
(529.146,557.341,o),
(341.819,557.341,cs),
(334.193,557.341,o),
(326.466,557.143,o),
(318.644,556.743,c),
(312.849,536.691,o),
(310.011,516.763,o),
(310.011,497.925,cs),
(310.011,433.393,o),
(343.316,381.666,o),
(405.164,381.666,cs),
(459,381.666,o),
(503.4,423.967,o),
(528,471,c),
(585.056,428.462,o),
(612.729,348.092,o),
(612.729,249.539,cs),
(612.729,160.352,o),
(572.616,80.055,o),
(455.345,80.055,cs),
(362.016,80.055,o),
(355.313,138.867,o),
(353.324,174.656,c),
(353.324,174.656,o),
(322.95,174.656,o),
(315.704,174.656,c),
(314.444,120.565,o),
(278.811,80.089,o),
(212.616,80.089,cs),
(173.511,80.089,o),
(108.097,96.461,o),
(108.097,184.556,cs),
(108.097,254.665,o),
(184.75,306.525,o),
(267.298,306.525,cs),
(281.227,306.483,o),
(296.77,305.299,o),
(311.554,302.981,c),
(310.574,388.585,o),
(271.565,464.906,o),
(188.444,464.906,cs),
(130.066,464.906,o),
(100.687,435.565,o),
(100.687,402.448,cs),
(100.687,376.916,o),
(120.566,364.884,o),
(140.703,364.884,cs),
(161.366,364.884,o),
(180.501,373.954,o),
(180.501,397.713,cs),
(180.501,417.806,o),
(187,425.646,o),
(204.243,425.646,cs),
(250.23,425.646,o),
(274.844,361.766,o),
(275.354,337.475,c),
(272.998,337.472,o),
(64.122,337.261,o),
(34.999,337.213,c),
(34.999,304.282,l),
(135.861,304.282,l),
(85.51,277.467,o),
(61.617,221.902,o),
(61.617,165.5,cs),
(61.617,83.625,o),
(111.967,-0.014,o),
(204.824,-0.035,cs),
(204.841,-0.035,o),
(204.858,-0.035,o),
(204.875,-0.035,cs),
(291.054,-0.035,o),
(315.707,49.6,o),
(333.522,79.295,c),
(353.322,44.645,o),
(390.944,-0.035,o),
(450.344,-0.035,cs)
);
},
{
closed = 1;
nodes = (
(397,533,o),
(467,520,o),
(505,488,c),
(492,462,o),
(464,414,o),
(407,414,cs),
(351.599,414,o),
(334.027,454.779,o),
(334.027,497.793,cs),
(334.027,510.323,o),
(335.518,523.043,o),
(338,535,c)
);
}
);
width = 694;
}
);
unicode = 3498;
}
{
glyphname = sinNna;
layers = (
{
layerId = m001;
shapes = (
{
closed = 1;
nodes = (
(790,152,o),
(772.166,-0.29,o),
(661.696,-0.29,cs),
(610.467,-0.29,o),
(586.184,58.645,o),
(583.852,65.486,c),
(582.188,63.72,o),
(563.374,44.801,o),
(536.159,44.801,cs),
(502.545,44.801,o),
(478.426,70.139,o),
(473.212,100.53,c),
(448.197,45.579,o),
(383.166,0,o),
(308,0,cs),
(135.088,0,o),
(149.155,173.241,o),
(81.894,173.241,cs),
(66.413,173.241,o),
(53.518,165.918,o),
(45.776,160.42,c),
(45.776,160.42,o),
(30.155,179.891,o),
(27.962,182.571,c),
(63.127,206.404,o),
(97.968,230.306,o),
(132.975,254.299,c),
(129.82,264.031,o),
(126.111,279.311,o),
(126.111,298.053,cs),
(126.111,373.478,o),
(201.547,445.072,o),
(291.688,445.072,cs),
(331.943,445.072,o),
(373.86,432.942,o),
(403.359,411.702,c),
(443,433,o),
(594,514,o),
(640.337,526.646,c),
(640.337,526.646,o),
(640.991,521.148,o),
(640.991,513.28,cs),
(640.991,500.408,o),
(639.239,481.191,o),
(630,469.334,c),
(604,464,o),
(476,415,o),
(429.848,388.847,c),
(467.699,349.595,o),
(482.348,316.66,o),
(492.081,272.348,c),
(494.291,274.946,o),
(508.514,287.888,o),
(530.786,287.888,cs),
(550.518,287.888,o),
(563.344,278.792,o),
(565.334,276.802,c),
(566.556,319.719,o),
(599.529,380.534,o),
(659.661,380.534,cs),
(758.259,380.534,o),
(790,263.334,o),
(790,195,cs)
);
},
{
closed = 1;
nodes = (
(200.366,266.371,o),
(185.363,256.995,o),
(170.83,247.502,c),
(182.683,223.8,o),
(207.75,205.328,o),
(242.001,205.328,cs),
(280.304,205.328,o),
(318,217.357,o),
(318,258,cs),
(318,266,o),
(312,300,o),
(281,300,cs),
(259.321,300,o),
(243.997,278.649,o),
(243.997,257.22,cs),
(243.997,236.144,o),
(258.82,214.992,o),
(297,214,c),
(289.03,208.609,o),
(275.971,202.391,o),
(268,197,c),
(240.173,197,o),
(213.859,223.466,o),
(213.859,259.058,cs),
(213.859,264.396,o),
(214.451,269.94,o),
(215.719,275.63,c)
);
},
{
closed = 1;
nodes = (
(160.347,288.188,o),
(160.974,280.955,o),
(162.275,273.872,c),
(223.635,314.032,o),
(295.676,356.559,o),
(364.684,392.13,c),
(336.014,405.99,o),
(308.851,407.527,o),
(296.345,407.527,cs),
(270.021,407.527,o),
(160.347,388.381,o),
(160.347,295.359,cs)
);
},
{
closed = 1;
nodes = (
(451.877,294.014,o),
(431.315,341.239,o),
(395.858,371.619,c),
(367.261,358.374,o),
(337.961,343.841,o),
(308.191,328.137,c),
(335.26,319.117,o),
(350.169,292.956,o),
(350.169,263.889,cs),
(350.169,203.637,o),
(299.509,172.648,o),
(244.653,172.648,cs),
(196.955,172.648,o),
(161.304,198.191,o),
(143.521,229.804,c),
(129.458,220.428,o),
(115.863,211.052,o),
(102.502,201.793,c),
(161.934,181.158,o),
(201.346,82.46,o),
(291.407,82.46,cs),
(365.726,82.46,o),
(451.877,148.669,o),
(451.877,246.187,cs)
);
},
{
closed = 1;
nodes = (
(588.875,218.827,o),
(570.85,253.361,o),
(533.689,253.361,cs),
(501.688,253.361,o),
(496.535,235.664,o),
(496.535,235.664,c),
(497.287,227.084,o),
(497.667,218.475,o),
(497.667,209.896,cs),
(497.667,183.663,o),
(494.108,157.69,o),
(486.689,133.581,c),
(489.064,104.161,o),
(505.771,79.006,o),
(535.079,79.006,cs),
(581.706,79.006,o),
(588.875,134.847,o),
(588.875,168.36,cs)
);
},
{
closed = 1;
nodes = (
(744.25,269.077,o),
(726.263,346.16,o),
(663.379,346.16,cs),
(621.414,346.16,o),
(594.199,311.472,o),
(594.199,272.299,cs),
(594.199,237.666,o),
(616.133,224.057,o),
(616.133,170.763,cs),
(616.133,134.591,o),
(604.535,104.494,o),
(596.931,89.161,c),
(601.85,73.696,o),
(620.129,39.494,o),
(656.182,39.494,cs),
(724.521,39.494,o),
(744.25,118.827,o),
(744.25,197.156,cs)
);
}
);
width = 823;
}
);
unicode = 3499;
}
{
glyphname = sinNndda;
layers = (
{
layerId = m001;
shapes = (
{
closed = 1;
nodes = (
(147,424.765,o),
(75,357.018,o),
(75,248,cs),
(75,121.101,o),
(178.315,66.602,o),
(191,56.43,c),
(191,20,l),
(191,20,o),
(39.7,79.7,o),
(39.7,252.5,cs),
(39.7,397.766,o),
(168.082,465.68,o),
(229,466,c),
(229,457.863,o),
(229,441.201,o),
(229,433.063,c)
);
},
{
pos = (51,2);
ref = sinDda;
}
);
width = 719;
}
);
unicode = 3500;
}
{
glyphname = sinTa;
layers = (
{
layerId = m001;
shapes = (
{
closed = 1;
nodes = (
(679.152,99.214,o),
(648.604,1.267,o),
(563.863,1.267,cs),
(539.748,1.267,o),
(521.726,15.114,o),
(513.091,23.325,c),
(520.161,29.007,o),
(527.358,34.562,o),
(534.43,40.244,c),
(541.207,33.85,o),
(551.198,26.855,o),
(563.445,26.855,cs),
(616.044,26.855,o),
(635.908,110.098,o),
(635.908,150.6,cs),
(635.908,328.797,o),
(474.328,396.486,o),
(382.774,396.486,cs),
(357.513,396.486,o),
(326.539,392.373,o),
(293.772,377.997,cs),
(238.849,353.881,o),
(208.672,313.855,o),
(196.803,296.053,c),
(211.786,306.155,o),
(256.362,333.91,o),
(316.403,333.91,cs),
(351.887,333.91,o),
(503.308,324.537,o),
(503.308,175.64,cs),
(503.308,73.986,o),
(427.39,0,o),
(328,0,cs),
(210.299,0,o),
(204.753,80.369,o),
(154.578,80.369,cs),
(139.209,80.369,o),
(104.884,65.279,o),
(104.884,40.497,c),
(76.349,40.497,l),
(76.349,40.497,o),
(91.121,171.81,o),
(120.288,234.184,cs),
(149.328,296.558,o),
(212.965,374.967,o),
(212.965,374.967,c),
(212.503,376.681,o),
(198.778,426.133,o),
(163.052,426.133,cs),
(101.647,426.133,o),
(155.994,321.043,o),
(82.468,321.043,cs),
(50.148,321.043,o),
(44.52,359.289,o),
(44.52,374.804,cs),
(44.52,413.165,o),
(91.631,460.244,o),
(149.728,460.244,cs),
(204.263,460.244,o),
(234.78,403.9,o),
(238.849,392.77,c),
(297.95,439.162,o),
(367.48,462.138,o),
(433.509,462.138,cs),
(589.87,462.138,o),
(679.152,333.086,o),
(679.152,198.211,cs)
);
},
{
closed = 1;
nodes = (
(271.387,302.558,o),
(233.221,293.23,o),
(201.728,271.937,cs),
(122.308,218.274,o),
(121.172,112.593,o),
(121.172,100.345,c),
(135.825,107.006,o),
(159.617,115.324,o),
(187.705,115.324,cs),
(244.198,115.324,o),
(263.112,80.519,o),
(327.754,80.519,cs),
(384.838,80.519,o),
(465.978,115.16,o),
(465.978,195.627,cs),
(465.978,267.015,o),
(384.857,302.558,o),
(308.785,302.558,cs)
);
}
);
width = 724;
}
);
unicode = 3501;
}
{
glyphname = sinTha;
layers = (
{
layerId = m001;
shapes = (
{
closed = 1;
nodes = (
(208.511,375.246,o),
(215.613,366.346,o),
(222.204,352.709,c),
(124.186,352.709,o),
(82.965,279.728,o),
(82.965,225.657,cs),
(82.965,149.451,o),
(164.846,84.41,o),
(285,84.41,cs),
(401.751,84.41,o),
(520.994,158.232,o),
(520.994,272,cs),
(520.994,341,o),
(496.251,410.637,o),
(435.26,455.483,c),
(407.556,414.82,o),
(375.853,383.483,o),
(314.659,383.483,cs),
(261.238,383.483,o),
(228.145,427.864,o),
(228.145,490.66,cs),
(228.145,509.333,o),
(231.859,558.083,o),
(231.859,558.083,c),
(241.017,558.655,o),
(250.036,558.983,o),
(258.91,558.983,cs),
(259.347,558.983,o),
(259.783,558.983,o),
(260.219,558.981,cs),
(480.437,558.173,o),
(561.158,365.604,o),
(561.158,267,cs),
(561.158,98,o),
(452.944,0,o),
(275.158,0,cs),
(187.307,0,o),
(37.122,57,o),
(37.122,199,cs),
(37.122,336,o),
(142.023,386.76,o),
(201.92,388.884,c)
);
},
{
closed = 1;
nodes = (
(361.459,503.184,o),
(289.459,513.983,o),
(271.146,517.507,c),
(269.689,509.591,o),
(268.987,501.977,o),
(268.987,494.759,cs),
(268.987,455.217,o),
(290.058,427.583,o),
(323.659,427.583,cs),
(353.506,427.583,o),
(380.18,448.905,o),
(401.959,479.783,c)
);
}
);
width = 598;
}
);
unicode = 3502;
}
{
glyphname = sinDa;
layers = (
{
layerId = m001;
shapes = (
{
closed = 1;
nodes = (
(427.318,380.381,o),
(373.317,421.3,o),
(321.472,421.3,cs),
(260.135,421.3,o),
(270.775,358.682,o),
(216.066,358.682,cs),
(196.419,358.682,o),
(187.084,375.721,o),
(187.084,392.358,cs),
(187.084,433.427,o),
(250.626,463.639,o),
(306.152,463.639,cs),
(388.084,463.639,o),
(463.298,395.183,o),
(463.298,307.707,cs),
(463.298,303.601,o),
(463.128,299.824,o),
(462.873,296.444,c),
(422.137,297.258,o),
(347.521,298.328,o),
(275.899,298.328,cs),
(163.683,298.328,o),
(109.629,267.035,o),
(109.629,184.106,cs),
(109.629,89.838,o),
(200.135,45.045,o),
(292.16,45.045,cs),
(390.339,45.045,o),
(454.24,119.25,o),
(464.727,195.512,c),
(473.637,195.246,o),
(482.548,194.893,o),
(491.548,194.629,c),
(482.669,63.621,o),
(413.893,64.99,o),
(413.893,-62.899,cs),
(413.893,-122.894,o),
(437.757,-169.019,o),
(497.812,-169.019,c),
(497.812,-180.047,o),
(497.812,-191.074,o),
(497.812,-202.016,c),
(400.095,-202.016,o),
(359.851,-139.4,o),
(359.851,-74.304,cs),
(359.851,-29.455,o),
(378.953,16.572,o),
(411.524,44.11,c),
(380.021,22.486,o),
(318.302,-2.6,o),
(254.717,-2.6,cs),
(151.779,-2.6,o),
(37.6,46.905,o),
(37.6,181.37,cs),
(37.6,288.6,o),
(116.946,327.231,o),
(227.255,327.231,cs),
(434.464,326.795,l)
);
}
);
width = 524;
}
);
unicode = 3503;
}
{
glyphname = sinDha;
layers = (
{
layerId = m001;
shapes = (
{
closed = 1;
nodes = (
(267.455,370.383,l),
(150,370.383,o),
(95.204,298.031,o),
(95.204,214.35,cs),
(95.204,125.721,o),
(153.613,82.824,o),
(216.271,82.824,cs),
(270.692,82.824,o),
(322.91,117.257,o),
(322.91,183.333,c),
(360.605,183.333,l),
(360.605,124.197,o),
(394.75,85.684,o),
(467.662,84.85,cs),
(567,83.713,o),
(621.132,169,o),
(621.132,256.625,cs),
(621.132,418,o),
(517.452,548.097,o),
(352.032,548.097,cs),
(303.571,548.097,o),
(245.355,539.07,o),
(195.433,518.397,c),
(189.955,528.989,o),
(191.011,527.604,o),
(185.532,538.197,c),
(237.195,565.725,o),
(294.096,575.9,o),
(347.945,575.9,cs),
(529.136,575.9,o),
(662.297,428.661,o),
(662.297,242.132,cs),
(662.297,122.595,o),
(603.094,0.325,o),
(479.465,0.325,cs),
(393.576,0.325,o),
(359.548,49.188,o),
(340.577,85.435,c),
(336.878,78.605,o),
(291.341,0.042,o),
(209.513,0.042,cs),
(90.218,0.042,o),
(42.347,120.245,o),
(42.347,198.635,cs),
(42.347,369.107,o),
(184,408,o),
(268,408,c)
);
}
);
width = 702;
}
);
unicode = 3504;
}
{
glyphname = sinNa;
layers = (
{
layerId = m001;
shapes = (
{
closed = 1;
nodes = (
(799.685,127.843,o),
(761.645,0,o),
(668,0,cs),
(647.359,0,o),
(628.103,5.816,o),
(612.818,12.346,cs),
(615.845,19.48,o),
(619.087,26.398,o),
(622.331,33.533,cs),
(628.123,31.861,o),
(638.282,29.268,o),
(650.665,29.268,cs),
(689,29.268,o),
(738.19,78,o),
(738.19,154.671,cs),
(738.19,259.062,o),
(666.51,404.146,o),
(517,404.146,cs),
(455.782,404.146,o),
(381.477,380.489,o),
(329,335,c),
(396,344,o),
(500.54,295.476,o),
(500.54,196.377,cs),
(500.54,52.822,o),
(379.776,2.287,o),
(267.265,2.287,cs),
(149.523,2.287,o),
(72.716,54.827,o),
(39,94,c),
(55.495,121.896,l),
(55.495,121.896,o),
(67.665,109.412,o),
(81.301,109.412,cs),
(98.681,109.412,o),
(230.039,255.363,o),
(262.824,322.225,cs),
(264.221,327.174,o),
(265.985,335.394,o),
(265.985,345.491,cs),
(265.985,375.43,o),
(250.249,421.862,o),
(201.948,421.862,cs),
(175.8,421.862,o),
(149.477,407.118,o),
(149.477,379.409,cs),
(149.477,377.888,o),
(149.499,376.335,o),
(149.499,374.733,cs),
(149.499,345.048,o),
(125.056,309.944,o),
(97.96,309.944,cs),
(76.152,309.944,o),
(60.245,332.408,o),
(60.245,355.328,cs),
(60.245,410.597,o),
(121.603,461.972,o),
(184.816,461.972,cs),
(249.874,461.972,o),
(295.682,400.751,o),
(299.145,354.006,c),
(371.741,430.456,o),
(464.853,469.642,o),
(550.854,469.642,cs),
(698.545,469.642,o),
(799.685,353.995,o),
(799.685,215.869,cs)
);
},
{
closed = 1;
nodes = (
(461,257.188,o),
(387.52,303.054,o),
(330.328,303.054,cs),
(314.57,303.054,o),
(300.051,299.573,o),
(288.645,291.976,c),
(249.206,227.628,o),
(178.165,152.88,o),
(130.082,101.927,c),
(157.797,89.189,o),
(202.509,73.16,o),
(256.688,73.16,cs),
(308.573,73.16,o),
(461,90.921,o),
(461,195.89,cs)
);
}
);
width = 852;
}
);
unicode = 3505;
}
{
glyphname = sinNda;
layers = (
{
layerId = m001;
shapes = (
{
closed = 1;
nodes = (
(445.691,374.827,o),
(400.362,413.775,o),
(343.339,413.775,cs),
(290.007,413.775,o),
(284.074,360.622,o),
(241.174,360.622,cs),
(225.174,360.622,o),
(202.655,371.766,o),
(202.655,395.87,cs),
(202.655,439.397,o),
(253.712,456.365,o),
(309.148,456.365,cs),
(394.487,456.365,o),
(489.879,421.924,o),
(489.879,308.896,cs),
(489.879,306.864,o),
(489.842,304.949,o),
(489.781,303.162,c),
(441.757,303.632,o),
(384.658,305.169,o),
(330.036,305.169,cs),
(222.37,305.169,o),
(136.024,279.613,o),
(136.024,190.401,cs),
(136.024,98.118,o),
(216.463,55.31,o),
(300.281,55.31,cs),
(389.494,55.31,o),
(482.534,103.805,o),
(486.489,192.761,c),
(495.271,192.761,o),
(504.052,192.761,o),
(512.834,192.761,c),
(512.896,190.484,o),
(512.935,188.065,o),
(512.935,185.518,cs),
(512.935,111.585,o),
(436.973,27.052,o),
(436.973,-51.175,cs),
(436.973,-85.196,o),
(444.172,-139.374,o),
(493.672,-153.774,c),
(494.77,-163.653,o),
(495.868,-173.534,o),
(496.966,-183.413,c),
(423.033,-179.091,o),
(386.86,-125.917,o),
(386.86,-65.847,cs),
(386.86,-26.716,o),
(402.211,15.341,o),
(432.473,48.726,c),
(404.398,17.755,o),
(347.662,0,o),
(287,0,cs),
(181.89,0,o),
(70.394,53.305,o),
(70.394,183.522,cs),
(70.394,303.426,o),
(150.392,337.364,o),
(320.748,337.364,cs),
(361.258,337.364,o),
(407.429,335.625,o),
(458.418,334.524,c)
);
},
{
closed = 1;
nodes = (
(166.235,405.97,o),
(69.035,342.187,o),
(69.035,233.169,cs),
(69.035,106.27,o),
(150.851,76.371,o),
(163.535,66.199,c),
(163.535,29.77,l),
(163.535,29.77,o),
(35.735,64.869,o),
(35.735,237.669,cs),
(35.735,382.935,o),
(216.503,452.734,o),
(277.421,453.055,c),
(277.421,444.918,o),
(277.421,428.256,o),
(277.421,420.118,c)
);
}
);
width = 544;
}
);
unicode = 3507;
}
{
glyphname = sinPa;
layers = (
{
layerId = m001;
shapes = (
{
closed = 1;
nodes = (
(84.869,355.025,o),
(75.65,379.315,o),
(75.65,398.839,cs),
(75.65,453.061,o),
(138.331,471.771,o),
(181.212,471.771,cs),
(255.684,471.771,o),
(306.286,408.604,o),
(306.286,346.589,cs),
(306.286,335.187,o),
(304.574,323.825,o),
(300.988,312.9,c),
(287.013,314.125,o),
(273.819,314.705,o),
(261.389,314.705,cs),
(135.799,314.705,o),
(99.445,253.847,o),
(99.445,202.753,cs),
(99.445,113.112,o),
(183.189,81.856,o),
(319.33,81.856,cs),
(388.863,81.856,o),
(541.53,89.298,o),
(541.53,205.552,cs),
(541.53,277.902,o),
(455.843,314.931,o),
(369.384,314.931,cs),
(358.093,314.931,o),
(346.789,314.299,o),
(335.66,313.032,c),
(333.967,321.753,o),
(333.12,336.82,o),
(333.12,346.017,cs),
(333.12,420.223,o),
(388.02,473.5,o),
(453,473.5,cs),
(505,473.5,o),
(561,436.518,o),
(561,375,cs),
(561,349.066,o),
(550.79,327.721,o),
(531.818,303.592,c),
(561.055,279.649,o),
(587.302,238.174,o),
(587.302,190.506,cs),
(587.302,59.26,o),
(458.227,0,o),
(321,0,cs),
(188.682,0,o),
(48.759,57.475,o),
(48.759,193.5,cs),
(48.759,292.285,o),
(139.32,347.86,o),
(246.368,347.86,cs),
(253.003,347.86,o),
(259.702,347.647,o),
(266.446,347.217,c),
(268.912,354.35,o),
(270.042,360.162,o),
(270.042,366.575,cs),
(270.042,400.096,o),
(239.166,422.681,o),
(206.793,422.681,cs),
(158.769,422.681,o),
(180.393,355.025,o),
(116.87,355.025,cs)
);
},
{
closed = 1;
nodes = (
(515.02,334.385,o),
(520.052,348.032,o),
(520.052,360.798,cs),
(520.052,394.765,o),
(484.427,422.5,o),
(450,422.5,cs),
(406.368,422.5,o),
(371.854,399.269,o),
(371.854,350.991,cs),
(371.854,349.689,o),
(371.879,348.37,o),
(371.93,347.032,c),
(378.423,347.632,o),
(384.861,347.916,o),
(391.23,347.916,cs),
(432.59,347.916,o),
(471.064,335.96,o),
(503,321,c)
);
}
);
width = 628;
}
);
unicode = 3508;
}
{
glyphname = sinPha;
layers = (
{
layerId = m001;
shapes = (
{
closed = 1;
nodes = (
(421,483,o),
(358.555,536.472,o),
(331,550,c),
(321.323,535.525,o),
(309.879,500.9,o),
(309.879,464.825,cs),
(309.879,388.859,o),
(383,358,o),
(449,428,c)
);
},
{
closed = 1;
nodes = (
(219.762,466.547,o),
(274.8,445,o),
(282,319,c),
(170,315,o),
(78.362,285,o),
(78.362,191.147,cs),
(78.362,113.727,o),
(186.091,86.747,o),
(274.562,86.747,cs),
(410.152,86.747,o),
(502.903,148.723,o),
(502.903,257.146,cs),
(502.903,295.854,o),
(493.884,363.637,o),
(464,404,c),
(430.953,373.098,o),
(401.612,358.728,o),
(369.39,358.728,cs),
(245.999,358.728,o),
(282,540,o),
(321,589,c),
(472.701,487.831,o),
(542,348.012,o),
(542,224,cs),
(542,98.093,o),
(467.421,0.347,o),
(280.862,0.347,cs),
(126.062,0.347,o),
(41.196,67.326,o),
(41.196,172.973,cs),
(41.196,297.348,o),
(133.83,329.979,o),
(248.462,340.547,c),
(248.564,341.948,o),
(248.614,343.356,o),
(248.614,344.771,cs),
(248.614,384.563,o),
(208.998,428.373,o),
(173.038,428.373,cs),
(165.151,428.373,o),
(157.44,426.266,o),
(150.362,421.547,c),
(152.031,414.316,o),
(152.797,408.03,o),
(152.797,402.57,cs),
(152.797,372.694,o),
(129.852,367.547,o),
(106.262,367.547,cs),
(84.662,367.547,o),
(72.062,382.848,o),
(72.062,404.447,cs),
(72.062,430.173,o),
(93.029,466.547,o),
(153.062,466.547,cs)
);
}
);
width = 595;
}
);
unicode = 3509;
}
{
glyphname = sinBa;
layers = (
{
layerId = m001;
shapes = (
{
closed = 1;
nodes = (
(611,150.939,o),
(555.466,0,o),
(434,0,cs),
(393.595,0,o),
(345.535,28.709,o),
(345.535,80.775,cs),
(345.535,146.362,o),
(421.406,151.573,o),
(421.406,229.518,cs),
(421.406,300.925,o),
(335.994,336.513,o),
(255.325,336.513,cs),
(156.954,336.513,o),
(59.792,283.594,o),
(59.792,178.173,cs),
(59.792,133.69,o),
(76.597,100.495,o),
(85.092,89,c),
(93,132,o),
(127,154,o),
(161,154,cs),
(197.197,154,o),
(237.67,122,o),
(237.67,82,cs),
(237.67,8,o),
(173.062,0,o),
(161,0,cs),
(50.591,0,o),
(21.217,133.053,o),
(21.217,193.122,cs),
(21.217,313.995,o),
(132.333,433.777,o),
(263.692,433.777,cs),
(364.148,433.777,o),
(461.401,371.999,o),
(461.401,256.62,cs),
(461.401,146.272,o),
(391.573,125.066,o),
(391.573,95.277,cs),
(391.573,77.352,o),
(413.596,69.093,o),
(426.725,69.093,cs),
(481.97,69.093,o),
(558,161.891,o),
(558,286,cs),
(558,445.376,o),
(424.676,548.603,o),
(285,548.603,cs),
(234.418,548.603,o),
(176.213,539.439,o),
(132.917,518.933,c),
(122.144,538.939,l),
(174.709,564.396,o),
(234.159,579.19,o),
(293,579.19,cs),
(479.904,579.19,o),
(611,427.428,o),
(611,274,cs)
);
},
{
closed = 1;
nodes = (
(112.119,47.843,o),
(137,29.543,o),
(159.805,29.543,cs),
(175,29.543,o),
(207.411,40.191,o),
(207.411,80,cs),
(207.411,100,o),
(188,124.901,o),
(160,124.901,cs),
(138,124.901,o),
(112.119,108,o),
(112.119,77.23,cs)
);
}
);
width = 653;
}
);
unicode = 3510;
}
{
glyphname = sinBha;
layers = (
{
layerId = m001;
shapes = (
{
closed = 1;
nodes = (
(146.142,424.597,o),
(150.773,374.059,o),
(105.764,374.059,cs),
(81.517,374.059,o),
(68.436,391.277,o),
(68.436,414.734,cs),
(68.436,443.596,o),
(100.771,465.88,o),
(137.984,465.88,cs),
(224.332,465.88,o),
(261.55,394.542,o),
(261.55,330.52,cs),
(261.55,316.495,o),
(260.206,307.011,o),
(260.015,305.663,cs),
(253.693,306.415,o),
(247.45,306.776,o),
(241.313,306.776,cs),
(174.249,306.776,o),
(114.595,265.016,o),
(114.595,199.284,cs),
(114.595,125.948,o),
(186.499,91.585,o),
(239.66,91.585,cs),
(297.919,91.585,o),
(356.347,108.131,o),
(356.347,173.698,cs),
(356.347,201.515,o),
(344.931,231.535,o),
(315.401,231.535,cs),
(281.145,231.535,o),
(277.531,207.33,o),
(277.531,205.192,c),
(247.906,205.192,l),
(247.906,205.192,o),
(306.497,464.476,o),
(463.694,464.476,cs),
(582.969,464.476,o),
(655.467,357.036,o),
(655.467,241.179,cs),
(655.467,96.03,o),
(592.46,-0.236,o),
(414.15,-1.146,c),
(414.15,30.644,l),
(504.215,31.554,o),
(609.252,82.019,o),
(609.252,212.477,cs),
(609.252,303.907,o),
(548.3,398.062,o),
(460.055,398.062,cs),
(362.477,398.062,o),
(309.83,283.846,o),
(306.899,261.868,c),
(310.285,262.286,o),
(313.861,262.543,o),
(317.577,262.543,cs),
(390.308,262.543,o),
(405.63,188.126,o),
(405.63,143.896,cs),
(405.63,66.32,o),
(347.729,-1.541,o),
(247.434,-0.805,cs),
(157.625,-0.145,o),
(66.709,66.418,o),
(66.709,182.825,cs),
(66.709,239.537,o),
(100.529,286.034,o),
(130.307,306.179,c),
(31.254,306.179,l),
(31.254,346.108,l),
(40.87,346.108,o),
(101.776,346.248,o),
(153.075,346.248,cs),
(192.754,346.248,o),
(226.684,346.165,o),
(226.684,345.867,cs),
(226.684,345.861,o),
(226.674,345.856,o),
(226.653,345.851,c),
(226.653,384.307,o),
(208.322,424.597,o),
(170.02,424.597,cs)
);
}
);
width = 701;
}
);
unicode = 3511;
}
{
glyphname = sinMa;
layers = (
{
layerId = m001;
shapes = (
{
closed = 1;
nodes = (
(208,1.598,o),
(40.677,77.829,o),
(40.677,265.235,cs),
(40.677,343.953,o),
(72,426.547,o),
(159.506,426.547,cs),
(257.092,426.547,o),
(185.294,258.279,o),
(323.856,258.279,cs),
(384.255,258.279,o),
(437.317,297,o),
(437.317,360.865,cs),
(437.317,383.176,o),
(425.045,397.751,o),
(412.965,407.817,c),
(414.021,402.536,o),
(414.537,397.235,o),
(414.537,391.989,cs),
(414.537,352.833,o),
(391.271,314.969,o),
(338.004,314.969,cs),
(294.887,314.969,o),
(264.827,350.531,o),
(264.827,388.893,cs),
(264.827,446.064,o),
(309.531,467.892,o),
(352.952,467.892,cs),
(421.637,467.892,o),
(466.834,412.227,o),
(466.834,354.859,cs),
(466.834,277.904,o),
(409.604,221.393,o),
(327.181,221.393,cs),
(167.444,221.393,o),
(221.885,390.135,o),
(150.492,390.135,cs),
(91.418,390.135,o),
(84.151,302.067,o),
(84.151,276.521,cs),
(84.151,124.422,o),
(231.554,82.743,o),
(322.406,82.743,cs),
(411.053,82.743,o),
(591.522,121.149,o),
(591.522,296.176,cs),
(591.522,433.45,o),
(456.218,536.497,o),
(323.437,536.497,cs),
(257,536.497,o),
(205.039,512.711,o),
(187.141,503.894,c),
(182.087,512.196,o),
(177.213,520.681,o),
(172.339,528.985,c),
(223.569,555.229,o),
(278.137,567.826,o),
(330.971,567.826,cs),
(490.272,567.826,o),
(625.213,441.296,o),
(625.213,277.337,cs),
(625.213,93.569,o),
(473,1.598,o),
(323.342,1.598,cs)
);
},
{
closed = 1;
nodes = (
(364.702,346.02,o),
(384.995,365.728,o),
(384.995,389.781,cs),
(384.995,414.168,o),
(364.312,433.852,o),
(341.144,433.852,cs),
(317.293,433.852,o),
(297.559,413.38,o),
(297.559,389.808,cs),
(297.559,367.144,o),
(315.972,346.02,o),
(341.005,346.02,cs)
);
}
);
width = 681;
}
);
unicode = 3512;
}
{
glyphname = sinYa;
layers = (
{
layerId = m001;
shapes = (
{
closed = 1;
nodes = (
(521.795,74,o),
(568,103.648,o),
(568,170,cs),
(568,282.573,o),
(475.378,304.071,o),
(378.223,304.071,cs),
(364.683,304.071,o),
(350.914,302.703,o),
(337.109,302.172,c),
(336.811,306.125,o),
(336.482,314.353,o),
(336.482,321.994,cs),
(336.482,368.964,o),
(348.915,470.6,o),
(457.429,470.6,cs),
(525.461,470.6,o),
(568.313,419.503,o),
(568.313,362.413,cs),
(568.313,340.301,o),
(561.885,317.29,o),
(548,296,c),
(598,259,o),
(604.428,203.391,o),
(604.428,156.16,cs),
(604.428,52.446,o),
(534.238,-0.236,o),
(461.638,-0.236,cs),
(408.02,-0.236,o),
(349,29,o),
(324.138,85.543,c),
(291.374,32.604,o),
(244.198,-0.399,o),
(193.38,-0.399,cs),
(101.46,-0.399,o),
(38.741,63.134,o),
(38.741,168.789,cs),
(38.741,281.627,o),
(126.382,336.23,o),
(235.571,336.23,cs),
(255.381,336.23,o),
(275.845,333.9,o),
(296.575,328.947,c),
(294.587,320.189,o),
(292.601,311.341,o),
(290.612,302.584,c),
(275.001,305.593,o),
(259.811,307,o),
(245.216,307,cs),
(157.148,307,o),
(80,261.762,o),
(80,188,cs),
(80,133.788,o),
(107,74,o),
(192,74,cs),
(277,74,o),
(303.907,147.27,o),
(303.907,204.184,c),
(344.304,204.184,l),
(344.304,152.499,o),
(375.358,74,o),
(466,74,cs)
);
},
{
closed = 1;
nodes = (
(535.641,317.513,o),
(538.222,328.927,o),
(538.222,339.743,cs),
(538.222,378.766,o),
(504.63,410,o),
(460,410,cs),
(406.651,410,o),
(364.981,383.796,o),
(364.981,331.188,cs),
(364.981,330.546,o),
(364.988,329.9,o),
(365,329.25,c),
(379.233,330.807,o),
(393.989,331.613,o),
(408.722,331.613,cs),
(455.062,331.613,o),
(501.167,323.641,o),
(530,306,c)
);
}
);
width = 652;
}
);
unicode = 3514;
}
{
glyphname = sinRa;
layers = (
{
layerId = m001;
shapes = (
{
closed = 1;
nodes = (
(527.206,121.938,o),
(426.134,-0.645,o),
(277.023,-0.645,cs),
(165.899,-0.645,o),
(45.27,71.418,o),
(45.27,207.71,cs),
(45.27,465.859,o),
(282.704,425.22,o),
(359.018,671.764,c),
(399.651,670.908,l),
(375.877,597.962,o),
(311.073,506.798,o),
(257.442,457.073,c),
(272.4,460.743,o),
(287.787,462.521,o),
(303.271,462.521,cs),
(412.857,462.521,o),
(527.206,373.527,o),
(527.206,237.483,cs)
);
},
{
closed = 1;
nodes = (
(460.482,357.312,o),
(375.041,428.328,o),
(286.585,428.328,cs),
(169.184,428.328,o),
(86.432,340,o),
(86.432,231.967,cs),
(86.432,130.795,o),
(171.897,75.809,o),
(260.323,75.809,cs),
(377.776,75.809,o),
(460.482,164.575,o),
(460.482,256.107,cs)
);
}
);
width = 567;
}
);
unicode = 3515;
}
{
glyphname = sinLa;
layers = (
{
layerId = m001;
shapes = (
{
closed = 1;
nodes = (
(640.873,180.575,o),
(659.214,180.605,o),
(659.214,180.605,c),
(659.214,-8.034,o),
(512.472,-103.556,o),
(363.086,-103.556,cs),
(208.216,-103.556,o),
(50.504,8.614,o),
(50.504,192.397,cs),
(50.504,384.814,o),
(246.086,485.286,o),
(386.827,485.286,cs),
(500.782,485.286,o),
(646.891,439.416,o),
(646.891,320.031,cs),
(646.891,235.8,o),
(565.788,196.319,o),
(509.806,196.319,cs),
(469.012,196.319,o),
(392.279,208.983,o),
(392.279,291.118,cs),
(392.279,299.831,o),
(394.25,309.294,o),
(396.365,319.567,c),
(298.118,319.567,l),
(298.118,348.369,l),
(546.104,348.369,l),
(546.104,319.567,l),
(425.168,319.567,l),
(425.168,319.567,o),
(423.562,316.867,o),
(423.562,312.625,cs),
(423.562,297.052,o),
(431.729,260.677,o),
(508.016,260.677,cs),
(578.584,260.677,o),
(606.784,284.23,o),
(606.784,314.88,cs),
(606.784,411.489,o),
(508.99,453.634,o),
(404.899,453.634,cs),
(282.551,453.634,o),
(116.97,372.117,o),
(116.97,209.423,cs),
(116.97,63.013,o),
(224.169,-49.797,o),
(402.279,-49.797,cs),
(545.642,-49.797,o),
(628.586,70.714,o),
(630.052,180.479,c)
);
}
);
width = 704;
}
);
unicode = 3517;
}
{
glyphname = sinVa;
layers = (
{
layerId = m001;
shapes = (
{
closed = 1;
nodes = (
(564.698,146.333,o),
(479.606,0.431,o),
(296.933,0.431,cs),
(179.776,0.431,o),
(50.774,44,o),
(50.774,183.083,cs),
(50.774,310,o),
(172.737,338,o),
(262,338,c),
(261.373,386.903,o),
(237,428,o),
(190,428,cs),
(174,428,o),
(162.985,417,o),
(162.985,404.533,cs),
(162.985,382.074,o),
(143.736,367.007,o),
(123.672,367.007,cs),
(104.053,367.007,o),
(84,379.893,o),
(84,403,cs),
(84,452.658,o),
(122.742,465.664,o),
(166.413,465.664,cs),
(249.869,465.664,o),
(287.095,413.119,o),
(292,316,c),
(158,316,o),
(88.768,279.972,o),
(88.768,193.203,cs),
(88.768,96.302,o),
(229.775,84.364,o),
(292.539,84.364,cs),
(447.361,84.364,o),
(521.684,192.243,o),
(521.684,303.972,cs),
(521.684,423.968,o),
(435.954,548.404,o),
(272.147,548.404,cs),
(226.498,548.404,o),
(174.785,538.74,o),
(117.174,516.623,c),
(106.304,536.938,l),
(168.778,561.162,o),
(226.278,572.042,o),
(277.895,572.042,cs),
(456.535,572.042,o),
(564.698,441.717,o),
(564.698,283.198,cs)
);
}
);
width = 595;
}
);
unicode = 3520;
}
{
glyphname = sinSha;
layers = (
{
layerId = m001;
shapes = (
{
closed = 1;
nodes = (
(514.279,173.574,o),
(462.731,136,o),
(462.731,61,cs),
(462.731,36,o),
(496.251,35.486,o),
(520.885,35.486,cs),
(531.077,35.486,o),
(539.749,36,o),
(543.894,36,cs),
(586.731,36,o),
(600.897,63.038,o),
(600.897,136.624,cs),
(600.897,151.759,o),
(600.671,165.217,o),
(599.879,174.19,c)
);
},
{
closed = 1;
nodes = (
(293.893,447,l),
(139.321,443.307,o),
(89,325.137,o),
(89,242,cs),
(89,144.651,o),
(148,83.713,o),
(222,83.713,cs),
(303.919,83.713,o),
(333.496,134.385,o),
(333.496,172.106,cs),
(333.496,203.692,o),
(323,232.71,o),
(291.205,232.71,cs),
(271,232.71,o),
(260,220,o),
(255,206,c),
(225,206,l),
(266,330,o),
(325.824,482,o),
(465,482,cs),
(622.876,482,o),
(650.731,302.228,o),
(650.731,165.442,cs),
(650.731,7.316,o),
(624.571,-0.079,o),
(521.36,-0.079,cs),
(510.71,-0.079,o),
(499.24,0,o),
(486.894,0,cs),
(439.32,0,o),
(417.971,26.369,o),
(417.971,60.249,cs),
(417.971,133,o),
(486.871,206.213,o),
(596.415,206.213,c),
(596.415,290.871,o),
(552.257,413,o),
(460,413,cs),
(362.7,413,o),
(304,317,o),
(285,263,c),
(347,274,o),
(384,213,o),
(384,152,cs),
(384,76.419,o),
(336,0,o),
(222.894,0,cs),
(100.335,0,o),
(38.941,108,o),
(38.941,235.772,cs),
(38.941,373.718,o),
(122.078,481.487,o),
(294.509,481.487,c)
);
}
);
width = 682;
}
);
unicode = 3521;
}
{
glyphname = sinSsa;
layers = (
{
layerId = m001;
shapes = (
{
closed = 1;
nodes = (
(562.771,62.105,o),
(433.905,0,o),
(305,0,cs),
(176.021,0,o),
(47.002,65.528,o),
(47.002,187.782,cs),
(47.002,286.862,o),
(130,346,o),
(258,341,c),
(258.718,342.948,o),
(261.368,349.667,o),
(261.368,360.621,cs),
(261.368,394.232,o),
(230.768,416.716,o),
(201.785,416.716,cs),
(156.868,416.716,o),
(173.665,348.462,o),
(113.354,348.462,cs),
(89.384,348.462,o),
(76.11,372.573,o),
(76.11,391.896,cs),
(76.11,445.559,o),
(134.511,465.55,o),
(175.432,465.55,cs),
(254.235,465.55,o),
(309,393,o),
(290.336,308.132,c),
(171,312,o),
(99.975,293.947,o),
(99.975,192.959,cs),
(99.975,93.394,o),
(237.832,86,o),
(305,86,cs),
(355.188,86,o),
(518.964,81.902,o),
(518.964,197.723,cs),
(518.964,240.775,o),
(505.47,254.808,o),
(483.194,274.087,c),
(459.206,258.171,o),
(433.134,249.369,o),
(401.597,247.902,c),
(404.863,240.977,o),
(416.904,221.97,o),
(416.904,202.682,cs),
(416.904,136.023,o),
(345.461,128.009,o),
(295.816,128.009,cs),
(253.697,128.009,o),
(175.067,142.001,o),
(175.067,205.344,cs),
(175.067,256.667,o),
(230.707,277.896,o),
(306.49,277.896,cs),
(327.366,277.896,o),
(352.829,276.735,o),
(373.299,276.735,cs),
(406.195,276.735,o),
(422.559,279.733,o),
(449.15,295.366,c),
(414.82,310.864,o),
(370,308,o),
(322.801,309.102,c),
(322.801,309.102,o),
(321.498,322,o),
(321.498,336.432,cs),
(321.498,392.177,o),
(353.767,464.622,o),
(439.391,464.622,cs),
(474.291,464.622,o),
(537.378,439.113,o),
(537.378,376.69,cs),
(537.378,350.916,o),
(528.409,323.357,o),
(510.274,299.429,c),
(538.335,275.726,o),
(562.771,232.316,o),
(562.771,185.071,cs)
);
},
{
closed = 1;
nodes = (
(386.928,237.635,o),
(332,247.442,o),
(305.582,247.442,cs),
(280.648,247.442,o),
(210.468,245.701,o),
(210.468,202.107,cs),
(210.468,167.786,o),
(265.436,164.292,o),
(296.715,164.292,cs),
(340.627,164.292,o),
(386.928,165.758,o),
(386.928,207.563,cs)
);
},
{
closed = 1;
nodes = (
(395,344,o),
(443.406,337.897,o),
(475.457,321.867,c),
(489.53,336.68,o),
(496.592,354.725,o),
(496.592,370.87,cs),
(496.592,404.621,o),
(458,416.372,o),
(436.039,416.372,cs),
(382.784,416.372,o),
(351.525,388.044,o),
(351,342,c)
);
}
);
width = 605;
}
);
unicode = 3522;
}
{
glyphname = sinHa;
layers = (
{
layerId = m001;
shapes = (
{
closed = 1;
nodes = (
(125.422,424.554,o),
(130.031,374.259,o),
(85.237,374.259,cs),
(61.105,374.259,o),
(48.088,391.396,o),
(48.088,414.74,cs),
(48.088,443.463,o),
(80.267,465.641,o),
(117.304,465.641,cs),
(203.238,465.641,o),
(240.276,394.645,o),
(240.276,330.928,cs),
(240.276,316.971,o),
(238.939,307.532,o),
(238.749,306.19,cs),
(232.458,306.939,o),
(226.244,307.299,o),
(220.137,307.299,cs),
(153.394,307.299,o),
(94.026,265.739,o),
(94.026,200.321,cs),
(94.026,127.338,o),
(164.093,83.713,o),
(217,83.713,cs),
(274.979,83.713,o),
(334.618,109.606,o),
(334.618,174.858,cs),
(334.618,202.542,o),
(323.257,232.419,o),
(293.871,232.419,cs),
(259.777,232.419,o),
(256.181,208.329,o),
(256.181,206.202,c),
(226.698,206.202,l),
(226.698,206.202,o),
(285.009,464.242,o),
(441.452,464.242,cs),
(560.154,464.242,o),
(632.306,357.318,o),
(632.306,242.016,cs),
(632.306,97.564,o),
(569.602,1.758,o),
(392.146,0.853,c),
(392.146,32.489,l),
(481.778,33.395,o),
(586.312,83.619,o),
(586.312,213.45,cs),
(586.312,304.443,o),
(525.652,398.147,o),
(437.83,398.147,cs),
(340.72,398.147,o),
(288.325,284.479,o),
(285.408,262.606,c),
(288.778,263.021,o),
(292.337,263.277,o),
(296.036,263.277,cs),
(368.417,263.277,o),
(383.666,189.217,o),
(383.666,145.199,cs),
(383.666,67.996,o),
(326.044,1.849,o),
(226.229,1.192,cs),
(139.002,0.618,o),
(46.369,68.093,o),
(46.369,183.942,cs),
(46.369,264.638,o),
(122.441,341.822,o),
(206.957,341.822,c),
(206.957,374.474,o),
(187.631,424.554,o),
(149.185,424.554,cs)
);
}
);
width = 677;
}
);
unicode = 3524;
}
{
glyphname = sinLla;
layers = (
{
layerId = m001;
shapes = (
{
closed = 1;
nodes = (
(556,216,o),
(510,102,o),
(373,102,cs),
(232,102,o),
(154,220,o),
(154,307,cs),
(154,420,o),
(210,486,o),
(295,486,cs),
(353,486,o),
(393,436,o),
(393,436,c),
(393,436,o),
(432,486,o),
(495,486,cs),
(608,486,o),
(606,370,o),
(606,370,c),
(572,370,l),
(572,370,o),
(567,436,o),
(490,436,cs),
(409,436,o),
(408,366,o),
(408,366,c),
(377,366,l),
(377,366,o),
(367,436,o),
(291,436,cs),
(227.676,436,o),
(190,385.601,o),
(190,322,cs),
(190,218,o),
(286.829,156,o),
(375,156,cs),
(455.354,156,o),
(498,182,o),
(534,231,c),
(556,216,l)
);
},
{
closed = 1;
nodes = (
(302,339,ls),
(212,339,o),
(118,313.333,o),
(118,195,cs),
(118,60,o),
(229,-42,o),
(387,-42,cs),
(541,-42,o),
(616,81,o),
(616,150,c),
(650,150,l),
(650,83,o),
(587,-106,o),
(355,-106,cs),
(187,-106,o),
(50,27.962,o),
(50,145,cs),
(50,268,o),
(123.001,368.562,o),
(270,369,cs),
(606,370,l),
(606,339,l)
);
}
);
width = 694;
}
);
unicode = 3525;
}
{
glyphname = sinFa;
layers = (
{
layerId = m001;
shapes = (
{
closed = 1;
nodes = (
(330.802,166.326,o),
(322.983,166.326,o),
(308.825,166.326,c),
(308.825,237.227,o),
(272.985,328.501,o),
(183.141,328.501,cs),
(100.695,328.501,o),
(72.154,251.53,o),
(72.154,183.995,cs),
(72.154,92.106,o),
(153.7,38.243,o),
(246.789,38.243,cs),
(262.215,38.243,o),
(278.272,39.996,o),
(294.774,43.744,c),
(296.875,32.835,o),
(298.975,21.811,o),
(301.075,10.902,c),
(279.164,4.731,o),
(257.532,1.83,o),
(236.596,1.83,cs),
(121.183,1.83,o),
(28.547,69.852,o),
(28.547,210.419,cs),
(28.547,342.038,o),
(94.841,421.185,o),
(192,421.185,cs),
(245.714,421.185,o),
(292.407,380.069,o),
(327.039,314.123,c),
(363.492,380.069,o),
(408.071,421.185,o),
(461.787,421.185,cs),
(558.945,421.185,o),
(625.24,342.038,o),
(625.24,210.419,cs),
(625.24,69.852,o),
(532.604,1.83,o),
(417.191,1.83,cs),
(396.252,1.83,o),
(374.62,4.731,o),
(352.709,10.902,c),
(354.81,21.811,o),
(356.91,32.835,o),
(359.013,43.744,c),
(375.514,39.996,o),
(391.57,38.243,o),
(406.996,38.243,cs),
(500.083,38.243,o),
(581.629,92.106,o),
(581.629,183.995,cs),
(581.629,251.53,o),
(553.09,328.501,o),
(470.645,328.501,cs),
(380.799,328.501,o),
(344.959,237.227,o),
(344.959,166.326,c)
);
}
);
width = 665;
}
);
unicode = 3526;
}
{
category = Mark;
glyphname = sinVirama;
layers = (
{
layerId = m001;
shapes = (
{
closed = 1;
nodes = (
(-92.585,664.121,o),
(-9,678.652,o),
(-9,596.062,cs),
(-9,543.344,o),
(-49.317,533.81,o),
(-78.483,533.81,cs),
(-95.01,533.81,o),
(-107.956,536.871,o),
(-107.956,536.871,c),
(-107.956,387.101,l),
(-136.328,387.101,l),
(-136.328,712.911,l),
(-93.579,708.4,l)
);
},
{
closed = 1;
nodes = (
(-44.951,578.875,o),
(-38.797,587.965,o),
(-38.797,602.573,cs),
(-38.797,649.673,o),
(-89.651,633.88,o),
(-107.804,675.134,c),
(-107.804,642.937,o),
(-107.814,617.01,o),
(-107.814,584.831,cs),
(-107.814,581.323,o),
(-106.393,563.437,o),
(-80.167,563.437,cs),
(-76.924,563.437,o),
(-65.019,563.641,o),
(-55.495,570.855,cs)
);
}
);
width = 1;
}
);
script = sinhala;
subCategory = Spacing;
unicode = 3530;
}
{
category = Mark;
glyphname = sinMatraAa;
layers = (
{
layerId = m001;
shapes = (
{
closed = 1;
nodes = (
(10.036,336.305,o),
(40.972,408.298,o),
(121.552,408.298,cs),
(240.275,408.298,o),
(260.949,262.806,o),
(260.949,206.887,cs),
(260.949,126.959,o),
(226.374,3.238,o),
(113.949,3.238,cs),
(47.573,3.238,o),
(8.909,71.946,o),
(8.896,138.766,c),
(38.825,139.008,l),
(43.69,105.975,o),
(62.485,55,o),
(114,55,cs),
(193.261,55,o),
(207.852,129.223,o),
(207.852,205.318,cs),
(207.852,281.495,o),
(185.787,357.074,o),
(115.279,357.074,cs),
(75.051,357.074,o),
(46.666,343.586,o),
(37.841,298.348,c),
(9.086,298.348,l)
);
}
);
width = 288;
}
);
script = sinhala;
subCategory = Spacing;
unicode = 3535;
}
{
glyphname = sinMatraAe;
layers = (
{
layerId = m001;
shapes = (
{
closed = 1;
nodes = (
(88.877,304.348,o),
(165.622,304.348,o),
(244.053,304.348,c),
(244.053,304.348,o),
(132.452,186.685,o),
(132.452,79.621,cs),
(132.452,21.977,o),
(171.152,-58.978,o),
(263.135,-63.846,c),
(263.135,-91.026,l),
(245.148,-95.737,o),
(228.501,-97.926,o),
(213.177,-97.926,cs),
(121.567,-97.926,o),
(77.266,-19.72,o),
(77.266,65.221,cs),
(77.266,173.17,o),
(149.243,251.671,o),
(165.136,268.354,c),
(112.496,268.442,o),
(62.557,268.531,o),
(9.917,268.619,c),
(10.093,278.158,o),
(10.358,294.809,o),
(10.535,304.348,c)
);
}
);
width = 288;
}
);
unicode = 3536;
}
{
glyphname = sinMatraAae;
layers = (
{
layerId = m001;
shapes = (
{
closed = 1;
nodes = (
(154.521,304.699,l),
(129.252,220.072,l),
(200.812,220.072,l),
(179.221,181.358,o),
(98.341,87.804,o),
(98.341,17.889,cs),
(98.341,-21.143,o),
(123.549,-52.808,o),
(198.354,-63.447,c),
(198.354,-91.348,l),
(198.354,-91.348,o),
(180.665,-97.647,o),
(137.154,-97.647,cs),
(94.811,-97.647,o),
(29.43,-63.27,o),
(29.43,-4.078,cs),
(29.43,78.825,o),
(125.004,178.352,o),
(125.004,178.352,c),
(71.212,178.352,l),
(98.981,267.477,l),
(4.885,267.477,l),
(5.495,304.699,l)
);
}
);
width = 232;
}
);
unicode = 3537;
}
{
glyphname = sinMatraI;
layers = (
{
layerId = m001;
shapes = (
{
closed = 1;
nodes = (
(-176.797,713.582,o),
(-54.948,666.47,o),
(-54.948,571.911,cs),
(-54.948,496.548,o),
(-127.046,476.386,o),
(-174.939,476.386,cs),
(-187.334,476.386,o),
(-195.505,477.521,o),
(-195.505,477.521,c),
(-195.505,506.814,l),
(-195.505,506.814,o),
(-186.109,505.336,o),
(-173.271,505.336,cs),
(-145.604,505.336,o),
(-101.69,514.894,o),
(-101.69,551.841,cs),
(-101.69,623.17,o),
(-201.846,630.296,o),
(-302.82,630.296,cs),
(-405.461,630.296,o),
(-508.948,619.17,o),
(-508.948,551.841,cs),
(-508.948,514.894,o),
(-465.034,505.336,o),
(-437.368,505.336,cs),
(-424.529,505.336,o),
(-415.134,506.814,o),
(-415.134,506.814,c),
(-415.134,477.521,l),
(-415.134,477.521,o),
(-423.305,476.386,o),
(-435.699,476.386,cs),
(-483.593,476.386,o),
(-555.69,496.548,o),
(-555.69,571.911,cs),
(-555.69,666.47,o),
(-429.842,713.582,o),
(-303.909,713.582,cs)
);
}
);
width = 0;
}
);
unicode = 3538;
}
{
glyphname = sinMatraUu;
layers = (
{
layerId = m001;
shapes = (
{
closed = 1;
nodes = (
(-503.438,-140.54,o),
(-483.219,-160.759,o),
(-458.743,-160.759,cs),
(-434.268,-160.759,o),
(-414.048,-140.54,o),
(-414.048,-116.064,cs),
(-414.048,-91.588,o),
(-434.268,-71.369,o),
(-458.743,-71.369,cs),
(-483.219,-71.369,o),
(-503.438,-91.588,o),
(-503.438,-116.064,cs)
);
},
{
closed = 1;
nodes = (
(-71,-198,l),
(-114.037,-198,l),
(-173.358,-165,o),
(-219.794,-154,o),
(-259.232,-154,cs),
(-338.109,-154,o),
(-388.997,-198,o),
(-459,-198,cs),
(-505,-198,o),
(-540,-167,o),
(-540,-121,cs),
(-540,-80.443,o),
(-509,-39,o),
(-461,-39,cs),
(-414.408,-39,o),
(-384.726,-75.04,o),
(-384.726,-112.632,cs),
(-384.726,-122.729,o),
(-386.866,-132.937,o),
(-391.396,-142.589,c),
(-348.364,-121.616,o),
(-303.717,-110.906,o),
(-260.115,-110.906,cs),
(-207.216,-110.906,o),
(-155.853,-126.671,o),
(-110.771,-159,c),
(-110.771,90,l),
(-86,112,o),
(-72.603,133.396,o),
(-71,138,c)
);
}
);
width = 0;
}
);
unicode = 3542;
}
{
glyphname = sinMatraR;
layers = (
{
layerId = m001;
shapes = (
{
closed = 1;
nodes = (
(247.283,423.759,o),
(261.774,267.792,o),
(261.774,267.792,c),
(261.774,267.792,o),
(261.774,113.77,o),
(261.774,57.622,cs),
(261.774,1.474,o),
(229.275,0.451,o),
(229.275,0.451,c),
(229.275,0.451,o),
(229.275,0.451,o),
(170.279,0.451,cs),
(160.071,0.451,o),
(149.195,0.083,o),
(138.189,0.083,cs),
(85.585,0.083,o),
(29.992,8.477,o),
(29.992,105.485,cs),
(29.992,222.792,o),
(189.916,256.439,o),
(189.916,256.439,c),
(189.916,290.088,o),
(172.766,382.952,o),
(113.771,382.952,cs),
(54.773,382.952,o),
(43.627,296.224,o),
(43.627,296.224,c),
(25.705,306.452,l),
(25.705,306.452,o),
(31.708,423.759,o),
(139.494,423.759,cs)
);
},
{
closed = 1;
nodes = (
(190.774,222.792,l),
(190.774,222.792,o),
(79.557,215.634,o),
(79.557,121.747,cs),
(79.557,56.353,o),
(133.512,46.431,o),
(166.261,46.431,cs),
(180.53,46.431,o),
(190.774,48.315,o),
(190.774,48.315,c)
);
}
);
width = 283;
}
);
unicode = 3544;
}
{
category = Mark;
glyphname = sinMatraE;
layers = (
{
layerId = m001;
shapes = (
{
closed = 1;
nodes = (
(468.457,457.85,o),
(563.481,298.061,o),
(579.779,260.919,c),
(562.785,250.688,l),
(557.857,259.504,o),
(461.757,428.091,o),
(296.475,428.091,cs),
(237.088,428.091,o),
(76.147,396.842,o),
(76.147,251.041,cs),
(76.147,128.254,o),
(185,85.772,o),
(271.32,85.772,cs),
(339,85.772,o),
(455.294,94.76,o),
(455.294,205.555,cs),
(455.294,246,o),
(413.997,302.414,o),
(361.347,302.414,cs),
(357.899,302.414,o),
(355.066,302.255,o),
(353.045,302.104,c),
(356.364,297.159,o),
(367.72,279.472,o),
(367.72,256.091,cs),
(367.72,215.436,o),
(335.198,179.646,o),
(293.334,179.646,cs),
(253.885,179.646,o),
(218.818,211.817,o),
(218.818,254.888,cs),
(218.818,310.553,o),
(263.357,339.124,o),
(324.785,339.124,cs),
(418.232,339.124,o),
(485.938,274,o),
(485.938,193.342,cs),
(485.938,53,o),
(386.055,0,o),
(266,0,cs),
(91,0,o),
(35.44,153.856,o),
(35.44,226.236,cs),
(35.44,395.425,o),
(177.478,457.85,o),
(295.503,457.85,cs)
);
},
{
closed = 1;
nodes = (
(316.755,214.278,o),
(337.003,233.358,o),
(337.003,257.277,cs),
(337.003,281.033,o),
(317.067,300.272,o),
(293.938,300.272,cs),
(269.707,300.272,o),
(251.215,280.073,o),
(251.215,257.203,cs),
(251.215,233.616,o),
(270.375,214.278,o),
(293.923,214.278,cs)
);
}
);
width = 594;
}
);
script = sinhala;
subCategory = Spacing;
unicode = 3545;
}
{
glyphname = sinMatraLs;
layers = (
{
layerId = m001;
shapes = (
{
closed = 1;
nodes = (
(127.07,150.656,o),
(145.379,66,o),
(246,66,cs),
(346.621,66,o),
(390.121,155.196,o),
(390.121,262.849,cs),
(390.121,370.5,o),
(339.128,457.354,o),
(258.596,457.354,cs),
(213.924,457.354,o),
(204.844,418.395,o),
(204.844,418.395,c),
(204.844,418.395,o),
(275.732,417.331,o),
(275.732,336.08,cs),
(275.732,267.535,o),
(214.128,224.331,o),
(156.128,224.331,cs),
(80.716,224.331,o),
(19.419,274.272,o),
(19.419,363.47,cs),
(19.419,452.666,o),
(78.884,489.282,o),
(97.191,489.282,c),
(97.191,450.323,l),
(97.191,450.323,o),
(58.232,450.323,o),
(58.232,390.858,cs),
(58.232,331.395,o),
(92.505,308.545,o),
(147.429,308.545,cs),
(202.354,308.545,o),
(227.545,344.282,o),
(227.545,379.435,cs),
(227.545,393.589,o),
(211.101,399.331,o),
(203.128,399.331,cs),
(191.302,399.331,o),
(186.389,388.515,o),
(186.389,388.515,c),
(149.773,388.515,l),
(149.773,388.515,o),
(175.128,494.331,o),
(262.128,494.331,cs),
(349.128,494.331,o),
(442.849,439.045,o),
(442.849,277.641,cs),
(442.849,116.236,o),
(374.156,-0.349,o),
(259.768,-0.349,cs),
(145.379,-0.349,o),
(97.339,100.272,o),
(97.339,143.772,c),
(127.07,150.656,l)
);
}
);
width = 469;
}
);
unicode = 3551;
}
{
glyphname = sinMatraLl;
layers = (
{
layerId = m001;
shapes = (
{
closed = 1;
nodes = (
(133.07,149.656,o),
(151.379,65,o),
(252,65,cs),
(352.621,65,o),
(396.121,154.196,o),
(396.121,261.849,cs),
(396.121,369.5,o),
(353,456.354,o),
(264.596,456.354,cs),
(219.924,456.354,o),
(210.844,417.395,o),
(210.844,417.395,c),
(210.844,417.395,o),
(281.732,416.331,o),
(281.732,335.08,cs),
(281.732,266.535,o),
(220.128,223.331,o),
(162.128,223.331,cs),
(86.716,223.331,o),
(25.419,273.272,o),
(25.419,362.47,cs),
(25.419,458,o),
(84.884,488.282,o),
(103.191,488.282,c),
(103.191,449.323,l),
(103.191,449.323,o),
(64.232,442,o),
(64.232,389.858,cs),
(64.232,330.395,o),
(98.505,307.545,o),
(153.429,307.545,cs),
(208.354,307.545,o),
(233.545,340.282,o),
(233.545,375.435,cs),
(233.545,389.589,o),
(223,398.331,o),
(209.128,398.331,cs),
(197.302,398.331,o),
(192.389,387.515,o),
(192.389,387.515,c),
(155.773,387.515,l),
(155.773,387.515,o),
(183.128,493.331,o),
(270.128,493.331,cs),
(369,493.331,o),
(448.849,414,o),
(448.849,266.641,cs),
(448.849,105.236,o),
(380.156,-1.349,o),
(265.768,-1.349,cs),
(151.379,-1.349,o),
(103.339,99.272,o),
(103.339,142.772,c),
(133.07,149.656,l)
);
}
);
width = 469;
}
);
unicode = 3571;
}
{
glyphname = sinKundaliya;
layers = (
{
layerId = m001;
shapes = (
{
closed = 1;
nodes = (
(93.07,124,o),
(76.515,76,o),
(106,76,cs),
(144.578,76,o),
(156.128,136,o),
(192,136,cs),
(208.879,136,o),
(209.561,115,o),
(223,115,cs),
(248.481,115,o),
(219.184,192,o),
(253,192,cs),
(276.904,192,o),
(273.468,157,o),
(292,157,cs),
(328.27,157,o),
(292.225,240,o),
(333,240,cs),
(378.686,240,o),
(367.532,176,o),
(385,176,cs),
(434.509,176,o),
(403.838,267,o),
(452,267,cs),
(459.188,267,o),
(472,264.912,o),
(472,255,cs),
(472,239.894,o),
(467,225.659,o),
(467,211,cs),
(467,199.119,o),
(468.406,187,o),
(482,187,cs),
(521.526,187,o),
(504.363,273,o),
(551,273,cs),
(588.274,273,o),
(578,240.258,o),
(578,215,cs),
(578,207.244,o),
(575.062,173,o),
(588,173,cs),
(613.736,173,o),
(619.265,238,o),
(659,238,cs),
(664.711,238,o),
(676,236.737,o),
(676,228,cs),
(676,204.709,o),
(656,193.046,o),
(656,174,cs),
(656,168.129,o),
(665.56,153,o),
(671,153,cs),
(698.262,153,o),
(699.051,196,o),
(717,196,cs),
(733.84,196,o),
(749,186.206,o),
(749,167,cs),
(749,152.389,o),
(739,139.895,o),
(739,128,cs),
(739,122.713,o),
(739.105,107,o),
(747,107,cs),
(762.781,107,o),
(750.329,146,o),
(772,146,cs),
(798.494,146,o),
(790.135,100,o),
(818,100,cs),
(824.984,100,o),
(830.816,103,o),
(837,103,cs),
(869.557,103,o),
(873.15,61,o),
(900,61,cs),
(930.307,61,o),
(921.439,127,o),
(962,127,cs),
(973.39,127,o),
(973,102.912,o),
(973,98,cs),
(973,49.607,o),
(943.553,10,o),
(891,10,cs),
(845.143,10,o),
(832.535,63,o),
(813,63,cs),
(806.148,63,o),
(801.24,40,o),
(792.5,40,cs),
(784.82,40,o),
(769,44.036,o),
(769,57,cs),
(769,64.756,o),
(770,72.561,o),
(770,80,cs),
(770,94.5,o),
(750.665,86.665,o),
(750,86,cs),
(745,81,o),
(736.453,56,o),
(717,56,cs),
(706.578,56,o),
(696,56.547,o),
(696,70,cs),
(696,90.594,o),
(708,108.675,o),
(708,130,cs),
(708,136.171,o),
(691.607,134,o),
(688,134,cs),
(664.551,134,o),
(670.982,74,o),
(632,74,cs),
(621.135,74,o),
(615,91.939,o),
(615,101,cs),
(615,141,ls),
(615,144.791,o),
(608.188,143,o),
(606,143,cs),
(574.084,143,o),
(597.469,82,o),
(545,82,cs),
(537.68,82,o),
(532,94.28,o),
(532,101,cs),
(532,146,ls),
(532,169.145,o),
(537.809,171,o),
(517,171,cs),
(484.018,171,o),
(514.732,75,o),
(464,75,cs),
(420.904,75,o),
(425.128,151,o),
(421,151,cs),
(413.98,151,o),
(400,141.242,o),
(400,134,cs),
(400,114.309,o),
(391.647,63,o),
(365,63,cs),
(324.873,63,o),
(347.299,138,o),
(326,138,cs),
(322.938,138,o),
(307,133.62,o),
(307,131,cs),
(307,121.882,o),
(313,114.588,o),
(313,105,cs),
(313,84.006,o),
(303.645,40,o),
(276,40,cs),
(239.71,40,o),
(256.76,115.521,o),
(232,98.5,cs),
(224.231,93.159,o),
(246.853,46.847,o),
(216,37,cs),
(192.5,29.5,o),
(193.5,81,o),
(168.5,74,c),
(157.26,70.853,o),
(169.5,49.482,o),
(169.5,43,cs),
(169.5,12.182,o),
(143.592,6,o),
(108,6,cs),
(88.008,6,o),
(51.722,10.95,o),
(43,44,cs),
(33.5,80,o),
(26.158,124,o),
(72,124,cs)
);
}
);
width = 1008;
}
);
unicode = 3572;
}
{
glyphname = zerowidthnonjoiner;
layers = (
{
layerId = m001;
shapes = (
{
closed = 1;
nodes = (
(-20,9,l),
(-20,743,l),
(20,743,l),
(20,9,l)
);
}
);
width = 0;
}
);
unicode = 8204;
}
{
glyphname = zerowidthjoiner;
layers = (
{
layerId = m001;
shapes = (
{
closed = 1;
nodes = (
(26,640,l),
(147,520,l),
(121,493,l),
(20,596,l),
(20,10,l),
(-20,10,l),
(-20,596,l),
(-121,493,l),
(-147,520,l),
(-26,640,l),
(-147,759,l),
(-121,784,l),
(0,663,l),
(121,784,l),
(147,759,l)
);
}
);
width = 0;
}
);
unicode = 8205;
}
{
glyphname = endash;
layers = (
{
layerId = m001;
shapes = (
{
closed = 1;
nodes = (
(354,326,l),
(30,326,l),
(30,253,l),
(354,253,l)
);
}
);
width = 385;
}
);
unicode = 8211;
}
{
glyphname = emdash;
layers = (
{
layerId = m001;
shapes = (
{
closed = 1;
nodes = (
(136,220,o),
(534,220,o),
(671,216,c),
(678,291,l),
(557,287,o),
(154,287,o),
(35,291,c),
(33,216,l)
);
}
);
width = 770;
}
);
unicode = 8212;
}
{
glyphname = quoteleft;
layers = (
{
layerId = m001;
shapes = (
{
closed = 1;
nodes = (
(47.2,628.6,ls),
(41.333,661.134,o),
(38.399,683.267,o),
(38.399,695,cs),
(38.399,712.066,o),
(41.934,724.467,o),
(49,732.2,cs),
(56.066,739.934,o),
(65.6,743.8,o),
(77.6,743.8,cs),
(89.333,743.8,o),
(99.066,739.866,o),
(106.8,732,cs),
(114.533,724.134,o),
(118.399,713.667,o),
(118.399,700.6,cs),
(118.399,690.2,o),
(114.934,666.066,o),
(108,628.2,cs),
(86.399,510.2,l),
(69.2,510.2,l)
);
}
);
width = 304;
}
);
unicode = 8216;
}
{
glyphname = quotedblleft;
layers = (
{
layerId = m001;
shapes = (
{
closed = 1;
nodes = (
(194,627,l),
(185.2,675.4,ls),
(184.666,682.066,o),
(184.399,688.733,o),
(184.399,695.4,cs),
(184.399,712.2,o),
(188.133,724.467,o),
(195.6,732.2,cs),
(203.066,739.934,o),
(212.934,743.8,o),
(225.2,743.8,cs),
(236.666,743.8,o),
(246.2,739.934,o),
(253.8,732.2,cs),
(261.399,724.467,o),
(265.2,714.066,o),
(265.2,701,cs),
(265.2,678.333,o),
(262.666,653.8,o),
(257.6,627.4,cs),
(234.8,510.2,l),
(215.6,510.2,l)
);
},
{
closed = 1;
nodes = (
(47.2,628.6,ls),
(41.333,661.134,o),
(38.399,683.267,o),
(38.399,695,cs),
(38.399,712.066,o),
(41.934,724.467,o),
(49,732.2,cs),
(56.066,739.934,o),
(65.6,743.8,o),
(77.6,743.8,cs),
(89.333,743.8,o),
(99.066,739.866,o),
(106.8,732,cs),
(114.533,724.134,o),
(118.399,713.667,o),
(118.399,700.6,cs),
(118.399,690.2,o),
(114.934,666.066,o),
(108,628.2,cs),
(86.399,510.2,l),
(69.2,510.2,l)
);
}
);
width = 304;
}
);
unicode = 8220;
}
{
glyphname = bullet;
layers = (
{
layerId = m001;
shapes = (
{
closed = 1;
nodes = (
(331,249,o),
(331,314,cs),
(331,377,o),
(283,417,o),
(225,417,cs),
(163,417,o),
(118,373,o),
(119,310,cs),
(119,256,o),
(157,206,o),
(228,206,cs),
(283,206,o)
);
}
);
width = 462;
}
);
unicode = 8226;
}
{
glyphname = guilsinglleft;
layers = (
{
layerId = m001;
shapes = (
{
closed = 1;
nodes = (
(172,92,o),
(216,52,c),
(231,69,o),
(241,83,o),
(251,99,c),
(209,145,o),
(174,190,o),
(136,236,c),
(136,217,l),
(185,279,o),
(216,311,o),
(249,353,c),
(236,367,o),
(223,380,o),
(212,390,c),
(162,333,o),
(91,277,o),
(24,221,c),
(121,138,o)
);
}
);
width = 305;
}
);
unicode = 8249;
}
{
glyphname = guilsinglright;
layers = (
{
layerId = m001;
shapes = (
{
closed = 1;
nodes = (
(112,333,o),
(63,390,c),
(52,380,o),
(39,367,o),
(25,353,c),
(59,311,o),
(90,279,o),
(139,217,c),
(139,236,l),
(101,190,o),
(65,145,o),
(24,99,c),
(34,83,o),
(44,69,o),
(59,52,c),
(103,92,o),
(154,138,o),
(251,221,c),
(184,277,o)
);
}
);
width = 462;
}
);
unicode = 8250;
}
{
glyphname = dottedCircle;
layers = (
{
layerId = m001;
shapes = (
{
closed = 1;
nodes = (
(452,301,o),
(457,306,cs),
(461,310,o),
(464,316,o),
(464,323,cs),
(464,330,o),
(461,336,o),
(457,340,cs),
(452,345,o),
(446,347,o),
(438,347,cs),
(432,347,o),
(427,345,o),
(422,341,c),
(417,336,o),
(415,330,o),
(415,323,cs),
(415,315,o),
(417,309,o),
(422,305,cs),
(427,301,o),
(432,299,o),
(438,299,cs),
(446,299,o)
);
},
{
closed = 1;
nodes = (
(179,31,o),
(183,35,c),
(188,39,o),
(189,45,o),
(189,52,cs),
(189,59,o),
(188,65,o),
(183,71,c),
(179,75,o),
(173,78,o),
(166,78,cs),
(159,78,o),
(153,75,o),
(149,71,c),
(144,65,o),
(142,59,o),
(142,52,cs),
(142,45,o),
(144,39,o),
(149,35,c),
(153,31,o),
(159,28,o),
(166,28,cs),
(173,28,o)
);
},
{
closed = 1;
nodes = (
(243,-9,o),
(247,-5,cs),
(252,0,o),
(253,5,o),
(253,12,cs),
(253,19,o),
(252,25,o),
(247,30,c),
(243,35,o),
(237,37,o),
(229,37,cs),
(223,37,o),
(218,35,o),
(213,31,c),
(208,26,o),
(205,20,o),
(205,12,cs),
(205,5,o),
(208,0,o),
(213,-5,cs),
(217,-9,o),
(223,-12,o),
(229,-12,cs),
(237,-12,o)
);
},
{
closed = 1;
nodes = (
(141,97,o),
(145,102,c),
(149,105,o),
(151,111,o),
(151,118,cs),
(151,125,o),
(149,131,o),
(146,136,c),
(142,141,o),
(136,143,o),
(128,143,cs),
(121,143,o),
(115,141,o),
(110,136,cs),
(105,131,o),
(103,125,o),
(103,118,cs),
(103,111,o),
(105,105,o),
(110,102,c),
(115,97,o),
(121,95,o),
(128,95,cs),
(136,95,o)
);
},
{
closed = 1;
nodes = (
(315,-22,o),
(320,-18,c),
(324,-14,o),
(326,-8,o),
(326,-1,cs),
(326,7,o),
(324,13,o),
(320,18,c),
(315,22,o),
(310,24,o),
(302,24,cs),
(295,24,o),
(290,22,o),
(285,18,c),
(280,13,o),
(278,7,o),
(278,-1,cs),
(278,-8,o),
(280,-14,o),
(285,-18,cs),
(290,-22,o),
(295,-24,o),
(302,-24,cs),
(310,-24,o)
);
},
{
closed = 1;
nodes = (
(129,166,o),
(133,170,c),
(138,174,o),
(139,180,o),
(139,187,cs),
(139,194,o),
(138,200,o),
(133,205,cs),
(129,209,o),
(123,212,o),
(116,212,cs),
(109,212,o),
(103,209,o),
(99,205,cs),
(94,200,o),
(92,194,o),
(92,187,cs),
(92,180,o),
(94,174,o),
(99,170,c),
(103,166,o),
(109,164,o),
(116,164,cs),
(123,164,o)
);
},
{
closed = 1;
nodes = (
(141,236,o),
(145,241,c),
(149,245,o),
(151,251,o),
(151,258,cs),
(151,265,o),
(149,271,o),
(146,276,c),
(142,280,o),
(136,282,o),
(128,282,cs),
(121,282,o),
(115,280,o),
(110,276,c),
(105,271,o),
(103,265,o),
(103,258,cs),
(103,251,o),
(105,245,o),
(110,241,c),
(115,236,o),
(121,234,o),
(128,234,cs),
(136,234,o)
);
},
{
closed = 1;
nodes = (
(389,-9,o),
(393,-5,cs),
(398,0,o),
(400,5,o),
(400,12,cs),
(400,20,o),
(399,26,o),
(394,31,cs),
(390,35,o),
(383,37,o),
(376,37,cs),
(369,37,o),
(363,35,o),
(359,31,c),
(355,26,o),
(353,20,o),
(353,12,cs),
(353,5,o),
(355,0,o),
(359,-5,c),
(363,-9,o),
(369,-12,o),
(376,-12,cs),
(383,-12,o)
);
},
{
closed = 1;
nodes = (
(179,301,o),
(184,305,cs),
(189,309,o),
(190,315,o),
(190,323,cs),
(190,330,o),
(189,336,o),
(184,341,c),
(179,345,o),
(174,347,o),
(166,347,cs),
(160,347,o),
(154,345,o),
(149,340,cs),
(145,336,o),
(142,330,o),
(142,323,cs),
(142,316,o),
(144,310,o),
(149,306,c),
(153,301,o),
(159,299,o),
(166,299,cs),
(174,299,o)
);
},
{
closed = 1;
nodes = (
(452,31,o),
(457,35,c),
(461,39,o),
(464,45,o),
(464,52,cs),
(464,59,o),
(462,65,o),
(457,71,c),
(453,75,o),
(447,78,o),
(440,78,cs),
(433,78,o),
(427,75,o),
(423,71,c),
(419,65,o),
(417,59,o),
(417,52,cs),
(417,45,o),
(419,40,o),
(423,35,c),
(427,31,o),
(433,28,o),
(440,28,cs),
(447,28,o)
);
},
{
closed = 1;
nodes = (
(243,342,o),
(247,347,c),
(252,351,o),
(253,357,o),
(253,364,cs),
(253,371,o),
(252,377,o),
(247,381,c),
(243,386,o),
(237,388,o),
(229,388,cs),
(223,388,o),
(218,386,o),
(213,382,c),
(208,377,o),
(205,371,o),
(205,364,cs),
(205,357,o),
(208,351,o),
(213,347,c),
(217,342,o),
(223,340,o),
(229,340,cs),
(237,340,o)
);
},
{
closed = 1;
nodes = (
(490,97,o),
(495,102,c),
(500,105,o),
(502,111,o),
(502,118,cs),
(502,125,o),
(501,131,o),
(496,136,cs),
(491,141,o),
(486,143,o),
(478,143,cs),
(471,143,o),
(466,141,o),
(461,136,c),
(457,131,o),
(454,125,o),
(454,118,cs),
(454,112,o),
(457,106,o),
(461,102,cs),
(466,97,o),
(471,95,o),
(478,95,cs),
(485,95,o)
);
},
{
closed = 1;
nodes = (
(503,166,o),
(507,170,c),
(512,174,o),
(514,180,o),
(514,187,cs),
(514,194,o),
(512,200,o),
(507,205,cs),
(503,209,o),
(497,212,o),
(489,212,cs),
(483,212,o),
(477,209,o),
(473,205,cs),
(468,200,o),
(466,194,o),
(466,187,cs),
(466,180,o),
(468,174,o),
(472,170,c),
(477,166,o),
(482,164,o),
(489,164,cs),
(497,164,o)
);
},
{
closed = 1;
nodes = (
(315,356,o),
(320,360,cs),
(324,363,o),
(326,370,o),
(326,377,cs),
(326,383,o),
(324,389,o),
(320,394,c),
(315,399,o),
(310,401,o),
(302,401,cs),
(295,401,o),
(290,399,o),
(285,394,cs),
(280,389,o),
(278,383,o),
(278,377,cs),
(278,370,o),
(280,364,o),
(285,360,cs),
(290,356,o),
(295,353,o),
(302,353,cs),
(310,353,o)
);
},
{
closed = 1;
nodes = (
(490,236,o),
(495,241,c),
(500,245,o),
(502,251,o),
(502,258,cs),
(502,265,o),
(501,271,o),
(496,276,c),
(491,280,o),
(486,282,o),
(478,282,cs),
(471,282,o),
(466,280,o),
(461,276,c),
(457,271,o),
(454,265,o),
(454,258,cs),
(454,251,o),
(457,245,o),
(461,241,cs),
(466,236,o),
(471,234,o),
(478,234,cs),
(485,234,o)
);
},
{
closed = 1;
nodes = (
(389,342,o),
(393,347,c),
(398,351,o),
(400,357,o),
(400,364,cs),
(400,371,o),
(399,377,o),
(394,382,cs),
(390,386,o),
(383,388,o),
(376,388,cs),
(369,388,o),
(363,386,o),
(359,382,c),
(355,377,o),
(353,371,o),
(353,364,cs),
(353,357,o),
(355,351,o),
(359,347,c),
(363,342,o),
(369,340,o),
(376,340,cs),
(383,340,o)
);
}
);
width = 572;
}
);
unicode = 9676;
}
{
glyphname = .notdef;
layers = (
{
layerId = m001;
shapes = (
{
closed = 1;
nodes = (
(70,553,l),
(507,553,l),
(507,-143,l),
(70,-143,l)
);
},
{
closed = 1;
nodes = (
(243,-19,o),
(256,-6,o),
(271,-6,cs),
(286,-6,o),
(299,-19,o),
(299,-34,cs),
(299,-49,o),
(286,-61,o),
(271,-61,cs),
(256,-61,o),
(243,-49,o),
(243,-34,cs)
);
},
{
closed = 1;
nodes = (
(474,-113,l),
(474,523,l),
(102,523,l),
(102,-113,l)
);
},
{
closed = 1;
nodes = (
(187,368,o),
(224,404,o),
(284,404,cs),
(364,404,o),
(410,350,o),
(410,278,cs),
(410,197,o),
(347,155,o),
(289,154,c),
(289,33,l),
(251,33,l),
(251,187,l),
(328,188,o),
(372,211,o),
(372,277,cs),
(372,327,o),
(339,371,o),
(283,371,cs),
(230,371,o),
(207,340,o),
(193,321,c),
(168,343,l)
);
}
);
width = 577;
}
);
}
{
glyphname = .null;
layers = (
{
layerId = m001;
shapes = (
{
closed = 1;
nodes = (
(143.601,139.8,l),
(145.467,173.399,o),
(149.667,201.2,o),
(156.2,223.2,cs),
(162.733,245.2,o),
(176.267,275.8,o),
(196.8,315,cs),
(212.8,345.133,o),
(223.2,368.267,o),
(228,384.399,cs),
(232.8,400.533,o),
(235.2,416.866,o),
(235.2,433.399,cs),
(235.2,467.267,o),
(226.2,494.2,o),
(208.2,514.2,cs),
(190.2,534.2,o),
(168.134,544.2,o),
(142,544.2,cs),
(118.8,544.2,o),
(100.533,538.733,o),
(87.2,527.8,cs),
(73.867,516.866,o),
(67.2,505,o),
(67.2,492.2,cs),
(67.2,482.333,o),
(71.2,470.2,o),
(79.2,455.8,cs),
(87.2,441.399,o),
(91.2,430.467,o),
(91.2,423,cs),
(91.2,413.399,o),
(88.134,405.333,o),
(82,398.8,cs),
(75.867,392.267,o),
(68.4,389,o),
(59.601,389,cs),
(48.4,389,o),
(38.2,394.533,o),
(29,405.6,cs),
(19.8,416.666,o),
(15.2,432.066,o),
(15.2,451.8,cs),
(15.2,481.934,o),
(28.134,508.6,o),
(54,531.8,cs),
(79.867,555,o),
(114.934,566.6,o),
(159.2,566.6,cs),
(214.134,566.6,o),
(254.533,550.6,o),
(280.4,518.6,cs),
(299.601,495.133,o),
(309.2,469.133,o),
(309.2,440.6,cs),
(309.2,421.133,o),
(304.867,401.133,o),
(296.2,380.6,cs),
(287.533,360.066,o),
(271.066,335.934,o),
(246.8,308.2,cs),
(208.134,264.467,o),
(184.467,233.467,o),
(175.8,215.2,cs),
(167.134,196.934,o),
(161.867,171.8,o),
(160,139.8,c)
);
},
{
closed = 1;
nodes = (
(166.934,90.2,o),
(177.533,85.866,o),
(186.2,77.2,cs),
(194.867,68.533,o),
(199.2,57.934,o),
(199.2,45.399,cs),
(199.2,33.133,o),
(194.8,22.666,o),
(186,14,cs),
(177.2,5.333,o),
(166.667,1,o),
(154.4,1,cs),
(142.134,1,o),
(131.667,5.333,o),
(123,14,cs),
(114.334,22.666,o),
(110,33.133,o),
(110,45.399,cs),
(110,57.934,o),
(114.334,68.533,o),
(123,77.2,cs),
(131.667,85.866,o),
(142.134,90.2,o),
(154.4,90.2,cs)
);
}
);
width = 323;
}
);
}
{
glyphname = sinB.virama;
layers = (
{
layerId = m001;
shapes = (
{
closed = 1;
nodes = (
(619.812,418.786,o),
(627.852,320.39,o),
(627.852,274.558,cs),
(627.852,151.497,o),
(555.466,0,o),
(434,0,cs),
(393.595,0,o),
(345.535,28.709,o),
(345.535,80.775,cs),
(345.535,146.362,o),
(421.406,151.573,o),
(421.406,229.518,cs),
(421.406,300.925,o),
(335.994,336.513,o),
(255.325,336.513,cs),
(156.954,336.513,o),
(59.792,283.594,o),
(59.792,178.173,cs),
(59.792,133.69,o),
(76.597,100.495,o),
(85.092,89,c),
(93,132,o),
(127,154,o),
(161,154,cs),
(197.197,154,o),
(237.67,122,o),
(237.67,82,cs),
(237.67,8,o),
(173.062,0,o),
(161,0,cs),
(50.591,0,o),
(21.217,133.053,o),
(21.217,193.122,cs),
(21.217,313.995,o),
(132.333,433.777,o),
(263.692,433.777,cs),
(364.148,433.777,o),
(461.401,371.999,o),
(461.401,256.62,cs),
(461.401,146.272,o),
(391.573,125.066,o),
(391.573,95.277,cs),
(391.573,77.352,o),
(413.596,69.093,o),
(426.725,69.093,cs),
(481.97,69.093,o),
(581.149,190.284,o),
(581.149,314.394,cs),
(581.149,473.77,o),
(439.646,552.356,o),
(299.971,552.356,cs),
(249.389,552.356,o),
(199.047,542.049,o),
(155.751,521.542,c),
(144.654,542.727,l),
(197.22,568.183,o),
(256.938,581.119,o),
(315.778,581.119,cs),
(403.07,581.119,o),
(488.435,552.648,o),
(545.658,494.343,cs)
);
},
{
closed = 1;
nodes = (
(112.119,47.843,o),
(137,29.543,o),
(159.805,29.543,cs),
(175,29.543,o),
(207.411,40.191,o),
(207.411,80,cs),
(207.411,100,o),
(188,124.901,o),
(160,124.901,cs),
(138,124.901,o),
(112.119,108,o),
(112.119,77.23,cs)
);
},
{
closed = 1;
nodes = (
(147.085,618.133,l),
(213.644,651.243,o),
(274.197,666.409,o),
(328.146,666.409,cs),
(472.762,666.409,o),
(569.916,557.43,o),
(608.063,393,c),
(591.863,396.601,l),
(532.224,534.855,o),
(457.968,632.385,o),
(326,632.385,cs),
(288.901,632.385,o),
(247.241,624.677,o),
(200.063,608,c),
(256,554.063,l),
(222,547.063,l)
);
}
);
width = 703;
}
);
}
{
glyphname = sinBI;
layers = (
{
layerId = m001;
shapes = (
{
closed = 1;
nodes = (
(638.999,165.719,o),
(568.533,-2.436,o),
(445.686,-2.436,cs),
(405.139,-2.436,o),
(356.533,25.975,o),
(356.533,78.337,cs),
(356.533,143.924,o),
(432.404,149.135,o),
(432.404,227.079,cs),
(432.404,325.038,o),
(282.365,333,o),
(261.999,333,cs),
(200.492,332.615,o),
(70.79,300.173,o),
(70.79,175.734,cs),
(70.79,131.252,o),
(91.019,98.28,o),
(99.514,86.785,c),
(99.514,123,o),
(137.298,150,o),
(173.884,150,cs),
(210.081,150,o),
(246.084,128.034,o),
(246.084,80.12,cs),
(246.084,3.572,o),
(181.09,-1.211,o),
(169.028,-1.211,cs),
(58.619,-1.211,o),
(32.215,130.614,o),
(32.215,190.684,cs),
(32.215,311.557,o),
(143.331,431.339,o),
(274.69,431.339,cs),
(375.146,431.339,o),
(472.399,369.561,o),
(472.399,254.182,cs),
(472.399,143.834,o),
(402.571,122.628,o),
(402.571,92.839,cs),
(402.571,74.913,o),
(424.594,66.654,o),
(437.723,66.654,cs),
(481.999,66.654,o),
(590.999,165,o),
(590.999,280,cs),
(590.999,488,o),
(406.788,535,o),
(332.999,535,cs),
(248.999,535,o),
(220.277,506.605,o),
(188.041,506.605,cs),
(147.322,506.605,o),
(124.703,544.931,o),
(124.703,582.244,cs),
(124.703,706.657,o),
(296.407,720.525,o),
(347.257,720.525,cs),
(425.59,720.525,o),
(581.132,687.857,o),
(581.132,587.689,cs),
(581.132,541.835,o),
(552.7,509.272,o),
(536.253,492.828,c),
(536.253,492.828,o),
(638.999,417,o),
(638.999,289,cs)
);
},
{
closed = 1;
nodes = (
(121.351,45.79,o),
(147.313,29.727,o),
(167.752,29.727,cs),
(188.188,29.727,o),
(221.523,40.151,o),
(221.523,79.96,cs),
(221.523,107.699,o),
(197.272,122.034,o),
(172.634,122.034,cs),
(147.198,122.034,o),
(121.351,106.756,o),
(121.351,75.177,cs)
);
},
{
closed = 1;
nodes = (
(543.903,539.478,o),
(544.337,551.451,o),
(544.337,564.562,cs),
(544.337,622.798,o),
(415.623,648.271,o),
(337.435,648.271,cs),
(268.057,648.271,o),
(156.338,631.236,o),
(156.338,573.509,cs),
(156.338,554.955,o),
(167.098,538.128,o),
(187.063,538.128,cs),
(223.543,538.128,o),
(240.999,562.13,o),
(337.096,562.13,cs),
(399.487,562.13,o),
(479.087,540.467,o),
(512.194,512.877,c)
);
}
);
width = 679;
}
);
}
{
glyphname = sinBIi;
layers = (
{
layerId = m001;
shapes = (
{
closed = 1;
nodes = (
(500,566,o),
(516,550,o),
(536,550,cs),
(556,550,o),
(572,566,o),
(572,586,cs),
(572,606,o),
(556,622,o),
(536,622,cs),
(516,622,o),
(500,606,o),
(500,586,cs)
);
},
{
closed = 1;
nodes = (
(657.127,153.404,o),
(587,0,o),
(461.275,-1.093,cs),
(461.034,-1.095,o),
(460.792,-1.096,o),
(460.551,-1.096,cs),
(420.335,-1.096,o),
(375.811,27.928,o),
(375.811,79.683,cs),
(375.811,145.27,o),
(451.682,150.48,o),
(451.682,228.425,cs),
(451.682,326.384,o),
(301.643,334.346,o),
(281.276,334.346,cs),
(219.77,333.961,o),
(90.067,301.519,o),
(90.067,177.08,cs),
(90.067,132.598,o),
(111.296,99.626,o),
(119.791,88.131,c),
(119.791,128.904,o),
(156.575,151.346,o),
(193.161,151.346,cs),
(229.358,151.346,o),
(266.361,129.38,o),
(266.361,81.466,cs),
(266.361,4.918,o),
(200.367,0.135,o),
(188.306,0.135,cs),
(77.897,0.135,o),
(51.492,131.96,o),
(51.492,192.029,cs),
(51.492,312.902,o),
(162.608,432.685,o),
(293.968,432.685,cs),
(394.424,432.685,o),
(491.677,370.906,o),
(491.677,255.527,cs),
(491.677,145.18,o),
(421.849,123.974,o),
(421.849,94.185,cs),
(421.849,76.259,o),
(442.871,68,o),
(456,68,cs),
(497.895,68,o),
(610.427,178.635,o),
(610.427,302.366,cs),
(610.427,484.062,o),
(454.001,551,o),
(341,551,cs),
(272,551,o),
(235.424,523,o),
(200,523,cs),
(168.396,523,o),
(135,547,o),
(135,601,cs),
(135,679,o),
(247.648,719,o),
(365,719,cs),
(467.085,719,o),
(604,678.777,o),
(604,598,cs),
(604,570.591,o),
(592,528,o),
(551,518,c),
(613,471,o),
(657.127,384,o),
(657.127,276.465,cs)
);
},
{
closed = 1;
nodes = (
(140.628,47.136,o),
(166.591,31.072,o),
(187.029,31.072,cs),
(207.465,31.072,o),
(240.801,41.497,o),
(240.801,81.306,cs),
(240.801,109.045,o),
(216.55,123.38,o),
(191.911,123.38,cs),
(166.476,123.38,o),
(140.628,108.102,o),
(140.628,76.522,cs)
);
},
{
closed = 1;
nodes = (
(375.449,580,o),
(437,572,o),
(467.276,558.346,c),
(465.066,565.314,o),
(464.1,578.023,o),
(464.1,584.395,cs),
(464.1,615.502,o),
(486,640,o),
(501.276,642.346,c),
(439.471,677.094,o),
(175,686.231,o),
(175,592,cs),
(175,573.614,o),
(187,555,o),
(209,555,cs),
(235,555,o),
(283,580,o),
(340,580,cs)
);
}
);
width = 716;
}
);
}
{
glyphname = sinBhU;
layers = (
{
layerId = m001;
shapes = (
{
closed = 1;
nodes = (
(422,0,l),
(380.55,0,o),
(362.233,-37.428,o),
(362.233,-61.707,cs),
(362.233,-100.594,o),
(390.55,-137.669,o),
(452.93,-137.669,cs),
(486.938,-137.669,o),
(536.66,-121.5,o),
(539.555,-55.277,c),
(558.092,-40.303,l),
(558.092,-40.303,o),
(563.3,-58.484,o),
(563.3,-81.936,cs),
(563.3,-124.528,o),
(546.12,-184.5,o),
(449.36,-184.5,cs),
(367.335,-184.5,o),
(322.902,-130.17,o),
(322.902,-71.003,cs),
(322.902,-22.085,o),
(360.95,32.955,o),
(422,33.458,c)
);
},
{
closed = 1;
nodes = (
(152.221,428.556,o),
(156.884,377.684,o),
(111.576,377.684,cs),
(87.168,377.684,o),
(74.002,395.017,o),
(74.002,418.628,cs),
(74.002,447.681,o),
(106.55,470.112,o),
(144.011,470.112,cs),
(230.929,470.112,o),
(268.393,398.303,o),
(268.393,333.856,cs),
(268.393,319.74,o),
(267.039,310.192,o),
(266.847,308.836,cs),
(260.483,309.593,o),
(254.198,309.957,o),
(248.021,309.957,cs),
(180.514,309.957,o),
(120.466,267.921,o),
(120.466,201.755,cs),
(120.466,127.935,o),
(192.844,93.345,o),
(246.358,93.345,cs),
(305,93.345,o),
(363.814,110,o),
(363.814,176,cs),
(363.814,204,o),
(352.323,235.189,o),
(322.6,235.189,cs),
(286.165,235.189,o),
(284.461,212.607,o),
(284.461,208.38,cs),
(284.461,207.943,o),
(284.479,207.703,o),
(284.479,207.703,c),
(254.657,207.703,l),
(254.657,207.703,o),
(313.636,468.697,o),
(471.871,468.697,cs),
(591.934,468.697,o),
(664.911,360.549,o),
(664.911,243.926,cs),
(664.911,97.818,o),
(601.487,0.916,o),
(422,0,c),
(422,33.458,l),
(512.659,34.374,o),
(618.391,83.716,o),
(618.391,215.034,cs),
(618.391,307.069,o),
(557.036,401.847,o),
(468.208,401.847,cs),
(369.984,401.847,o),
(316.991,286.875,o),
(314.041,264.753,c),
(317.449,265.174,o),
(321.049,265.432,o),
(324.789,265.432,cs),
(398,265.432,o),
(405.899,190.522,o),
(405.899,146,cs),
(405.899,67.912,o),
(334.567,0.345,o),
(254.183,0.345,cs),
(165.955,0.345,o),
(72.263,68.012,o),
(72.263,185.188,cs),
(72.263,242.273,o),
(106.308,289.078,o),
(136.281,309.355,c),
(36.574,309.355,l),
(36.574,349.549,l),
(46.254,349.549,o),
(107.563,349.69,o),
(159.2,349.69,cs),
(199.141,349.69,o),
(233.295,349.606,o),
(233.295,349.306,cs),
(233.295,349.301,o),
(233.285,349.295,o),
(233.265,349.29,c),
(233.265,388,o),
(214.812,428.556,o),
(176.256,428.556,cs)
);
}
);
width = 701;
}
);
}
{
glyphname = sinBhUu;
layers = (
{
layerId = m001;
shapes = (
{
closed = 1;
nodes = (
(517.57,-70,l),
(517.57,-70,o),
(503.137,-66,o),
(489,-66,cs),
(464.261,-66,o),
(434,-78.182,o),
(434,-96,cs),
(434,-132,o),
(476,-145,o),
(522,-145,cs),
(556.009,-145,o),
(608.3,-128.497,o),
(611.194,-62.274,c),
(629.731,-47.3,l),
(629.731,-47.3,o),
(634.939,-65.481,o),
(634.939,-88.934,cs),
(634.939,-131.525,o),
(617.76,-191.497,o),
(521,-191.497,cs),
(438.975,-191.497,o),
(394,-149.167,o),
(394,-90,cs),
(394,-68.442,o),
(406,-31,o),
(453,-31,c),
(422,0,l),
(436,1,o),
(460,2,o),
(476,4,c)
);
},
{
closed = 1;
nodes = (
(152.221,428.556,o),
(156.884,377.684,o),
(111.576,377.684,cs),
(87.168,377.684,o),
(74.002,395.017,o),
(74.002,418.628,cs),
(74.002,447.681,o),
(106.55,470.112,o),
(144.011,470.112,cs),
(230.929,470.112,o),
(268.393,398.303,o),
(268.393,333.856,cs),
(268.393,319.74,o),
(267.039,310.192,o),
(266.847,308.836,cs),
(260.483,309.593,o),
(254.198,309.957,o),
(248.021,309.957,cs),
(180.514,309.957,o),
(120.466,267.921,o),
(120.466,201.755,cs),
(120.466,127.935,o),
(192.844,93.345,o),
(246.358,93.345,cs),
(305,93.345,o),
(363.814,110,o),
(363.814,176,cs),
(363.814,204,o),
(352.323,235.189,o),
(322.6,235.189,cs),
(286.165,235.189,o),
(284.461,212.607,o),
(284.461,208.38,cs),
(284.461,207.943,o),
(284.479,207.703,o),
(284.479,207.703,c),
(254.657,207.703,l),
(254.657,207.703,o),
(313.636,468.697,o),
(471.871,468.697,cs),
(591.934,468.697,o),
(664.911,360.549,o),
(664.911,243.926,cs),
(664.911,97.818,o),
(601.487,0.916,o),
(422,0,c),
(422,33,l),
(512.659,33.916,o),
(618.391,83.716,o),
(618.391,215.034,cs),
(618.391,307.069,o),
(557.036,401.847,o),
(468.208,401.847,cs),
(369.984,401.847,o),
(316.991,286.875,o),
(314.041,264.753,c),
(317.449,265.174,o),
(321.049,265.432,o),
(324.789,265.432,cs),
(398,265.432,o),
(405.899,190.522,o),
(405.899,146,cs),
(405.899,67.912,o),
(334.567,0.345,o),
(254.183,0.345,cs),
(165.955,0.345,o),
(72.263,68.012,o),
(72.263,185.188,cs),
(72.263,242.273,o),
(106.308,289.078,o),
(136.281,309.355,c),
(36.574,309.355,l),
(36.574,349.549,l),
(46.254,349.549,o),
(107.563,349.69,o),
(159.2,349.69,cs),
(199.141,349.69,o),
(233.295,349.606,o),
(233.295,349.306,cs),
(233.295,349.301,o),
(233.285,349.295,o),
(233.265,349.29,c),
(233.265,388,o),
(214.812,428.556,o),
(176.256,428.556,cs)
);
}
);
width = 701;
}
);
}
{
glyphname = sinC.virama;
layers = (
{
layerId = m001;
shapes = (
{
closed = 1;
nodes = (
(579.423,112,o),
(483,0,o),
(312,0,cs),
(175.967,0,o),
(66.664,59,o),
(66.664,176.383,cs),
(66.664,227.799,o),
(87.093,270.643,o),
(133.328,304.925,c),
(34.3,304.925,l),
(34.3,338.258,l),
(62.894,338.304,o),
(271.507,338.511,o),
(273.819,338.515,c),
(273.819,371.798,o),
(243.63,426.286,o),
(202.426,426.286,cs),
(193.547,426.286,o),
(184.155,423.709,o),
(174.445,417.778,c),
(177.55,410.323,o),
(178.923,403.716,o),
(178.923,397.931,cs),
(178.923,376.429,o),
(159.953,366.304,o),
(140.473,366.304,cs),
(119.917,366.304,o),
(100,382.923,o),
(100,404,cs),
(100,441.816,o),
(126.685,469.4,o),
(184,469.4,cs),
(265.609,469.4,o),
(306.617,395.433,o),
(309.361,303.681,c),
(294.846,305.956,o),
(276.052,307.119,o),
(262.376,307.159,cs),
(181.329,307.159,o),
(107.848,270.099,o),
(107.185,191.794,cs),
(107.185,118.633,o),
(185.091,86.795,o),
(306.617,86.795,cs),
(434.417,86.795,o),
(543.255,147.093,o),
(543.255,283.188,cs),
(543.255,429.633,o),
(437.587,548.633,o),
(290.417,548.633,cs),
(237.503,548.633,o),
(177.215,539.892,o),
(132.917,518.933,c),
(122.144,538.939,l),
(176.863,565.491,o),
(241.397,579.232,o),
(298.517,579.232,cs),
(449.507,579.232,o),
(579.423,446.032,o),
(579.423,282.109,cs)
);
},
{
closed = 1;
nodes = (
(97.022,618.133,l),
(163.58,651.243,o),
(224.133,666.409,o),
(278.082,666.409,cs),
(422.698,666.409,o),
(519.853,557.43,o),
(558,393,c),
(541.8,396.601,l),
(482.16,534.856,o),
(407.905,632.384,o),
(275.936,632.384,cs),
(238.838,632.384,o),
(197.178,624.677,o),
(150,608,c),
(213,547,l),
(179,540,l)
);
}
);
width = 630;
}
);
}
{
glyphname = sinCI;
layers = (
{
layerId = m001;
shapes = (
{
closed = 1;
nodes = (
(615.918,117.267,o),
(499.485,0,o),
(339,0,cs),
(202.967,0,o),
(89.664,58,o),
(89.664,176.383,cs),
(89.664,227.799,o),
(110.093,270.643,o),
(156.328,304.925,c),
(57.3,304.925,l),
(57.3,337.258,l),
(85.894,337.304,o),
(292.507,337.511,o),
(294.819,337.515,c),
(294.819,370.798,o),
(266.63,426.286,o),
(225.426,426.286,cs),
(210,426.286,o),
(201.923,415,o),
(201.923,397.931,cs),
(201.923,380,o),
(182.953,366.304,o),
(163.473,366.304,cs),
(142.917,366.304,o),
(121.793,382.923,o),
(121.793,404,cs),
(121.793,441.816,o),
(150.64,468.344,o),
(207.955,468.344,cs),
(289.564,468.344,o),
(329.617,395.433,o),
(332.361,303.681,c),
(317.846,305.956,o),
(299.052,307.119,o),
(285.376,307.159,cs),
(204.329,307.159,o),
(128.848,270.099,o),
(128.185,191.794,cs),
(128.185,118.633,o),
(208.091,86.795,o),
(329.617,86.795,cs),
(457.417,86.795,o),
(566.255,147.093,o),
(566.255,283.188,cs),
(565.562,460.446,o),
(385.886,524.844,o),
(312.097,524.844,cs),
(250.041,524.844,o),
(208.744,502.269,o),
(176.508,502.269,cs),
(135.789,502.269,o),
(118.17,543.594,o),
(118.17,580.907,cs),
(118.17,705.32,o),
(289.874,719.188,o),
(340.724,719.188,cs),
(419.057,719.188,o),
(576,679.468,o),
(576,579.3,cs),
(576,533.445,o),
(540.167,499.936,o),
(523.72,483.491,c),
(523.72,483.491,o),
(615.918,416,o),
(615.918,280.472,cs)
);
},
{
closed = 1;
nodes = (
(531.37,530.141,o),
(537.804,550.114,o),
(537.804,563.226,cs),
(537.804,621.461,o),
(409.09,646.935,o),
(330.901,646.935,cs),
(261.523,646.935,o),
(149.805,629.899,o),
(149.805,572.172,cs),
(149.805,553.618,o),
(160.564,539.791,o),
(180.53,539.791,cs),
(217.01,539.791,o),
(258,560,o),
(324,560,cs),
(386.392,560,o),
(466.554,531.13,o),
(499.661,503.54,c)
);
}
);
width = 675;
}
);
}
{
glyphname = sinCIi;
layers = (
{
layerId = m001;
shapes = (
{
closed = 1;
nodes = (
(554.594,467.346,o),
(383.216,527.346,o),
(293.276,527.346,cs),
(245.086,527.346,o),
(202.7,505.346,o),
(167.276,505.346,cs),
(135.673,505.346,o),
(106.276,523.276,o),
(106.276,583.346,cs),
(106.276,677.346,o),
(212.925,721.346,o),
(330.276,721.346,cs),
(424.165,721.346,o),
(575.003,679.905,o),
(575.003,570.4,cs),
(575.003,525.932,o),
(552.309,495.304,o),
(513.276,486.346,c),
(575.276,439.346,o),
(602.127,359,o),
(602.127,273.465,cs),
(602.127,110.26,o),
(492.485,0,o),
(332,0,cs),
(195.967,0,o),
(90.197,49.449,o),
(89.664,176.383,cs),
(89.923,227.799,o),
(110.093,270.643,o),
(156.328,304.925,c),
(57.3,304.925,l),
(57.3,339.258,l),
(85.894,339.304,o),
(294.507,339.511,o),
(296.819,339.515,c),
(296.819,372.798,o),
(266.63,430.286,o),
(225.426,430.286,cs),
(213,430.286,o),
(201.923,419,o),
(201.923,401.931,cs),
(201.923,380.429,o),
(182.953,370.304,o),
(163.473,370.304,cs),
(142.917,370.304,o),
(122,386.923,o),
(122,408,cs),
(122,445.816,o),
(150.64,469.344,o),
(207.955,469.344,cs),
(289.564,469.344,o),
(329.617,395.433,o),
(332.361,303.681,c),
(317.846,305.956,o),
(299.052,307.119,o),
(285.376,307.159,cs),
(204.329,307.159,o),
(128.848,270.099,o),
(128.185,191.794,cs),
(128.185,118.633,o),
(208.091,86.795,o),
(329.617,86.795,cs),
(457.417,86.795,o),
(555.425,150.205,o),
(555.425,286.301,cs)
);
},
{
closed = 1;
nodes = (
(444.62,540.03,o),
(468.736,522.387,o),
(493.392,522.387,cs),
(519.944,522.387,o),
(539.087,544.894,o),
(539.087,569.122,cs),
(539.087,596.635,o),
(515.272,610.727,o),
(491.213,610.727,cs),
(466.204,610.727,o),
(444.62,595.043,o),
(444.62,568.35,cs)
);
},
{
closed = 1;
nodes = (
(409.066,554.314,o),
(408.1,561.023,o),
(408.1,567.395,cs),
(408.1,598.502,o),
(431.166,624.535,o),
(445.276,630.346,c),
(433.039,636.472,o),
(370.192,647.032,o),
(304.609,647.032,cs),
(224.009,647.032,o),
(139.276,631.082,o),
(139.276,571.346,cs),
(139.276,559.034,o),
(147.276,540.346,o),
(171.276,540.346,cs),
(206.171,540.346,o),
(236.769,563.322,o),
(303.506,563.322,cs),
(331.868,563.322,o),
(366.757,559.172,o),
(411.276,547.346,c)
);
}
);
width = 662;
}
);
}
{
glyphname = sinCU;
layers = (
{
layerId = m001;
shapes = (
{
closed = 1;
nodes = (
(506,88,o),
(531,114,o),
(546,138,c),
(546,-198,l),
(151,-198,ls),
(151,-198,o),
(76,-194,o),
(76,-120,cs),
(76,-81,o),
(105,-39,o),
(159,-39,cs),
(194,-39,o),
(233,-72,o),
(233,-104,c),
(205,-111,l),
(205,-91,o),
(187,-72,o),
(158,-72,cs),
(135,-72,o),
(111,-89,o),
(111,-120,cs),
(111,-147,o),
(132,-159,o),
(156,-159,cs),
(199,-159,o),
(506,-159,o),
(506,-159,c),
(506,88,l)
);
},
{
ref = sinCa;
}
);
width = 640;
}
);
}
{
glyphname = sinCh.virama;
layers = (
{
layerId = m001;
shapes = (
{
closed = 1;
nodes = (
(356.898,663.121,o),
(440.483,677.652,o),
(440.483,595.062,cs),
(440.483,542.344,o),
(400.166,532.81,o),
(371,532.81,cs),
(354.474,532.81,o),
(341.527,535.871,o),
(341.527,535.871,c),
(341.527,386.101,l),
(313.155,386.101,l),
(313.155,711.911,l),
(355.904,707.4,l)
);
},
{
closed = 1;
nodes = (
(404.532,577.875,o),
(410.687,586.965,o),
(410.687,601.573,cs),
(410.687,648.673,o),
(359.832,632.88,o),
(341.68,674.134,c),
(341.68,641.937,o),
(341.669,616.01,o),
(341.669,583.831,cs),
(341.669,580.323,o),
(343.091,562.437,o),
(369.316,562.437,cs),
(372.56,562.437,o),
(384.465,562.641,o),
(393.988,569.855,cs)
);
},
{
closed = 1;
nodes = (
(527.559,259.322,o),
(543,219.916,o),
(543,186,cs),
(543,53.144,o),
(417.743,1.405,o),
(284.193,0.707,cs),
(283.455,0.703,o),
(282.717,0.701,o),
(281.979,0.701,cs),
(147.769,0.701,o),
(36,64.707,o),
(36,195,cs),
(36,295,o),
(132,340,o),
(216,340,cs),
(224.664,340,o),
(234,340,o),
(243,340,c),
(244,348,o),
(245,351.011,o),
(245,358,cs),
(245,386.846,o),
(222.608,414,o),
(188,414,cs),
(139,414,o),
(160,351,o),
(104,351,cs),
(75.855,351,o),
(64.451,375.517,o),
(64.451,394.634,cs),
(64.451,447.529,o),
(121.849,465.022,o),
(162.169,465.022,cs),
(230.673,465.022,o),
(277.617,405.354,o),
(277.617,336.026,cs),
(277.617,326.587,o),
(276.747,316.969,o),
(274.942,307.298,c),
(264.089,308.031,o),
(253.571,308.405,o),
(243.423,308.405,cs),
(147.03,308.405,o),
(85,276.713,o),
(85,198,cs),
(85,107,o),
(215,86,o),
(289,86,cs),
(335.522,86,o),
(501,96,o),
(501,201,cs),
(501,217.904,o),
(493.632,231.76,o),
(486.321,243.223,c),
(464.5,213.675,o),
(435.857,195.447,o),
(404.17,195.447,cs),
(343,195.447,o),
(306.607,266.563,o),
(306.607,340.602,cs),
(306.607,500.211,o),
(525.266,567.302,o),
(555,579,c),
(555,579,o),
(564,570,o),
(570.654,558.247,c),
(542.704,549.989,o),
(466,515,o),
(409.024,460.25,c),
(416.225,461.553,o),
(423.059,462.176,o),
(429.529,462.176,cs),
(491.336,462.176,o),
(520.087,405.365,o),
(520.087,341.996,cs),
(520.087,321.223,o),
(514,293,o),
(506.918,280.877,c)
);
},
{
closed = 1;
nodes = (
(388.261,423.585,o),
(355.733,384.539,o),
(349.379,339.938,c),
(351.142,339.977,o),
(353.018,340,o),
(355,340,cs),
(386.034,340,o),
(444.373,329.987,o),
(482.604,305.792,c),
(485.429,314.89,o),
(487.146,327.415,o),
(487.146,338.104,cs),
(487.146,381.654,o),
(462.525,423.585,o),
(420.903,423.585,cs)
);
},
{
closed = 1;
nodes = (
(428.839,236.791,o),
(449.719,248.979,o),
(464.605,268.949,c),
(437,296,o),
(394,307,o),
(342,309,c),
(345.044,269.081,o),
(367.91,236.791,o),
(407.172,236.791,cs)
);
}
);
width = 590;
}
);
}
{
glyphname = sinChI;
layers = (
{
layerId = m001;
shapes = (
{
closed = 1;
nodes = (
(401.701,718.74,o),
(518.723,666.616,o),
(518.723,596.565,cs),
(518.723,538,o),
(496,526,o),
(458,516,c),
(458,538,l),
(473,548,o),
(479.46,557,o),
(479.46,579.706,cs),
(479.46,619.401,o),
(380.746,642,o),
(307,642,cs),
(232.413,642,o),
(134.757,624,o),
(134.757,582.791,cs),
(134.757,543,o),
(171.279,540.621,o),
(194.527,540.621,cs),
(205.381,540.621,o),
(213.342,541.884,o),
(213.342,541.884,c),
(213.342,517.277,l),
(213.342,517.277,o),
(206.479,516.324,o),
(196.067,516.324,cs),
(155.706,516.324,o),
(95.309,533.429,o),
(95.309,596.809,cs),
(95.309,666.66,o),
(212.352,718.74,o),
(307,718.74,cs)
);
},
{
ref = sinCha;
}
);
width = 590;
}
);
}
{
glyphname = sinChIi;
layers = (
{
layerId = m001;
shapes = (
{
closed = 1;
nodes = (
(497.37,543.545,o),
(451.903,516.562,o),
(414.173,516.562,cs),
(379.683,516.562,o),
(353.492,536.98,o),
(353.492,570.077,cs),
(353.492,614.521,o),
(398.826,627.956,o),
(398.826,627.956,c),
(424.943,617.831,l),
(424.943,617.831,o),
(378.606,613.991,o),
(378.606,572.269,cs),
(378.606,557.728,o),
(392.255,542.737,o),
(413.991,542.737,cs),
(434.9,542.737,o),
(457.801,553.706,o),
(457.801,577.331,cs),
(457.801,629.644,o),
(322.691,641.456,o),
(282.793,641.456,cs),
(235.011,641.456,o),
(111.533,626.248,o),
(111.533,578.175,cs),
(111.533,564.895,o),
(125.705,539.357,o),
(169.82,539.357,cs),
(176.156,539.357,o),
(183.109,539.884,o),
(190.729,541.05,c),
(190.729,516.581,l),
(185.244,516.246,o),
(180.016,516.085,o),
(175.031,516.085,cs),
(79.709,516.085,o),
(73.635,574.928,o),
(73.635,597.288,cs),
(73.635,671.831,o),
(199.964,719.081,o),
(285.089,719.081,cs),
(373.398,719.081,o),
(497.37,670.144,o),
(497.37,596.381,cs)
);
},
{
pos = (-20,0);
ref = sinCha;
}
);
width = 586;
}
);
}
{
glyphname = sinDAe.ss01;
layers = (
{
layerId = m001;
shapes = (
{
closed = 1;
nodes = (
(498,-180.235,o),
(498,-190.899,o),
(498,-202,c),
(419,-202,o),
(359.697,-157.202,o),
(359.697,-80.964,cs),
(359.697,-37.977,o),
(370,2,o),
(409,42,c),
(404,39,o),
(397,35,o),
(392.556,32.528,c),
(362.467,-3.137,o),
(319.389,-39.84,o),
(319.389,-100.131,cs),
(319.389,-137.562,o),
(352.668,-163.798,o),
(377.991,-167.881,c),
(374.471,-178.305,o),
(371.087,-188.729,o),
(367.566,-199.153,c),
(344.237,-197.427,o),
(263.634,-168.905,o),
(263.634,-100.27,cs),
(263.634,-40,o),
(301,-12,o),
(324,6,c),
(308,2,o),
(276.057,-2,o),
(254,-2,cs),
(111.512,-2,o),
(38,80.809,o),
(38,175.535,cs),
(38,175.69,o),
(38,175.845,o),
(38,176,cs),
(38.314,302,o),
(134.414,327.828,o),
(245,327.828,c),
(245,327.828,o),
(377.54,325.878,o),
(434.189,325.878,c),
(434.189,373,o),
(370.816,422,o),
(324,422,cs),
(262,422,o),
(267,359,o),
(218,359,cs),
(204.673,359,o),
(187,366.46,o),
(187,392,cs),
(187,449,o),
(281.613,463,o),
(305,463,cs),
(371.797,463,o),
(463,413,o),
(463.604,296.842,c),
(390.393,296.842,o),
(246,297.335,o),
(246,297.335,cs),
(192,297.457,o),
(109,277,o),
(109,182,cs),
(109,95.04,o),
(205.347,45,o),
(290,45,cs),
(382,45,o),
(448,107,o),
(465,195,c),
(492,195,l),
(485,79,o),
(413.643,44.889,o),
(413.643,-65.332,cs),
(413.643,-114.998,o),
(433,-169,o),
(498,-169,c)
);
}
);
width = 524;
}
);
}
{
glyphname = sinDRa;
layers = (
{
layerId = m001;
shapes = (
{
closed = 1;
nodes = (
(491.094,98.503,o),
(502.499,110.857,o),
(513.768,123.211,c),
(500.309,-72.24,o),
(447.424,-204.389,o),
(270.768,-204.389,cs),
(123.501,-204.389,o),
(65.034,-121.828,o),
(43.967,-76.589,c),
(43.967,-42.648,l),
(89.566,-98.867,o),
(141.991,-146.822,o),
(280.591,-146.822,cs),
(450.988,-146.822,o),
(473.492,30.109,o),
(479.826,86.147,c)
);
},
{
closed = 1;
nodes = (
(457.814,357.538,o),
(423.176,421.781,o),
(363.768,421.781,cs),
(304.361,421.781,o),
(298.048,354.115,o),
(256.433,354.115,cs),
(233.272,354.115,o),
(218.423,372.378,o),
(218.423,387.336,cs),
(218.423,407.903,o),
(221.781,463.265,o),
(355.513,463.265,cs),
(499.564,463.265,o),
(502.528,306.809,o),
(502.528,293.935,cs),
(502.528,293.384,o),
(502.522,293.095,o),
(502.522,293.095,c),
(502.522,293.095,o),
(287.848,293.095,o),
(223.405,293.095,cs),
(158.962,293.095,o),
(149.095,200.663,o),
(149.095,192.404,cs),
(149.095,158.799,o),
(154.084,57.881,o),
(328.325,57.881,cs),
(477.705,57.881,o),
(493.892,158.703,o),
(493.892,202.402,cs),
(493.892,214.493,o),
(492.652,222.21,o),
(492.652,222.21,c),
(525.194,222.21,l),
(526.108,213.101,o),
(526.552,204.286,o),
(526.552,195.765,cs),
(526.552,61.797,o),
(416.965,0,o),
(304,0,cs),
(183.852,0,o),
(59.882,69.907,o),
(59.882,197.239,cs),
(59.882,324.512,o),
(166.973,332.77,o),
(258.042,332.77,cs),
(336.493,332.77,o),
(457.814,332.77,o),
(457.814,332.77,c)
);
}
);
width = 593;
}
);
}
{
glyphname = sinDU;
layers = (
{
layerId = m001;
shapes = (
{
closed = 1;
nodes = (
(494.191,159,o),
(521,168.641,o),
(534,196.751,c),
(534,-198,l),
(139.132,-198,ls),
(139.132,-198,o),
(64.482,-194,o),
(64.482,-120,cs),
(64.482,-81.152,o),
(93.183,-39,o),
(147,-39,cs),
(182,-39,o),
(221,-72,o),
(221,-104,c),
(193,-111,l),
(193,-91,o),
(175,-72,o),
(146,-72,cs),
(123.054,-72,o),
(99,-89.003,o),
(99,-120,cs),
(99,-147,o),
(120.523,-158.887,o),
(144.074,-158.887,cs),
(186.863,-158.887,o),
(494.191,-158.887,o),
(494.191,-158.887,c),
(494.191,159,l)
);
},
{
closed = 1;
nodes = (
(465.606,366.538,o),
(430.968,430.781,o),
(371.56,430.781,cs),
(312.153,430.781,o),
(305.84,363.115,o),
(264.225,363.115,cs),
(241.064,363.115,o),
(226.215,381.378,o),
(226.215,396.336,cs),
(226.215,416.903,o),
(229.573,472.265,o),
(363.305,472.265,cs),
(507.356,472.265,o),
(510.32,315.809,o),
(510.32,302.935,cs),
(510.32,302.384,o),
(510.314,302.095,o),
(510.314,302.095,c),
(510.314,302.095,o),
(295.64,302.095,o),
(231.197,302.095,cs),
(166.754,302.095,o),
(156.887,209.663,o),
(156.887,201.404,cs),
(156.887,167.799,o),
(161.876,66.881,o),
(336.117,66.881,cs),
(485.497,66.881,o),
(501.684,167.703,o),
(501.684,211.402,cs),
(501.684,223.493,o),
(500.444,231.21,o),
(500.444,231.21,c),
(532.986,231.21,l),
(533.9,222.101,o),
(534.344,213.286,o),
(534.344,204.765,cs),
(534.344,70.797,o),
(424.757,9,o),
(311.792,9,cs),
(191.644,9,o),
(67.674,78.907,o),
(67.674,206.239,cs),
(67.674,333.512,o),
(174.765,341.77,o),
(265.834,341.77,cs),
(344.285,341.77,o),
(465.606,341.77,o),
(465.606,341.77,c)
);
}
);
width = 562;
}
);
}
{
glyphname = sinDUu;
layers = (
{
layerId = m001;
shapes = (
{
closed = 1;
nodes = (
(100.794,-140.54,o),
(121.014,-160.759,o),
(145.489,-160.759,cs),
(169.965,-160.759,o),
(190.185,-140.54,o),
(190.185,-116.064,cs),
(190.185,-91.588,o),
(169.965,-71.369,o),
(145.489,-71.369,cs),
(121.014,-71.369,o),
(100.794,-91.588,o),
(100.794,-116.064,cs)
);
},
{
closed = 1;
nodes = (
(533.232,-198,l),
(490.195,-198,l),
(430.874,-165,o),
(384.438,-154,o),
(345,-154,cs),
(266.123,-154,o),
(215.235,-198,o),
(145.232,-198,cs),
(99.232,-198,o),
(64.232,-167,o),
(64.232,-121,cs),
(64.232,-80.443,o),
(95.232,-39,o),
(143.232,-39,cs),
(189.824,-39,o),
(219.507,-75.04,o),
(219.507,-112.632,cs),
(219.507,-122.729,o),
(217.366,-132.937,o),
(212.836,-142.589,c),
(255.869,-121.616,o),
(300.515,-110.906,o),
(344.117,-110.906,cs),
(397.017,-110.906,o),
(456.379,-126.671,o),
(501.461,-159,c),
(501.461,193,l),
(533.232,207,o),
(531.629,221.396,o),
(533.232,226,c)
);
},
{
closed = 1;
nodes = (
(465.606,366.538,o),
(430.968,430.781,o),
(371.56,430.781,cs),
(312.153,430.781,o),
(305.84,363.115,o),
(264.225,363.115,cs),
(241.064,363.115,o),
(226.215,381.378,o),
(226.215,396.336,cs),
(226.215,416.903,o),
(229.573,472.265,o),
(363.305,472.265,cs),
(507.356,472.265,o),
(510.32,315.809,o),
(510.32,302.935,cs),
(510.32,302.384,o),
(510.314,302.095,o),
(510.314,302.095,c),
(510.314,302.095,o),
(295.64,302.095,o),
(231.197,302.095,cs),
(166.754,302.095,o),
(156.887,209.663,o),
(156.887,201.404,cs),
(156.887,167.799,o),
(161.876,66.881,o),
(336.117,66.881,cs),
(485.497,66.881,o),
(501.684,167.703,o),
(501.684,211.402,cs),
(501.684,223.493,o),
(500.444,231.21,o),
(500.444,231.21,c),
(532.986,231.21,l),
(533.9,222.101,o),
(534.344,213.286,o),
(534.344,204.765,cs),
(534.344,70.797,o),
(424.757,9,o),
(311.792,9,cs),
(191.644,9,o),
(67.674,78.907,o),
(67.674,206.239,cs),
(67.674,333.512,o),
(174.765,341.77,o),
(265.834,341.77,cs),
(344.285,341.77,o),
(465.606,341.77,o),
(465.606,341.77,c)
);
}
);
width = 593;
}
);
}
{
glyphname = sinDd.virama;
layers = (
{
layerId = m001;
shapes = (
{
closed = 1;
nodes = (
(399.976,0.093,o),
(356.415,38.703,o),
(336.615,73.353,c),
(318.795,43.652,o),
(300.029,0.093,o),
(213.769,0.093,cs),
(123.94,0.093,o),
(72.758,85.936,o),
(72.758,168.816,cs),
(72.758,224.136,o),
(95.561,278.136,o),
(144.892,304.409,c),
(44.03,304.409,l),
(44.03,337.34,l),
(73.153,337.388,o),
(282.028,337.599,o),
(284.384,337.603,c),
(284.384,391.188,o),
(242.248,426.827,o),
(214.144,426.827,cs),
(200.081,426.827,o),
(189.531,417.903,o),
(189.531,397.84,cs),
(189.531,374.081,o),
(170.397,365.011,o),
(149.733,365.011,cs),
(129.598,365.011,o),
(109.717,377.043,o),
(109.717,402.575,cs),
(109.717,435.692,o),
(139.098,465.033,o),
(197.476,465.033,cs),
(280.596,465.033,o),
(319.605,388.712,o),
(320.585,303.108,c),
(306.364,305.32,o),
(292.445,306.393,o),
(278.992,306.393,cs),
(189.717,306.393,o),
(120.964,259.206,o),
(120.964,185,c),
(120.964,106,o),
(175.896,84.41,o),
(215,84.41,cs),
(281.195,84.41,o),
(320.775,135.093,o),
(322.035,189.183,c),
(329.281,189.183,o),
(359.655,189.183,o),
(359.655,189.183,c),
(359.655,151,o),
(373.383,84.41,o),
(462,84.41,cs),
(554.881,84.41,o),
(597.892,163.351,o),
(597.892,252.539,cs),
(597.892,389.851,o),
(493.574,547.015,o),
(302.665,547.015,cs),
(248.77,547.015,o),
(189.667,538.362,o),
(144.548,517.015,c),
(133.575,537.393,l),
(188.524,564.056,o),
(246.807,576.807,o),
(304.131,576.807,cs),
(536.979,576.807,o),
(648.247,408.828,o),
(648.247,249.564,cs),
(648.247,127.97,o),
(583.707,0.093,o),
(459.375,0.093,cs)
);
},
{
closed = 1;
nodes = (
(161.305,623.786,l),
(217.375,652.863,o),
(272.475,666.606,o),
(324,666.606,cs),
(460.508,666.606,o),
(571.926,570.145,o),
(609.821,406.8,c),
(593.621,410.399,l),
(532.551,551.972,o),
(440.979,636.821,o),
(324.479,636.821,cs),
(289.895,636.821,o),
(253.114,629.344,o),
(214.282,613.652,c),
(272.297,558.001,l),
(262.68,555.015,o),
(243.115,553.547,o),
(243.115,553.547,c)
);
}
);
width = 685;
}
);
}
{
glyphname = sinDdI;
layers = (
{
layerId = m001;
shapes = (
{
closed = 1;
nodes = (
(395.362,0.093,o),
(351.775,38.677,o),
(331.96,73.353,c),
(314.14,43.652,o),
(295.374,0.093,o),
(209.113,0.093,cs),
(119.285,0.093,o),
(68.103,85.936,o),
(68.103,168.816,cs),
(68.103,224.136,o),
(90.905,278.136,o),
(140.236,304.409,c),
(39.375,304.409,l),
(39.375,337.34,l),
(68.498,337.388,o),
(277.373,337.599,o),
(279.729,337.603,c),
(279.729,391.188,o),
(237.593,426.827,o),
(209.488,426.827,cs),
(195.426,426.827,o),
(184.876,417.903,o),
(184.876,397.84,cs),
(184.876,374.081,o),
(165.742,365.011,o),
(145.078,365.011,cs),
(124.942,365.011,o),
(105.062,377.043,o),
(105.062,402.575,cs),
(105.062,435.692,o),
(134.442,465.033,o),
(192.82,465.033,cs),
(275.94,465.033,o),
(314.95,388.712,o),
(315.93,303.108,c),
(301.709,305.32,o),
(287.79,306.393,o),
(274.337,306.393,cs),
(185.062,306.393,o),
(116.309,259.206,o),
(116.309,185,c),
(116.309,106,o),
(171.24,84.41,o),
(210.345,84.41,cs),
(276.54,84.41,o),
(316.12,135.093,o),
(317.38,189.183,c),
(324.626,189.183,o),
(355,189.183,o),
(355,189.183,c),
(355,151,o),
(368.728,84.41,o),
(457.345,84.41,cs),
(553.881,84.41,o),
(583.517,192.258,o),
(583.517,281.446,cs),
(583.517,458.446,o),
(403.84,522.844,o),
(330.051,522.844,cs),
(267.995,522.844,o),
(226.698,500.269,o),
(194.462,500.269,cs),
(153.743,500.269,o),
(136.124,541.594,o),
(136.124,578.907,cs),
(136.124,704.436,o),
(310.259,717.244,o),
(363.73,717.244,cs),
(462.872,717.244,o),
(603.86,680,o),
(603.86,563.12,cs),
(603.86,535.286,o),
(590.559,504.895,o),
(558.658,473,c),
(558.658,473,o),
(633.872,403,o),
(633.872,278.472,cs),
(633.872,156.913,o),
(588.027,0.093,o),
(454.838,0.093,cs)
);
},
{
closed = 1;
nodes = (
(549.324,528.141,o),
(555.758,548.114,o),
(555.758,561.226,cs),
(555.758,619.461,o),
(427.044,644.935,o),
(348.855,644.935,cs),
(279.478,644.935,o),
(167.759,627.899,o),
(167.759,570.172,cs),
(167.759,551.618,o),
(178.519,534.791,o),
(198.484,534.791,cs),
(234.964,534.791,o),
(288.555,558.793,o),
(348.517,558.793,cs),
(410.908,558.793,o),
(484.508,529.13,o),
(517.615,501.54,c)
);
}
);
width = 670;
}
);
}
{
glyphname = sinDdIi;
layers = (
{
layerId = m001;
shapes = (
{
closed = 1;
nodes = (
(541.881,84.41,o),
(585.148,166,o),
(585.148,285.036,cs),
(585.148,466.083,o),
(412.939,526.081,o),
(323,526.081,cs),
(274.81,526.081,o),
(232.424,504.081,o),
(197,504.081,cs),
(165.396,504.081,o),
(138,522.012,o),
(138,582.081,cs),
(138,676.081,o),
(242.648,720.081,o),
(360,720.081,cs),
(453.889,720.081,o),
(604.727,678.641,o),
(604.727,569.136,cs),
(604.727,524.667,o),
(582.032,494.039,o),
(543,485.081,c),
(605,438.081,o),
(631.851,357.735,o),
(631.851,272.2,cs),
(631.851,122,o),
(570.707,0.093,o),
(444,0,cs),
(384.601,0,o),
(341.04,38.61,o),
(321.24,73.26,c),
(303.42,43.56,o),
(284.654,0,o),
(198.394,0,cs),
(108.565,0,o),
(57.383,85.843,o),
(57.383,168.724,cs),
(57.383,224.043,o),
(80.186,278.043,o),
(129.517,304.316,c),
(28.655,304.316,l),
(28.655,337.247,l),
(57.778,337.295,o),
(266.653,337.506,o),
(269.009,337.51,c),
(269.009,391.095,o),
(226.873,426.734,o),
(198.769,426.734,cs),
(184.706,426.734,o),
(174.156,417.811,o),
(174.156,397.747,cs),
(174.156,373.988,o),
(155.022,364.918,o),
(134.358,364.918,cs),
(114.223,364.918,o),
(94.342,376.95,o),
(94.342,402.482,cs),
(94.342,435.6,o),
(123.723,464.94,o),
(182.101,464.94,cs),
(265.221,464.94,o),
(304.23,388.619,o),
(305.21,303.016,c),
(290.989,305.228,o),
(277.07,306.3,o),
(263.617,306.3,cs),
(174.342,306.3,o),
(105.589,259.113,o),
(105.589,184.907,c),
(105.589,105.907,o),
(160.521,84.317,o),
(199.625,84.317,cs),
(265.82,84.317,o),
(305.4,135,o),
(306.66,189.09,c),
(313.906,189.09,o),
(344.28,189.09,o),
(344.28,189.09,c),
(344.28,150.907,o),
(358.008,84.317,o),
(446.625,84.317,cs)
);
},
{
closed = 1;
nodes = (
(474.344,538.766,o),
(498.46,521.122,o),
(523.115,521.122,cs),
(549.668,521.122,o),
(568.811,543.629,o),
(568.811,567.857,cs),
(568.811,595.37,o),
(544.996,609.462,o),
(520.937,609.462,cs),
(495.928,609.462,o),
(474.344,593.778,o),
(474.344,567.085,cs)
);
},
{
closed = 1;
nodes = (
(367.449,561.081,o),
(409.439,556.704,o),
(441,546.081,c),
(438.79,553.05,o),
(437.823,559.759,o),
(437.823,566.13,cs),
(437.823,597.237,o),
(460.89,623.271,o),
(475,629.081,c),
(475,629.081,o),
(392.833,648.081,o),
(354,648.081,cs),
(282,648.081,o),
(169,639.989,o),
(169,570.081,cs),
(169,557.77,o),
(177,540.081,o),
(201,540.081,cs),
(239.053,540.081,o),
(299,561.081,o),
(332,561.081,cs)
);
}
);
width = 680;
}
);
}
{
glyphname = sinDdU;
layers = (
{
layerId = m001;
shapes = (
{
closed = 1;
nodes = (
(579,88,o),
(604,114,o),
(619,138,c),
(619,-198,l),
(224,-198,ls),
(224,-198,o),
(149,-194,o),
(149,-120,cs),
(149,-81,o),
(178,-39,o),
(232,-39,cs),
(267,-39,o),
(306,-72,o),
(306,-104,c),
(278,-111,l),
(278,-91,o),
(260,-72,o),
(231,-72,cs),
(208,-72,o),
(184,-89,o),
(184,-120,cs),
(184,-147,o),
(205,-159,o),
(229,-159,cs),
(272,-159,o),
(579,-159,o),
(579,-159,c),
(579,88,l)
);
},
{
pos = (3,0);
ref = sinDda;
}
);
width = 675;
}
);
}
{
glyphname = sinDdhI;
layers = (
{
layerId = m001;
shapes = (
{
closed = 1;
nodes = (
(352.3,461.644,l),
(276.7,469.744,o),
(231.7,508.444,o),
(231.7,562.444,cs),
(231.7,639.991,o),
(314.181,677.834,o),
(398.448,677.834,cs),
(486.45,677.834,o),
(576.4,636.563,o),
(576.4,556.144,cs),
(576.4,503.044,o),
(549.299,472.744,o),
(496.2,472.744,c),
(479.2,503.044,l),
(498.702,503.045,o),
(540,509.456,o),
(540,545,cs),
(540,599.79,o),
(471.441,629.044,o),
(392.8,629.044,cs),
(330.784,629.044,o),
(268.6,610.081,o),
(268.6,567.844,cs),
(268.6,512.044,o),
(338.7,501.244,o),
(349.5,501.244,c)
);
},
{
ref = sinDdha;
}
);
width = 708;
}
);
}
{
glyphname = sinDdhIi;
layers = (
{
layerId = m001;
shapes = (
{
closed = 1;
nodes = (
(352,462,l),
(268,470,o),
(232,518.973,o),
(232,559,cs),
(232,632,o),
(296.967,679,o),
(411,679,cs),
(504.601,679,o),
(576,619,o),
(576,559,cs),
(576,517.59,o),
(561.237,488,o),
(518,488,cs),
(483,488,o),
(444,506.301,o),
(444,552,cs),
(444,594,o),
(478.801,612,o),
(507,612,c),
(527,594,l),
(479.614,594,o),
(474,573.814,o),
(474,558,cs),
(474,542,o),
(490.678,523,o),
(514,523,cs),
(528.121,523,o),
(543,534,o),
(543,552,cs),
(543,598,o),
(465.5,629,o),
(398,629,cs),
(289.101,629,o),
(269,590,o),
(269,566,cs),
(269,511.101,o),
(338.399,501.601,o),
(350.1,501.601,c)
);
},
{
ref = sinDdha;
}
);
width = 706;
}
);
}
{
glyphname = sinDdhU;
layers = (
{
layerId = m001;
shapes = (
{
closed = 1;
nodes = (
(599,88,o),
(624,114,o),
(639,138,c),
(639,-198,l),
(244,-198,ls),
(244,-198,o),
(169,-194,o),
(169,-120,cs),
(169,-81,o),
(198,-39,o),
(252,-39,cs),
(287,-39,o),
(326,-72,o),
(326,-104,c),
(298,-111,l),
(298,-91,o),
(280,-72,o),
(251,-72,cs),
(228,-72,o),
(204,-89,o),
(204,-120,cs),
(204,-147,o),
(225,-159,o),
(249,-159,cs),
(292,-159,o),
(599,-159,o),
(599,-159,c),
(599,88,l)
);
},
{
ref = sinDdha;
}
);
width = 690;
}
);
}
{
glyphname = sinDhI;
layers = (
{
layerId = m001;
shapes = (
{
closed = 1;
nodes = (
(661.737,143.463,o),
(622,0,o),
(479,2.05,cs),
(386.01,3.383,o),
(358,59.169,o),
(340.577,87.484,c),
(336.878,80.654,o),
(296,0,o),
(215,0,cs),
(95.705,0,o),
(41.741,115.912,o),
(41.741,194.302,cs),
(41.741,364.774,o),
(175,408,o),
(268,408,c),
(267.455,370.383,l),
(143,370.383,o),
(94.599,286.839,o),
(94.599,210.017,cs),
(94.599,128,o),
(151.346,85.093,o),
(214,84.41,cs),
(278,83.713,o),
(322.305,122,o),
(322.305,183,c),
(360,183,l),
(360,123.864,o),
(402.001,84.785,o),
(466,84.41,cs),
(585,83.713,o),
(620.679,185.708,o),
(620.679,275,cs),
(620.679,452.154,o),
(455,523.844,o),
(347.803,523.844,cs),
(285.747,523.844,o),
(244.45,501.269,o),
(212.214,501.269,cs),
(171.495,501.269,o),
(153.876,542.594,o),
(153.876,579.907,cs),
(153.876,704.32,o),
(325.58,718.188,o),
(376.43,718.188,cs),
(454.763,718.188,o),
(610.305,692,o),
(610.305,561.353,cs),
(610.305,515.498,o),
(576,492,o),
(559.426,482.491,c),
(559.426,482.491,o),
(661.737,413.975,o),
(661.737,263,cs)
);
},
{
closed = 1;
nodes = (
(567.076,529.141,o),
(573.51,549.114,o),
(573.51,562.226,cs),
(573.51,620.461,o),
(444.796,645.935,o),
(366.607,645.935,cs),
(297.229,645.935,o),
(185.511,628.899,o),
(185.511,571.172,cs),
(185.511,552.618,o),
(196.919,530.743,o),
(216.236,535.791,cs),
(328,565,o),
(413,583,o),
(535.367,502.54,c)
);
}
);
width = 698;
}
);
}
{
glyphname = sinDhIi;
layers = (
{
layerId = m001;
shapes = (
{
closed = 1;
nodes = (
(599,466,o),
(436,526.081,o),
(335,526.081,cs),
(286.81,526.081,o),
(244.424,504.081,o),
(209,504.081,cs),
(177.396,504.081,o),
(150,522.012,o),
(150,582.081,cs),
(150,676.081,o),
(254.648,720.081,o),
(372,720.081,cs),
(465.889,720.081,o),
(616.727,678.641,o),
(616.727,569.136,cs),
(616.727,524.667,o),
(594.032,494.039,o),
(555,485.081,c),
(617,438.081,o),
(645,360,o),
(645,258,cs),
(645,138.603,o),
(584.143,0.325,o),
(474.19,0.325,cs),
(474.061,0.325,o),
(473.932,0.325,o),
(473.803,0.325,cs),
(387.914,0.579,o),
(356.971,37.753,o),
(338,74,c),
(334.302,67.172,o),
(304.019,0.042,o),
(203.944,0.042,cs),
(203.913,0.042,o),
(203.882,0.042,o),
(203.851,0.042,cs),
(84.556,0.092,o),
(36.685,120.245,o),
(36.685,198.635,cs),
(36.685,369.107,o),
(176.664,404.424,o),
(240.253,406.992,c),
(247.434,391.821,o),
(254.613,376.555,o),
(261.793,361.383,c),
(259.947,361.689,o),
(250.556,363.189,o),
(236.946,363.189,cs),
(161.904,363.189,o),
(89.542,291.253,o),
(89.542,214.35,cs),
(89.542,125.721,o),
(147.951,82.824,o),
(210.609,82.824,cs),
(265.03,82.824,o),
(322.305,123.924,o),
(322.305,190,c),
(360,190,l),
(360,130.864,o),
(389.083,84.85,o),
(462,84.85,cs),
(562,84.85,o),
(599,184.451,o),
(599,265,cs)
);
},
{
closed = 1;
nodes = (
(486.344,538.766,o),
(510.46,521.122,o),
(535.115,521.122,cs),
(561.668,521.122,o),
(580.811,543.629,o),
(580.811,567.857,cs),
(580.811,595.37,o),
(556.996,609.462,o),
(532.937,609.462,cs),
(507.928,609.462,o),
(486.344,593.778,o),
(486.344,567.085,cs)
);
},
{
closed = 1;
nodes = (
(379.449,561.081,o),
(421.439,556.704,o),
(453,546.081,c),
(450.79,553.05,o),
(449.823,559.759,o),
(449.823,566.13,cs),
(449.823,597.237,o),
(472.89,623.271,o),
(487,629.081,c),
(487,629.081,o),
(404.833,648.081,o),
(366,648.081,cs),
(294,648.081,o),
(181,639.989,o),
(181,570.081,cs),
(181,557.77,o),
(189,540.081,o),
(213,540.081,cs),
(251.053,540.081,o),
(311,561.081,o),
(344,561.081,cs)
);
}
);
width = 683;
}
);
}
{
glyphname = sinDhU;
layers = (
{
layerId = m001;
shapes = (
{
closed = 1;
nodes = (
(606,88,o),
(631,114,o),
(646,138,c),
(646,-198,l),
(251,-198,ls),
(251,-198,o),
(176,-194,o),
(176,-120,cs),
(176,-81,o),
(205,-39,o),
(259,-39,cs),
(294,-39,o),
(333,-72,o),
(333,-104,c),
(305,-111,l),
(305,-91,o),
(287,-72,o),
(258,-72,cs),
(235,-72,o),
(211,-89,o),
(211,-120,cs),
(211,-147,o),
(232,-159,o),
(256,-159,cs),
(299,-159,o),
(606,-159,o),
(606,-159,c),
(606,88,l)
);
},
{
ref = sinDha;
}
);
width = 729;
}
);
}
{
glyphname = sinFI;
layers = (
{
layerId = m001;
shapes = (
{
closed = 1;
nodes = (
(469.023,713.582,o),
(590.872,666.47,o),
(590.872,571.911,cs),
(590.872,496.548,o),
(518.774,476.386,o),
(470.881,476.386,cs),
(458.486,476.386,o),
(450.315,477.521,o),
(450.315,477.521,c),
(450.315,506.814,l),
(450.315,506.814,o),
(459.711,505.336,o),
(472.55,505.336,cs),
(500.216,505.336,o),
(544.13,514.894,o),
(544.13,551.841,cs),
(544.13,623.17,o),
(443.975,630.296,o),
(343,630.296,cs),
(240.359,630.296,o),
(136.872,619.17,o),
(136.872,551.841,cs),
(136.872,514.894,o),
(180.786,505.336,o),
(208.452,505.336,cs),
(221.291,505.336,o),
(230.687,506.814,o),
(230.687,506.814,c),
(230.687,477.521,l),
(230.687,477.521,o),
(222.516,476.386,o),
(210.121,476.386,cs),
(162.228,476.386,o),
(90.13,496.548,o),
(90.13,571.911,cs),
(90.13,666.47,o),
(215.979,713.582,o),
(341.911,713.582,cs)
);
},
{
ref = sinFa;
}
);
width = 666;
}
);
}
{
glyphname = sinGIi;
layers = (
{
layerId = m001;
shapes = (
{
closed = 1;
nodes = (
(605.949,509.957,o),
(551.983,477.978,o),
(507.199,477.978,cs),
(466.261,477.978,o),
(435.175,502.177,o),
(435.175,541.402,cs),
(435.175,594.077,o),
(488.983,610,o),
(488.983,610,c),
(519.983,598,l),
(519.983,598,o),
(464.983,593.449,o),
(464.983,544,cs),
(464.983,526.766,o),
(481.184,509,o),
(506.983,509,cs),
(531.802,509,o),
(558.983,522,o),
(558.983,550,cs),
(558.983,612,o),
(398.616,626,o),
(351.259,626,cs),
(294.544,626,o),
(147.983,607.976,o),
(147.983,551,cs),
(147.983,535.261,o),
(164.805,504.994,o),
(217.166,504.994,cs),
(224.687,504.994,o),
(232.94,505.618,o),
(241.983,507,c),
(241.983,478,l),
(235.474,477.603,o),
(229.268,477.412,o),
(223.352,477.412,cs),
(110.21,477.412,o),
(103,547.151,o),
(103,573.652,cs),
(103,662,o),
(252.945,718,o),
(353.983,718,cs),
(458.803,718,o),
(605.949,660,o),
(605.949,572.577,cs)
);
},
{
ref = sinGa;
}
);
width = 729;
}
);
}
{
glyphname = sinGhU;
layers = (
{
layerId = m001;
shapes = (
{
closed = 1;
nodes = (
(589,88,o),
(614,114,o),
(629,138,c),
(629,-198,l),
(234,-198,ls),
(234,-198,o),
(159,-194,o),
(159,-120,cs),
(159,-81,o),
(188,-39,o),
(242,-39,cs),
(277,-39,o),
(316,-72,o),
(316,-104,c),
(288,-111,l),
(288,-91,o),
(270,-72,o),
(241,-72,cs),
(218,-72,o),
(194,-89,o),
(194,-120,cs),
(194,-147,o),
(215,-159,o),
(239,-159,cs),
(282,-159,o),
(589,-159,o),
(589,-159,c),
(589,88,l)
);
},
{
ref = sinGha;
}
);
width = 691;
}
);
}
{
glyphname = sinGhUu;
layers = (
{
layerId = m001;
shapes = (
{
closed = 1;
nodes = (
(195.677,-140.54,o),
(215.896,-160.759,o),
(240.372,-160.759,cs),
(264.848,-160.759,o),
(285.067,-140.54,o),
(285.067,-116.064,cs),
(285.067,-91.588,o),
(264.848,-71.369,o),
(240.372,-71.369,cs),
(215.896,-71.369,o),
(195.677,-91.588,o),
(195.677,-116.064,cs)
);
},
{
closed = 1;
nodes = (
(628.115,-198,l),
(585.078,-198,l),
(525.757,-165,o),
(479.321,-154,o),
(439.883,-154,cs),
(361.006,-154,o),
(310.118,-198,o),
(240.115,-198,cs),
(194.115,-198,o),
(159.115,-167,o),
(159.115,-121,cs),
(159.115,-80.443,o),
(190.115,-39,o),
(238.115,-39,cs),
(284.707,-39,o),
(314.39,-75.04,o),
(314.39,-112.632,cs),
(314.39,-122.729,o),
(312.249,-132.937,o),
(307.719,-142.589,c),
(350.752,-121.616,o),
(395.397,-110.906,o),
(439,-110.906,cs),
(491.899,-110.906,o),
(543.262,-126.671,o),
(588.344,-159,c),
(588.344,90,l),
(613.115,112,o),
(626.512,133.396,o),
(628.115,138,c)
);
},
{
ref = sinGha;
}
);
width = 691;
}
);
}
{
glyphname = sinHIi;
layers = (
{
layerId = m001;
shapes = (
{
closed = 1;
nodes = (
(625.949,509.957,o),
(571.983,477.978,o),
(527.199,477.978,cs),
(486.261,477.978,o),
(455.175,502.177,o),
(455.175,541.402,cs),
(455.175,594.077,o),
(508.983,610,o),
(508.983,610,c),
(539.983,598,l),
(539.983,598,o),
(484.983,593.449,o),
(484.983,544,cs),
(484.983,526.766,o),
(501.184,509,o),
(526.983,509,cs),
(551.802,509,o),
(578.983,522,o),
(578.983,550,cs),
(578.983,612,o),
(418.616,626,o),
(371.259,626,cs),
(314.544,626,o),
(167.983,607.976,o),
(167.983,551,cs),
(167.983,535.261,o),
(184.805,504.994,o),
(237.166,504.994,cs),
(244.687,504.994,o),
(252.94,505.618,o),
(261.983,507,c),
(261.983,478,l),
(255.474,477.603,o),
(249.268,477.412,o),
(243.352,477.412,cs),
(130.21,477.412,o),
(123,547.151,o),
(123,573.652,cs),
(123,662,o),
(272.945,718,o),
(373.983,718,cs),
(478.803,718,o),
(625.949,660,o),
(625.949,572.577,cs)
);
},
{
pos = (40,0);
ref = sinHa;
}
);
width = 737;
}
);
}
{
glyphname = sinHUu;
layers = (
{
layerId = m001;
shapes = (
{
closed = 1;
nodes = (
(214.794,-140.54,o),
(235.014,-160.759,o),
(259.489,-160.759,cs),
(283.965,-160.759,o),
(304.185,-140.54,o),
(304.185,-116.064,cs),
(304.185,-91.588,o),
(283.965,-71.369,o),
(259.489,-71.369,cs),
(235.014,-71.369,o),
(214.794,-91.588,o),
(214.794,-116.064,cs)
);
},
{
closed = 1;
nodes = (
(647.232,-198,l),
(604.195,-198,l),
(544.874,-165,o),
(498.438,-154,o),
(459,-154,cs),
(380.123,-154,o),
(329.235,-198,o),
(259.232,-198,cs),
(213.232,-198,o),
(178.232,-167,o),
(178.232,-121,cs),
(178.232,-80.443,o),
(209.232,-39,o),
(257.232,-39,cs),
(303.824,-39,o),
(333.507,-75.04,o),
(333.507,-112.632,cs),
(333.507,-122.729,o),
(331.366,-132.937,o),
(326.836,-142.589,c),
(369.869,-121.616,o),
(414.515,-110.906,o),
(458.117,-110.906,cs),
(511.017,-110.906,o),
(562.379,-126.671,o),
(607.461,-159,c),
(607.461,90,l),
(632.232,112,o),
(645.629,133.396,o),
(647.232,138,c)
);
},
{
pos = (30,0);
ref = sinHa;
}
);
width = 721;
}
);
}
{
glyphname = sinJI;
layers = (
{
layerId = m001;
shapes = (
{
closed = 1;
nodes = (
(401.701,716.74,o),
(518.723,664.616,o),
(518.723,594.565,cs),
(518.723,536,o),
(496,524,o),
(458,514,c),
(458,536,l),
(473,546,o),
(479.46,555,o),
(479.46,577.706,cs),
(479.46,617.401,o),
(380.746,640,o),
(307,640,cs),
(232.413,640,o),
(134.757,622,o),
(134.757,580.791,cs),
(134.757,541,o),
(171.279,538.621,o),
(194.527,538.621,cs),
(205.381,538.621,o),
(213.342,539.884,o),
(213.342,539.884,c),
(213.342,515.277,l),
(213.342,515.277,o),
(206.479,514.324,o),
(196.067,514.324,cs),
(155.706,514.324,o),
(95.309,531.429,o),
(95.309,594.809,cs),
(95.309,664.66,o),
(212.352,716.74,o),
(307,716.74,cs)
);
},
{
ref = sinJa;
}
);
width = 609;
}
);
}
{
glyphname = sinJIi;
layers = (
{
layerId = m001;
shapes = (
{
closed = 1;
nodes = (
(514.577,543.545,o),
(469.11,516.562,o),
(431.38,516.562,cs),
(396.89,516.562,o),
(370.699,536.98,o),
(370.699,570.077,cs),
(370.699,614.521,o),
(416.033,627.956,o),
(416.033,627.956,c),
(442.15,617.831,l),
(442.15,617.831,o),
(395.813,613.991,o),
(395.813,572.269,cs),
(395.813,557.728,o),
(409.462,542.737,o),
(431.198,542.737,cs),
(452.107,542.737,o),
(475.008,553.706,o),
(475.008,577.331,cs),
(475.008,629.644,o),
(339.898,641.456,o),
(300,641.456,cs),
(252.218,641.456,o),
(128.74,626.248,o),
(128.74,578.175,cs),
(128.74,564.895,o),
(142.912,539.357,o),
(187.027,539.357,cs),
(193.363,539.357,o),
(200.316,539.884,o),
(207.936,541.05,c),
(207.936,516.581,l),
(202.451,516.246,o),
(197.223,516.085,o),
(192.238,516.085,cs),
(96.916,516.085,o),
(90.842,574.928,o),
(90.842,597.288,cs),
(90.842,671.831,o),
(217.171,719.081,o),
(302.296,719.081,cs),
(390.605,719.081,o),
(514.577,670.144,o),
(514.577,596.381,cs)
);
},
{
ref = sinJa;
}
);
width = 612;
}
);
}
{
glyphname = sinJR.virama;
layers = (
{
layerId = m001;
shapes = (
{
closed = 1;
nodes = (
(357.743,662.021,o),
(441.328,676.552,o),
(441.328,593.961,cs),
(441.328,541.243,o),
(401.011,531.709,o),
(371.845,531.709,cs),
(355.318,531.709,o),
(342.372,534.771,o),
(342.372,534.771,c),
(342.372,385,l),
(314,385,l),
(314,710.811,l),
(356.749,706.3,l)
);
},
{
closed = 1;
nodes = (
(405.377,576.774,o),
(411.531,585.864,o),
(411.531,600.473,cs),
(411.531,647.572,o),
(360.677,631.779,o),
(342.524,673.033,c),
(342.524,640.836,o),
(342.514,614.909,o),
(342.514,582.73,cs),
(342.514,579.223,o),
(343.936,561.336,o),
(370.161,561.336,cs),
(373.404,561.336,o),
(385.31,561.54,o),
(394.833,568.755,cs)
);
},
{
pos = (-1,0);
ref = sinJRa;
}
);
width = 606;
}
);
}
{
glyphname = sinJh.virama;
layers = (
{
layerId = m001;
shapes = (
{
closed = 1;
nodes = (
(685.749,391.961,o),
(692.929,376.694,o),
(700.108,361.522,c),
(698.263,361.828,o),
(688.871,363.328,o),
(675.262,363.328,cs),
(600.22,363.328,o),
(527.857,291.392,o),
(527.857,214.489,cs),
(527.857,125.859,o),
(586.267,82.964,o),
(648.925,82.964,cs),
(703.346,82.964,o),
(755.563,117.396,o),
(755.563,183.472,c),
(793.259,183.472,l),
(793.259,124.336,o),
(827.398,84.988,o),
(900.315,84.988,cs),
(989.643,84.988,o),
(1053.79,176.216,o),
(1053.79,256.765,cs),
(1053.79,408.942,o),
(950.105,548.236,o),
(784.686,548.236,cs),
(736.225,548.236,o),
(678.009,539.209,o),
(628.086,518.536,c),
(622.608,529.128,o),
(623.664,527.744,o),
(618.186,538.336,c),
(669.849,565.863,o),
(726.749,576.04,o),
(780.599,576.04,cs),
(961.789,576.04,o),
(1094.95,428.8,o),
(1094.95,242.271,cs),
(1094.95,122.734,o),
(1035.75,0.464,o),
(912.118,0.464,cs),
(826.229,0.464,o),
(792.201,49.327,o),
(773.23,85.574,c),
(769.531,78.744,o),
(723.994,0.181,o),
(642.166,0.181,cs),
(522.871,0.181,o),
(475,120.384,o),
(475,198.774,cs),
(475,369.246,o),
(614.979,404.563,o),
(678.568,407.132,c)
);
},
{
closed = 1;
nodes = (
(604.391,625.723,l),
(660.46,654.8,o),
(715.561,668.544,o),
(767.085,668.544,cs),
(903.593,668.544,o),
(1015.01,572.081,o),
(1052.91,408.736,c),
(1036.71,412.336,l),
(975.636,553.909,o),
(884.063,638.759,o),
(767.564,638.759,cs),
(732.98,638.759,o),
(696.2,631.28,o),
(657.368,615.59,c),
(715.382,564.438,l),
(705.765,561.451,o),
(686.2,555.483,o),
(686.2,555.483,c)
);
},
{
closed = 1;
nodes = (
(217.586,311.096,o),
(258.499,331.266,o),
(308.463,331.266,cs),
(371.374,331.266,o),
(506.729,320.144,o),
(506.729,158.203,cs),
(506.729,62.387,o),
(444.341,0.124,o),
(377.464,0.124,cs),
(301.371,0.124,o),
(281.104,79.974,o),
(281.104,79.974,c),
(281.104,79.974,o),
(266.6,0.124,o),
(191.469,0.124,cs),
(138.807,0.124,o),
(120.186,39.264,o),
(92.919,39.264,cs),
(81.239,39.264,o),
(67.974,32.083,o),
(49.765,11.568,c),
(32.206,20.655,l),
(67.811,153.591,o),
(75.357,201.627,o),
(183.85,340.249,c),
(184.896,347.179,o),
(186.137,353.967,o),
(186.137,360.505,cs),
(186.137,395.292,o),
(177.541,423.335,o),
(145.324,423.335,cs),
(130.818,423.335,o),
(100.807,410.78,o),
(100.807,363.109,cs),
(100.807,323.637,o),
(69.837,321.888,o),
(59.413,321.888,cs),
(35.397,321.888,o),
(22.621,341.276,o),
(22.621,365.451,cs),
(22.621,405.471,o),
(57.633,458.605,o),
(134.618,458.605,cs),
(173.553,458.605,o),
(211.221,432.488,o),
(214,362,c),
(276,422.5,o),
(343.483,464.939,o),
(442.813,464.939,cs),
(517.682,464.939,o),
(600.102,445.247,o),
(678.568,406.992,c),
(678.568,406.992,o),
(613,370,o),
(606,351,c),
(563,386,o),
(502.619,399,o),
(442,399,cs),
(343.979,399,o),
(239.9,357.867,o),
(197.323,298.731,c)
);
},
{
closed = 1;
nodes = (
(151.593,292.096,o),
(90.24,156.091,o),
(82.964,77.266,c),
(90.067,80.772,o),
(101.396,85.036,o),
(114.786,85.036,cs),
(139.139,85.036,o),
(149.455,70.615,o),
(173.815,70.615,cs),
(243.487,70.615,o),
(270,140.18,o),
(270,182,cs),
(270,197,o),
(270,197,o),
(270,197,c),
(296,197,l),
(296,197,o),
(296,195.255,o),
(296,182,cs),
(296,140.103,o),
(320.193,71.853,o),
(384.62,71.853,cs),
(432.267,71.853,o),
(465,124.723,o),
(465,170.361,cs),
(465,261.717,o),
(389.237,292.096,o),
(311.859,292.096,cs)
);
}
);
width = 1122;
}
);
}
{
glyphname = sinJhI;
layers = (
{
layerId = m001;
shapes = (
{
closed = 1;
nodes = (
(217.586,311.096,o),
(258.499,331.266,o),
(308.463,331.266,cs),
(371.374,331.266,o),
(506.729,320.144,o),
(506.729,158.203,cs),
(506.729,62.387,o),
(444.341,0.124,o),
(377.464,0.124,cs),
(301.371,0.124,o),
(281.104,79.974,o),
(281.104,79.974,c),
(281.104,79.974,o),
(266.6,0.124,o),
(191.469,0.124,cs),
(138.807,0.124,o),
(120.186,39.264,o),
(92.919,39.264,cs),
(81.239,39.264,o),
(67.974,32.083,o),
(49.765,11.568,c),
(32.206,20.655,l),
(67.811,153.591,o),
(75.357,201.627,o),
(183.85,340.249,c),
(184.896,347.179,o),
(186.137,353.967,o),
(186.137,360.505,cs),
(186.137,395.292,o),
(177.541,423.335,o),
(145.324,423.335,cs),
(130.818,423.335,o),
(100.807,410.78,o),
(100.807,363.109,cs),
(100.807,323.637,o),
(69.837,321.888,o),
(59.413,321.888,cs),
(35.397,321.888,o),
(22.621,341.276,o),
(22.621,365.451,cs),
(22.621,405.471,o),
(57.633,458.605,o),
(134.618,458.605,cs),
(173.553,458.605,o),
(211.221,432.488,o),
(214,362,c),
(276,422.5,o),
(343.483,464.939,o),
(442.813,464.939,cs),
(517.682,464.939,o),
(600.102,445.247,o),
(678.568,406.992,c),
(678.568,406.992,o),
(613,370,o),
(606,351,c),
(563,386,o),
(502.619,399,o),
(442,399,cs),
(343.979,399,o),
(239.9,357.867,o),
(197.323,298.731,c)
);
},
{
closed = 1;
nodes = (
(151.593,292.096,o),
(90.24,156.091,o),
(82.964,77.266,c),
(90.067,80.772,o),
(101.396,85.036,o),
(114.786,85.036,cs),
(139.139,85.036,o),
(149.455,70.615,o),
(173.815,70.615,cs),
(243.487,70.615,o),
(270,140.18,o),
(270,182,cs),
(270,197,o),
(270,197,o),
(270,197,c),
(296,197,l),
(296,197,o),
(296,195.255,o),
(296,182,cs),
(296,140.103,o),
(320.193,71.853,o),
(384.62,71.853,cs),
(432.267,71.853,o),
(465,124.723,o),
(465,170.361,cs),
(465,261.717,o),
(389.237,292.096,o),
(311.859,292.096,cs)
);
},
{
closed = 1;
nodes = (
(1084.1,159.935,o),
(1020.47,0,o),
(911.474,0,cs),
(825.585,0,o),
(787.474,48,o),
(768.474,74,c),
(764.774,67.17,o),
(747.566,0,o),
(647.474,0,cs),
(528.179,0,o),
(474.215,120.912,o),
(474.215,199.302,cs),
(474.215,369.774,o),
(614.194,405.091,o),
(677.783,407.659,c),
(684.964,392.488,o),
(692.144,377.222,o),
(699.323,362.05,c),
(697.478,362.356,o),
(688.086,363.856,o),
(674.477,363.856,cs),
(599.435,363.856,o),
(527.072,291.92,o),
(527.072,215.017,cs),
(527.072,126.388,o),
(583.815,84.41,o),
(646.474,84.41,cs),
(700.895,84.41,o),
(754.778,128,o),
(754.778,189,c),
(792.474,189,l),
(792.474,129.864,o),
(834.474,84.41,o),
(898.474,84.41,cs),
(987.801,84.41,o),
(1034,193,o),
(1034,282.292,cs),
(1034,459.446,o),
(854.065,523.844,o),
(780.276,523.844,cs),
(718.221,523.844,o),
(676.924,501.269,o),
(644.688,501.269,cs),
(603.969,501.269,o),
(586.35,542.594,o),
(586.35,579.907,cs),
(586.35,704.32,o),
(758.054,718.188,o),
(808.903,718.188,cs),
(887.236,718.188,o),
(1042.78,692,o),
(1042.78,561.353,cs),
(1042.78,515.498,o),
(1008.47,492,o),
(991.899,482.491,c),
(991.899,482.491,o),
(1084.1,430.446,o),
(1084.1,279.472,cs)
);
},
{
closed = 1;
nodes = (
(999.55,529.141,o),
(1005.98,549.114,o),
(1005.98,562.226,cs),
(1005.98,620.461,o),
(877.27,645.935,o),
(799.081,645.935,cs),
(729.703,645.935,o),
(617.984,628.899,o),
(617.984,571.172,cs),
(617.984,552.618,o),
(628.744,535.791,o),
(648.71,535.791,cs),
(685.189,535.791,o),
(738.78,559.793,o),
(798.742,559.793,cs),
(861.134,559.793,o),
(934.733,530.13,o),
(967.841,502.54,c)
);
},
{
closed = 0;
nodes = (
(506.729,158.203,ls)
);
},
{
closed = 0;
nodes = (
(465,170.361,ls)
);
}
);
width = 1122;
}
);
}
{
glyphname = sinJhIi;
layers = (
{
layerId = m001;
shapes = (
{
closed = 1;
nodes = (
(217.586,311.096,o),
(258.499,331.266,o),
(308.463,331.266,cs),
(371.374,331.266,o),
(506.729,320.144,o),
(506.729,158.203,cs),
(506.729,62.387,o),
(444.341,0.124,o),
(377.464,0.124,cs),
(301.371,0.124,o),
(281.104,79.974,o),
(281.104,79.974,c),
(281.104,79.974,o),
(266.6,0.124,o),
(191.469,0.124,cs),
(138.807,0.124,o),
(120.186,39.264,o),
(92.919,39.264,cs),
(81.239,39.264,o),
(67.974,32.083,o),
(49.765,11.568,c),
(32.206,20.655,l),
(67.811,153.591,o),
(75.357,201.627,o),
(183.85,340.249,c),
(184.896,347.179,o),
(186.137,353.967,o),
(186.137,360.505,cs),
(186.137,395.292,o),
(177.541,423.335,o),
(145.324,423.335,cs),
(130.818,423.335,o),
(100.807,410.78,o),
(100.807,363.109,cs),
(100.807,323.637,o),
(69.837,321.888,o),
(59.413,321.888,cs),
(35.397,321.888,o),
(22.621,341.276,o),
(22.621,365.451,cs),
(22.621,405.471,o),
(57.633,458.605,o),
(134.618,458.605,cs),
(173.553,458.605,o),
(211.221,432.488,o),
(214,362,c),
(276,422.5,o),
(343.483,464.939,o),
(442.813,464.939,cs),
(517.682,464.939,o),
(600.102,445.247,o),
(678.568,406.992,c),
(678.568,406.992,o),
(613,370,o),
(606,351,c),
(563,386,o),
(502.619,399,o),
(442,399,cs),
(343.979,399,o),
(239.9,357.867,o),
(197.323,298.731,c)
);
},
{
closed = 1;
nodes = (
(151.593,292.096,o),
(90.24,156.091,o),
(82.964,77.266,c),
(90.067,80.772,o),
(101.396,85.036,o),
(114.786,85.036,cs),
(139.139,85.036,o),
(149.455,70.615,o),
(173.815,70.615,cs),
(243.487,70.615,o),
(270,140.18,o),
(270,182,cs),
(270,197,o),
(270,197,o),
(270,197,c),
(296,197,l),
(296,197,o),
(296,195.255,o),
(296,182,cs),
(296,140.103,o),
(320.193,71.853,o),
(384.62,71.853,cs),
(432.267,71.853,o),
(465,124.723,o),
(465,170.361,cs),
(465,261.717,o),
(389.237,292.096,o),
(311.859,292.096,cs)
);
},
{
closed = 1;
nodes = (
(1037,466,o),
(874,526.081,o),
(773,526.081,cs),
(724.81,526.081,o),
(682.424,504.081,o),
(647,504.081,cs),
(615.396,504.081,o),
(588,522.012,o),
(588,582.081,cs),
(588,676.081,o),
(692.648,720.081,o),
(810,720.081,cs),
(903.889,720.081,o),
(1054.73,678.641,o),
(1054.73,569.136,cs),
(1054.73,524.667,o),
(1032.03,494.039,o),
(993,485.081,c),
(1055,438.081,o),
(1083,360,o),
(1083,258,cs),
(1083,138.604,o),
(1022.14,0.324,o),
(912.19,0.324,cs),
(912.062,0.324,o),
(911.932,0.325,o),
(911.803,0.325,cs),
(825.914,0.579,o),
(794.971,37.753,o),
(776,74,c),
(772.302,67.172,o),
(742.019,0.042,o),
(641.944,0.042,cs),
(641.913,0.042,o),
(641.882,0.042,o),
(641.851,0.042,cs),
(522.556,0.092,o),
(474.685,120.245,o),
(474.685,198.635,cs),
(474.685,369.107,o),
(614.664,404.424,o),
(678.253,406.992,c),
(685.434,391.821,o),
(692.613,376.555,o),
(699.793,361.383,c),
(697.947,361.689,o),
(688.556,363.189,o),
(674.946,363.189,cs),
(599.904,363.189,o),
(527.542,291.253,o),
(527.542,214.35,cs),
(527.542,125.721,o),
(585.951,82.824,o),
(648.609,82.824,cs),
(703.03,82.824,o),
(760.305,123.924,o),
(760.305,190,c),
(798,190,l),
(798,130.864,o),
(827.083,84.85,o),
(900,84.85,cs),
(1000,84.85,o),
(1037,184.451,o),
(1037,265,cs)
);
},
{
closed = 1;
nodes = (
(924.344,538.766,o),
(948.46,521.122,o),
(973.115,521.122,cs),
(999.668,521.122,o),
(1018.81,543.629,o),
(1018.81,567.857,cs),
(1018.81,595.37,o),
(994.996,609.462,o),
(970.937,609.462,cs),
(945.928,609.462,o),
(924.344,593.778,o),
(924.344,567.085,cs)
);
},
{
closed = 1;
nodes = (
(817.449,561.081,o),
(859.439,556.704,o),
(891,546.081,c),
(888.79,553.05,o),
(887.823,559.759,o),
(887.823,566.13,cs),
(887.823,597.237,o),
(910.89,623.271,o),
(925,629.081,c),
(925,629.081,o),
(842.833,648.081,o),
(804,648.081,cs),
(732,648.081,o),
(619,639.989,o),
(619,570.081,cs),
(619,557.77,o),
(627,540.081,o),
(651,540.081,cs),
(689.053,540.081,o),
(749,561.081,o),
(782,561.081,cs)
);
}
);
width = 1122;
}
);
}
{
glyphname = sinJhU;
layers = (
{
layerId = m001;
shapes = (
{
closed = 1;
nodes = (
(1074,88,o),
(1099,114,o),
(1114,138,c),
(1114,-198,l),
(719,-198,ls),
(719,-198,o),
(644,-194,o),
(644,-120,cs),
(644,-81,o),
(673,-39,o),
(727,-39,cs),
(762,-39,o),
(801,-72,o),
(801,-104,c),
(773,-111,l),
(773,-91,o),
(755,-72,o),
(726,-72,cs),
(703,-72,o),
(679,-89,o),
(679,-120,cs),
(679,-147,o),
(700,-159,o),
(724,-159,cs),
(767,-159,o),
(1074,-159,o),
(1074,-159,c),
(1074,88,l)
);
},
{
ref = sinJha;
}
);
width = 1198;
}
);
}
{
glyphname = sinJnyRa;
layers = (
{
layerId = m001;
shapes = (
{
closed = 1;
nodes = (
(835.326,99.503,o),
(846.731,111.857,o),
(858,124.211,c),
(844.541,-71.24,o),
(791.656,-203.389,o),
(615,-203.389,cs),
(467.733,-203.389,o),
(409.267,-120.828,o),
(388.199,-75.589,c),
(388.199,-41.648,l),
(433.799,-97.867,o),
(486.224,-145.822,o),
(624.823,-145.822,cs),
(795.221,-145.822,o),
(817.725,31.109,o),
(824.059,87.147,c)
);
},
{
closed = 1;
nodes = (
(802.047,358.538,o),
(767.408,422.781,o),
(708,422.781,cs),
(648.594,422.781,o),
(642.28,355.115,o),
(600.665,355.115,cs),
(577.505,355.115,o),
(562.655,373.378,o),
(562.655,388.336,cs),
(562.655,408.903,o),
(566.014,464.265,o),
(699.745,464.265,cs),
(843.797,464.265,o),
(846.761,307.809,o),
(846.761,294.935,cs),
(846.761,294.384,o),
(846.755,294.095,o),
(846.755,294.095,c),
(846.755,294.095,o),
(632.08,294.095,o),
(567.638,294.095,cs),
(503.194,294.095,o),
(493.327,201.663,o),
(493.327,193.404,cs),
(493.327,159.799,o),
(498.316,58.881,o),
(672.558,58.881,cs),
(821.938,58.881,o),
(838.124,159.703,o),
(838.124,203.402,cs),
(838.124,215.493,o),
(836.885,223.21,o),
(836.885,223.21,c),
(869.427,223.21,l),
(870.341,214.101,o),
(870.784,205.286,o),
(870.784,196.765,cs),
(870.784,62.797,o),
(761.197,1,o),
(648.232,1,cs),
(528.084,1,o),
(404.114,70.907,o),
(404.114,198.239,cs),
(404.114,325.512,o),
(511.205,333.77,o),
(602.274,333.77,cs),
(680.726,333.77,o),
(802.047,333.77,o),
(802.047,333.77,c)
);
},
{
closed = 1;
nodes = (
(103.993,439.671,o),
(65.349,331.66,o),
(65.349,258.907,cs),
(65.349,172.073,o),
(118.108,87.51,o),
(200.611,56.483,c),
(201.479,20.77,l),
(93.642,47.991,o),
(26.404,159.534,o),
(26.404,262.857,cs),
(26.404,350.043,o),
(75.036,466.626,o),
(176.033,466.626,c),
(175.419,439.671,l)
);
},
{
closed = 1;
nodes = (
(684,440,l),
(673.791,440.457,o),
(663.876,440.678,o),
(654.246,440.678,cs),
(411.071,440.678,o),
(349.946,299.78,o),
(344.983,262.571,c),
(348.37,262.988,o),
(351.948,263.246,o),
(355.664,263.246,cs),
(428.41,263.246,o),
(443.735,188.813,o),
(443.735,144.572,cs),
(443.735,66.827,o),
(385.398,-0.162,o),
(284.396,-0.162,cs),
(197.056,-0.162,o),
(104.741,67.57,o),
(104.741,183.511,cs),
(104.741,264.612,o),
(181.196,342.185,o),
(266.138,342.185,c),
(266.138,375.001,o),
(246.714,425.334,o),
(208.074,425.334,cs),
(184.192,425.334,o),
(188.825,374.785,o),
(143.805,374.785,cs),
(119.553,374.785,o),
(106.469,392.007,o),
(106.469,415.47,cs),
(106.469,444.337,o),
(138.811,466.626,o),
(176.033,466.626,cs),
(262.398,466.626,o),
(299.624,395.272,o),
(299.624,331.236,cs),
(299.624,317.209,o),
(298.28,307.723,o),
(298.089,306.375,cs),
(291.766,307.127,o),
(285.522,307.487,o),
(279.384,307.487,cs),
(212.305,307.487,o),
(152.638,265.72,o),
(152.638,199.973,cs),
(152.638,126.622,o),
(224.557,92.251,o),
(277.73,92.251,cs),
(336.001,92.251,o),
(394.441,108.801,o),
(394.441,174.382,cs),
(394.441,202.204,o),
(383.022,232.231,o),
(353.488,232.231,cs),
(329.479,232.231,o),
(329.244,215.667,o),
(329.244,212.932,cs),
(329.244,212.877,o),
(329.244,212.828,o),
(329.244,212.785,c),
(298.545,212.785,l),
(298.545,212.785,o),
(298.431,214.597,o),
(298.431,217.915,cs),
(298.431,281.396,o),
(329.74,465.043,o),
(635.307,465.043,cs),
(650.82,465.043,o),
(667.041,464.569,o),
(684,463.583,c)
);
}
);
width = 901;
}
);
}
{
glyphname = sinJnyU;
layers = (
{
layerId = m001;
shapes = (
{
closed = 1;
nodes = (
(827.632,152,o),
(854.44,161.641,o),
(867.44,189.751,c),
(867.44,-205,l),
(472.572,-205,ls),
(472.572,-205,o),
(397.923,-201,o),
(397.923,-127,cs),
(397.923,-88.152,o),
(426.623,-46,o),
(480.44,-46,cs),
(515.44,-46,o),
(554.44,-79,o),
(554.44,-111,c),
(526.44,-118,l),
(526.44,-98,o),
(508.44,-79,o),
(479.44,-79,cs),
(456.494,-79,o),
(432.44,-96.003,o),
(432.44,-127,cs),
(432.44,-154,o),
(453.964,-165.887,o),
(477.515,-165.887,cs),
(520.304,-165.887,o),
(827.632,-165.887,o),
(827.632,-165.887,c),
(827.632,152,l)
);
},
{
closed = 1;
nodes = (
(799.047,359.538,o),
(764.408,423.781,o),
(705,423.781,cs),
(645.594,423.781,o),
(639.28,356.115,o),
(597.665,356.115,cs),
(574.505,356.115,o),
(559.655,374.378,o),
(559.655,389.336,cs),
(559.655,409.903,o),
(563.014,465.265,o),
(696.745,465.265,cs),
(840.797,465.265,o),
(843.761,308.809,o),
(843.761,295.935,cs),
(843.761,295.384,o),
(843.755,295.095,o),
(843.755,295.095,c),
(843.755,295.095,o),
(629.08,295.095,o),
(564.638,295.095,cs),
(500.194,295.095,o),
(490.327,202.663,o),
(490.327,194.404,cs),
(490.327,160.799,o),
(495.316,59.881,o),
(669.558,59.881,cs),
(818.938,59.881,o),
(835.124,160.703,o),
(835.124,204.402,cs),
(835.124,216.493,o),
(833.885,224.21,o),
(833.885,224.21,c),
(866.427,224.21,l),
(867.341,215.101,o),
(867.784,206.286,o),
(867.784,197.765,cs),
(867.784,63.797,o),
(758.197,2,o),
(645.232,2,cs),
(525.084,2,o),
(401.114,71.907,o),
(401.114,199.239,cs),
(401.114,326.512,o),
(508.205,334.77,o),
(599.274,334.77,cs),
(677.726,334.77,o),
(799.047,334.77,o),
(799.047,334.77,c)
);
},
{
closed = 1;
nodes = (
(103.993,439.671,o),
(65.349,331.66,o),
(65.349,258.907,cs),
(65.349,172.073,o),
(118.108,87.51,o),
(200.611,56.483,c),
(201.479,20.77,l),
(93.642,47.991,o),
(26.404,159.534,o),
(26.404,262.857,cs),
(26.404,350.043,o),
(75.036,466.626,o),
(176.033,466.626,c),
(175.419,439.671,l)
);
},
{
closed = 1;
nodes = (
(684,440,l),
(673.791,440.457,o),
(663.876,440.678,o),
(654.246,440.678,cs),
(411.071,440.678,o),
(349.946,299.78,o),
(344.983,262.571,c),
(348.37,262.988,o),
(351.948,263.246,o),
(355.664,263.246,cs),
(428.41,263.246,o),
(443.735,188.813,o),
(443.735,144.572,cs),
(443.735,66.827,o),
(385.398,-0.162,o),
(284.396,-0.162,cs),
(197.056,-0.162,o),
(104.741,67.57,o),
(104.741,183.511,cs),
(104.741,264.612,o),
(181.196,342.185,o),
(266.138,342.185,c),
(266.138,375.001,o),
(246.714,425.334,o),
(208.074,425.334,cs),
(184.192,425.334,o),
(188.825,374.785,o),
(143.805,374.785,cs),
(119.553,374.785,o),
(106.469,392.007,o),
(106.469,415.47,cs),
(106.469,444.337,o),
(138.811,466.626,o),
(176.033,466.626,cs),
(262.398,466.626,o),
(299.624,395.272,o),
(299.624,331.236,cs),
(299.624,317.209,o),
(298.28,307.723,o),
(298.089,306.375,cs),
(291.766,307.127,o),
(285.522,307.487,o),
(279.384,307.487,cs),
(212.305,307.487,o),
(152.638,265.72,o),
(152.638,199.973,cs),
(152.638,126.622,o),
(224.557,92.251,o),
(277.73,92.251,cs),
(336.001,92.251,o),
(394.441,108.801,o),
(394.441,174.382,cs),
(394.441,202.204,o),
(383.022,232.231,o),
(353.488,232.231,cs),
(329.479,232.231,o),
(329.244,215.667,o),
(329.244,212.932,cs),
(329.244,212.877,o),
(329.244,212.828,o),
(329.244,212.785,c),
(298.545,212.785,l),
(298.545,212.785,o),
(298.431,214.597,o),
(298.431,217.915,cs),
(298.431,281.396,o),
(329.74,465.043,o),
(635.307,465.043,cs),
(650.82,465.043,o),
(667.041,464.569,o),
(684,463.583,c)
);
}
);
width = 901;
}
);
}
{
glyphname = sinJnyUu;
layers = (
{
layerId = m001;
shapes = (
{
closed = 1;
nodes = (
(436.597,-148.54,o),
(456.816,-168.759,o),
(481.292,-168.759,cs),
(505.768,-168.759,o),
(525.987,-148.54,o),
(525.987,-124.064,cs),
(525.987,-99.588,o),
(505.768,-79.369,o),
(481.292,-79.369,cs),
(456.816,-79.369,o),
(436.597,-99.588,o),
(436.597,-124.064,cs)
);
},
{
closed = 1;
nodes = (
(869.035,-206,l),
(825.998,-206,l),
(766.677,-173,o),
(720.241,-162,o),
(680.803,-162,cs),
(601.926,-162,o),
(551.038,-206,o),
(481.035,-206,cs),
(435.035,-206,o),
(400.035,-175,o),
(400.035,-129,cs),
(400.035,-88.443,o),
(431.035,-47,o),
(479.035,-47,cs),
(525.627,-47,o),
(555.31,-83.04,o),
(555.31,-120.632,cs),
(555.31,-130.729,o),
(553.169,-140.937,o),
(548.639,-150.589,c),
(591.672,-129.616,o),
(636.317,-118.906,o),
(679.92,-118.906,cs),
(732.819,-118.906,o),
(792.182,-134.671,o),
(837.264,-167,c),
(837.264,185,l),
(869.035,199,o),
(867.432,213.396,o),
(869.035,218,c)
);
},
{
closed = 1;
nodes = (
(801.409,358.538,o),
(766.771,422.781,o),
(707.362,422.781,cs),
(647.956,422.781,o),
(641.643,355.115,o),
(600.027,355.115,cs),
(576.867,355.115,o),
(562.018,373.378,o),
(562.018,388.336,cs),
(562.018,408.903,o),
(565.376,464.265,o),
(699.107,464.265,cs),
(843.159,464.265,o),
(846.123,307.809,o),
(846.123,294.935,cs),
(846.123,294.384,o),
(846.117,294.095,o),
(846.117,294.095,c),
(846.117,294.095,o),
(631.442,294.095,o),
(567,294.095,cs),
(502.557,294.095,o),
(492.689,201.663,o),
(492.689,193.404,cs),
(492.689,159.799,o),
(497.679,58.881,o),
(671.92,58.881,cs),
(821.3,58.881,o),
(837.486,159.703,o),
(837.486,203.402,cs),
(837.486,215.493,o),
(836.247,223.21,o),
(836.247,223.21,c),
(868.789,223.21,l),
(869.703,214.101,o),
(870.146,205.286,o),
(870.146,196.765,cs),
(870.146,62.797,o),
(760.56,1,o),
(647.595,1,cs),
(527.446,1,o),
(403.477,70.907,o),
(403.477,198.239,cs),
(403.477,325.512,o),
(510.567,333.77,o),
(601.637,333.77,cs),
(680.088,333.77,o),
(801.409,333.77,o),
(801.409,333.77,c)
);
},
{
closed = 1;
nodes = (
(103.993,439.671,o),
(65.349,331.66,o),
(65.349,258.907,cs),
(65.349,172.073,o),
(118.108,87.51,o),
(200.611,56.483,c),
(201.479,20.77,l),
(93.642,47.991,o),
(26.404,159.534,o),
(26.404,262.857,cs),
(26.404,350.043,o),
(75.036,466.626,o),
(176.033,466.626,c),
(175.419,439.671,l)
);
},
{
closed = 1;
nodes = (
(684,440,l),
(673.791,440.457,o),
(663.876,440.678,o),
(654.246,440.678,cs),
(411.071,440.678,o),
(349.946,299.78,o),
(344.983,262.571,c),
(348.37,262.988,o),
(351.948,263.246,o),
(355.664,263.246,cs),
(428.41,263.246,o),
(443.735,188.813,o),
(443.735,144.572,cs),
(443.735,66.827,o),
(385.398,-0.162,o),
(284.396,-0.162,cs),
(197.056,-0.162,o),
(104.741,67.57,o),
(104.741,183.511,cs),
(104.741,264.612,o),
(181.196,342.185,o),
(266.138,342.185,c),
(266.138,375.001,o),
(246.714,425.334,o),
(208.074,425.334,cs),
(184.192,425.334,o),
(188.825,374.785,o),
(143.805,374.785,cs),
(119.553,374.785,o),
(106.469,392.007,o),
(106.469,415.47,cs),
(106.469,444.337,o),
(138.811,466.626,o),
(176.033,466.626,cs),
(262.398,466.626,o),
(299.624,395.272,o),
(299.624,331.236,cs),
(299.624,317.209,o),
(298.28,307.723,o),
(298.089,306.375,cs),
(291.766,307.127,o),
(285.522,307.487,o),
(279.384,307.487,cs),
(212.305,307.487,o),
(152.638,265.72,o),
(152.638,199.973,cs),
(152.638,126.622,o),
(224.557,92.251,o),
(277.73,92.251,cs),
(336.001,92.251,o),
(394.441,108.801,o),
(394.441,174.382,cs),
(394.441,202.204,o),
(383.022,232.231,o),
(353.488,232.231,cs),
(329.479,232.231,o),
(329.244,215.667,o),
(329.244,212.932,cs),
(329.244,212.877,o),
(329.244,212.828,o),
(329.244,212.785,c),
(298.545,212.785,l),
(298.545,212.785,o),
(298.431,214.597,o),
(298.431,217.915,cs),
(298.431,281.396,o),
(329.74,465.043,o),
(635.307,465.043,cs),
(650.82,465.043,o),
(667.041,464.569,o),
(684,463.583,c)
);
}
);
width = 901;
}
);
}
{
glyphname = sinKSsa;
layers = (
{
layerId = m001;
shapes = (
{
closed = 1;
nodes = (
(256.117,310.972,o),
(297.03,331.142,o),
(346.994,331.142,cs),
(409.905,331.142,o),
(545.26,320.02,o),
(545.26,158.079,cs),
(545.26,62.263,o),
(482.872,0,o),
(415.995,0,cs),
(339.902,0,o),
(319.635,79.85,o),
(319.635,79.85,c),
(319.635,79.85,o),
(305.131,0,o),
(230,0,cs),
(177.338,0,o),
(158.717,39.14,o),
(131.45,39.14,cs),
(119.771,39.14,o),
(106.505,31.959,o),
(88.296,11.444,c),
(70.737,20.531,l),
(106.342,153.467,o),
(113.889,201.503,o),
(222.381,340.125,c),
(223.428,347.055,o),
(224.668,353.843,o),
(224.668,360.381,cs),
(224.668,395.168,o),
(216.072,423.211,o),
(183.855,423.211,cs),
(169.35,423.211,o),
(139.338,410.656,o),
(139.338,362.985,cs),
(139.338,323.513,o),
(108.368,321.764,o),
(97.944,321.764,cs),
(73.928,321.764,o),
(61.152,341.152,o),
(61.152,365.327,cs),
(61.152,405.347,o),
(96.164,458.481,o),
(173.149,458.481,cs),
(212.084,458.481,o),
(249.752,432.364,o),
(252.531,361.876,c),
(314.531,422.376,o),
(382.015,464.814,o),
(481.344,464.814,cs),
(529.003,464.814,o),
(579.721,456.835,o),
(630.531,441.168,c),
(595.531,379.215,l),
(560.608,393.19,o),
(520.622,398.876,o),
(480.531,398.876,cs),
(382.511,398.876,o),
(278.432,357.743,o),
(235.854,298.607,c)
);
},
{
closed = 1;
nodes = (
(190.124,291.972,o),
(128.771,155.967,o),
(121.495,77.142,c),
(128.599,80.647,o),
(139.927,84.912,o),
(153.317,84.912,cs),
(177.67,84.912,o),
(187.986,70.491,o),
(212.347,70.491,cs),
(282.019,70.491,o),
(308.531,140.056,o),
(308.531,181.876,cs),
(308.531,196.876,o),
(308.531,196.876,o),
(308.531,196.876,c),
(334.531,196.876,l),
(334.531,196.876,o),
(334.531,195.131,o),
(334.531,181.876,cs),
(334.531,139.979,o),
(358.725,71.73,o),
(423.151,71.73,cs),
(470.798,71.73,o),
(503.531,124.599,o),
(503.531,170.237,cs),
(503.531,261.593,o),
(427.769,291.972,o),
(350.391,291.972,cs)
);
},
{
pos = (474.531,-0.124);
ref = sinSsa;
}
);
width = 1075;
}
);
}
{
glyphname = sinKV.virama;
layers = (
{
layerId = m001;
shapes = (
{
closed = 1;
nodes = (
(272.586,311.096,o),
(313.499,331.266,o),
(363.463,331.266,cs),
(426.374,331.266,o),
(561.729,320.144,o),
(561.729,158.203,cs),
(561.729,62.387,o),
(499.341,0.124,o),
(432.464,0.124,cs),
(356.371,0.124,o),
(336.104,79.974,o),
(336.104,79.974,c),
(336.104,79.974,o),
(321.6,0.124,o),
(246.469,0.124,cs),
(193.807,0.124,o),
(175.186,39.264,o),
(147.919,39.264,cs),
(136.239,39.264,o),
(122.974,32.083,o),
(104.765,11.568,c),
(87.206,20.655,l),
(122.811,153.591,o),
(130.357,201.627,o),
(238.85,340.249,c),
(239.896,347.179,o),
(241.137,353.967,o),
(241.137,360.505,cs),
(241.137,395.292,o),
(232.541,423.335,o),
(200.324,423.335,cs),
(185.818,423.335,o),
(155.807,410.78,o),
(155.807,363.109,cs),
(155.807,323.637,o),
(124.837,321.888,o),
(114.413,321.888,cs),
(90.397,321.888,o),
(77.621,341.276,o),
(77.621,365.451,cs),
(77.621,405.471,o),
(112.633,458.605,o),
(189.618,458.605,cs),
(228.553,458.605,o),
(266.221,432.488,o),
(269,362,c),
(331,422.5,o),
(398.483,464.938,o),
(497.812,464.938,cs),
(545.472,464.938,o),
(596.189,456.959,o),
(647,441.292,c),
(612,379.339,l),
(577.077,393.314,o),
(537.091,399,o),
(497,399,cs),
(398.979,399,o),
(294.9,357.867,o),
(252.323,298.731,c)
);
},
{
closed = 1;
nodes = (
(206.593,292.096,o),
(145.24,156.091,o),
(137.964,77.266,c),
(145.067,80.772,o),
(156.396,85.036,o),
(169.786,85.036,cs),
(194.139,85.036,o),
(204.455,70.615,o),
(228.815,70.615,cs),
(298.487,70.615,o),
(325,140.18,o),
(325,182,cs),
(325,197,o),
(325,197,o),
(325,197,c),
(351,197,l),
(351,197,o),
(351,195.255,o),
(351,182,cs),
(351,140.103,o),
(375.193,71.853,o),
(439.62,71.853,cs),
(487.267,71.853,o),
(520,124.723,o),
(520,170.361,cs),
(520,261.717,o),
(444.237,292.096,o),
(366.859,292.096,cs)
);
},
{
pos = (501,0);
ref = sinV.virama;
}
);
width = 1101;
}
);
}
{
glyphname = sinKVI;
layers = (
{
layerId = m001;
shapes = (
{
closed = 1;
nodes = (
(270.586,311.096,o),
(311.499,331.266,o),
(361.463,331.266,cs),
(424.374,331.266,o),
(559.729,320.144,o),
(559.729,158.203,cs),
(559.729,62.387,o),
(497.341,0.124,o),
(430.464,0.124,cs),
(354.371,0.124,o),
(334.104,79.974,o),
(334.104,79.974,c),
(334.104,79.974,o),
(319.6,0.124,o),
(244.469,0.124,cs),
(191.807,0.124,o),
(173.186,39.264,o),
(145.919,39.264,cs),
(134.239,39.264,o),
(120.974,32.083,o),
(102.765,11.568,c),
(85.206,20.655,l),
(120.811,153.591,o),
(128.357,201.627,o),
(236.85,340.249,c),
(237.896,347.179,o),
(239.137,353.967,o),
(239.137,360.505,cs),
(239.137,395.292,o),
(230.541,423.335,o),
(198.324,423.335,cs),
(183.818,423.335,o),
(153.807,410.78,o),
(153.807,363.109,cs),
(153.807,323.637,o),
(122.837,321.888,o),
(112.413,321.888,cs),
(88.397,321.888,o),
(75.621,341.276,o),
(75.621,365.451,cs),
(75.621,405.471,o),
(110.633,458.605,o),
(187.618,458.605,cs),
(226.553,458.605,o),
(264.221,432.488,o),
(267,362,c),
(329,422.5,o),
(396.483,464.938,o),
(495.812,464.938,cs),
(543.472,464.938,o),
(594.189,456.959,o),
(645,441.292,c),
(610,379.339,l),
(575.077,393.314,o),
(535.091,399,o),
(495,399,cs),
(396.979,399,o),
(292.9,357.867,o),
(250.323,298.731,c)
);
},
{
closed = 1;
nodes = (
(204.593,292.096,o),
(143.24,156.091,o),
(135.964,77.266,c),
(143.067,80.772,o),
(154.396,85.036,o),
(167.786,85.036,cs),
(192.139,85.036,o),
(202.455,70.615,o),
(226.815,70.615,cs),
(296.487,70.615,o),
(323,140.18,o),
(323,182,cs),
(323,197,o),
(323,197,o),
(323,197,c),
(349,197,l),
(349,197,o),
(349,195.255,o),
(349,182,cs),
(349,140.103,o),
(373.193,71.853,o),
(437.62,71.853,cs),
(485.267,71.853,o),
(518,124.723,o),
(518,170.361,cs),
(518,261.717,o),
(442.237,292.096,o),
(364.859,292.096,cs)
);
},
{
pos = (493,0);
ref = sinVI;
}
);
width = 1086;
}
);
}
{
glyphname = sinKVUu;
layers = (
{
layerId = m001;
shapes = (
{
closed = 1;
nodes = (
(273.586,311.096,o),
(314.499,331.266,o),
(364.463,331.266,cs),
(427.374,331.266,o),
(562.729,320.144,o),
(562.729,158.203,cs),
(562.729,62.387,o),
(500.341,0.124,o),
(433.464,0.124,cs),
(357.371,0.124,o),
(337.104,79.974,o),
(337.104,79.974,c),
(337.104,79.974,o),
(322.6,0.124,o),
(247.469,0.124,cs),
(194.807,0.124,o),
(176.186,39.264,o),
(148.919,39.264,cs),
(137.239,39.264,o),
(123.974,32.083,o),
(105.765,11.568,c),
(88.206,20.655,l),
(123.811,153.591,o),
(131.357,201.627,o),
(239.85,340.249,c),
(240.896,347.179,o),
(242.137,353.967,o),
(242.137,360.505,cs),
(242.137,395.292,o),
(233.541,423.335,o),
(201.324,423.335,cs),
(186.818,423.335,o),
(156.807,410.78,o),
(156.807,363.109,cs),
(156.807,323.637,o),
(125.837,321.888,o),
(115.413,321.888,cs),
(91.397,321.888,o),
(78.621,341.276,o),
(78.621,365.451,cs),
(78.621,405.471,o),
(113.633,458.605,o),
(190.618,458.605,cs),
(229.553,458.605,o),
(267.221,432.488,o),
(270,362,c),
(332,422.5,o),
(399.483,464.938,o),
(498.812,464.938,cs),
(546.472,464.938,o),
(597.189,456.959,o),
(648,441.292,c),
(613,379.339,l),
(578.077,393.314,o),
(538.091,399,o),
(498,399,cs),
(399.979,399,o),
(295.9,357.867,o),
(253.323,298.731,c)
);
},
{
closed = 1;
nodes = (
(207.593,292.096,o),
(146.24,156.091,o),
(138.964,77.266,c),
(146.067,80.772,o),
(157.396,85.036,o),
(170.786,85.036,cs),
(195.139,85.036,o),
(205.455,70.615,o),
(229.815,70.615,cs),
(299.487,70.615,o),
(326,140.18,o),
(326,182,cs),
(326,197,o),
(326,197,o),
(326,197,c),
(352,197,l),
(352,197,o),
(352,195.255,o),
(352,182,cs),
(352,140.103,o),
(376.193,71.853,o),
(440.62,71.853,cs),
(488.267,71.853,o),
(521,124.723,o),
(521,170.361,cs),
(521,261.717,o),
(445.237,292.096,o),
(367.859,292.096,cs)
);
},
{
pos = (490,0);
ref = sinVUu;
}
);
width = 1097;
}
);
}
{
glyphname = sinKVa;
layers = (
{
layerId = m001;
shapes = (
{
closed = 1;
nodes = (
(217.586,311.096,o),
(258.499,331.266,o),
(308.463,331.266,cs),
(371.374,331.266,o),
(506.729,320.144,o),
(506.729,158.203,cs),
(506.729,62.387,o),
(444.341,0.124,o),
(377.464,0.124,cs),
(301.371,0.124,o),
(281.104,79.974,o),
(281.104,79.974,c),
(281.104,79.974,o),
(266.6,0.124,o),
(191.469,0.124,cs),
(138.807,0.124,o),
(120.186,39.264,o),
(92.919,39.264,cs),
(81.239,39.264,o),
(67.974,32.083,o),
(49.765,11.568,c),
(32.206,20.655,l),
(67.811,153.591,o),
(75.357,201.627,o),
(183.85,340.249,c),
(184.896,347.179,o),
(186.137,353.967,o),
(186.137,360.505,cs),
(186.137,395.292,o),
(177.541,423.335,o),
(145.324,423.335,cs),
(130.818,423.335,o),
(100.807,410.78,o),
(100.807,363.109,cs),
(100.807,323.637,o),
(69.837,321.888,o),
(59.413,321.888,cs),
(35.397,321.888,o),
(22.621,341.276,o),
(22.621,365.451,cs),
(22.621,405.471,o),
(57.633,458.605,o),
(134.618,458.605,cs),
(173.553,458.605,o),
(211.221,432.488,o),
(214,362,c),
(276,422.5,o),
(343.483,464.939,o),
(442.813,464.939,cs),
(490.471,464.939,o),
(541.19,456.959,o),
(592,441.292,c),
(557,379.339,l),
(522.077,393.314,o),
(482.09,399,o),
(442,399,cs),
(343.979,399,o),
(239.9,357.867,o),
(197.323,298.731,c)
);
},
{
closed = 1;
nodes = (
(151.593,292.096,o),
(90.24,156.091,o),
(82.964,77.266,c),
(90.067,80.772,o),
(101.396,85.036,o),
(114.786,85.036,cs),
(139.139,85.036,o),
(149.455,70.615,o),
(173.815,70.615,cs),
(243.487,70.615,o),
(270,140.18,o),
(270,182,cs),
(270,197,o),
(270,197,o),
(270,197,c),
(296,197,l),
(296,197,o),
(296,195.255,o),
(296,182,cs),
(296,140.103,o),
(320.193,71.853,o),
(384.62,71.853,cs),
(432.267,71.853,o),
(465,124.723,o),
(465,170.361,cs),
(465,261.717,o),
(389.237,292.096,o),
(311.859,292.096,cs)
);
},
{
pos = (446,0);
ref = sinVa;
}
);
width = 1038;
}
);
}
